<svg width="319" height="183" viewBox="0 0 319 183" fill="none" xmlns="http://www.w3.org/2000/svg">
<g clip-path="url(#clip0_542_901)">
<rect width="319" height="183" rx="15" fill="white"/>
<path fill-rule="evenodd" clip-rule="evenodd" d="M146.957 144.283L342.109 82.0202C346.795 80.5251 351.806 83.1119 353.301 87.798L355.694 95.2986L143.572 162.976L141.179 155.475C139.684 150.789 142.271 145.778 146.957 144.283ZM144.925 167.218L150.719 185.378L256.305 151.691L250.511 133.531L144.925 167.218ZM253.057 132.719L258.851 150.879L362.841 117.701L357.047 99.541L253.057 132.719ZM257.118 154.237L151.532 187.924L157.926 207.967L263.512 174.28L257.118 154.237ZM266.058 173.468L259.663 153.425L363.653 120.247L370.048 140.29L266.058 173.468ZM264.324 176.826L158.739 210.513L165.133 230.555L270.719 196.868L264.324 176.826ZM273.264 196.056L266.87 176.014L370.86 142.836L377.255 162.878L273.264 196.056ZM271.531 199.414L165.945 233.101L168.791 242.021C170.286 246.707 175.297 249.294 179.983 247.798L277.084 216.819L271.531 199.414ZM279.63 216.006L274.077 198.602L378.067 165.424L380.913 174.344C382.408 179.03 379.821 184.041 375.135 185.536L279.63 216.006ZM280.983 220.249L376.489 189.778C383.518 187.535 387.398 180.019 385.155 172.99L375.103 141.482L375.104 141.482L374.292 138.936L374.291 138.937L367.896 118.893L367.084 116.348L361.29 98.1875L361.29 98.1873L359.937 93.9448L359.936 93.945L357.543 86.4444C355.3 79.4153 347.784 75.5351 340.755 77.7778L145.603 140.041C138.574 142.283 134.694 149.799 136.936 156.829L146.477 186.732L147.289 189.277L160.891 231.909L160.89 231.909L161.702 234.454L161.703 234.454L164.549 243.374C166.791 250.403 174.308 254.284 181.337 252.041L278.438 221.061L278.438 221.061L280.983 220.249L280.983 220.249Z" fill="url(#paint0_linear_542_901)"/>
<path d="M57.2566 43.2381L55.559 43.7652L54.7772 43.3719C56.1713 40.1685 56.3668 36.5706 55.3281 33.235C54.4702 30.4726 52.8125 28.0266 50.5645 26.2063C48.3165 24.3861 45.5792 23.2733 42.6988 23.0087C39.8183 22.7442 36.9241 23.3397 34.3822 24.72C31.8402 26.1003 29.7646 28.2034 28.4179 30.7633C27.0712 33.3232 26.5138 36.225 26.8163 39.1017C27.1187 41.9784 28.2675 44.7008 30.1171 46.9246C31.9668 49.1485 34.4344 50.7739 37.2079 51.5953C39.9814 52.4167 42.9361 52.3973 45.6986 51.5394C49.1581 50.4651 51.9445 48.2097 53.7402 45.3432L54.5072 45.7647L55.0344 47.4622L69.1081 54.848L71.3154 50.6521L57.2566 43.2381ZM44.364 47.2419C39.0135 48.9035 33.3532 45.9257 31.6916 40.5753C30.0301 35.2248 33.0078 29.5645 38.3583 27.903C43.7087 26.2414 49.369 29.2191 51.0306 34.5696C52.6921 39.92 49.7144 45.5803 44.364 47.2419Z" fill="url(#paint1_linear_542_901)"/>
<g clip-path="url(#clip1_542_901)">
<path d="M273.614 39.1505C266.37 22.4692 250.14 16.016 234.917 20.7699C220.528 25.2633 214.163 37.4486 214.004 47.611C201.853 52.6749 193.272 63.3073 197.39 76.4944C201.363 89.2169 215.393 94.5675 229.156 90.2695L283.375 73.3377C294.844 69.756 302.576 61.536 298.931 49.8622C295.33 38.3309 282.716 36.7821 273.614 39.1505Z" stroke="url(#paint2_linear_542_901)" stroke-width="4" stroke-linejoin="round"/>
</g>
<path d="M110.192 115.371L84.2773 122.948M20.0205 127.672L50.2545 118.831M27.5982 153.587L57.8322 144.746M40.8836 102.818C89.608 98.4162 102.869 143.767 58.5648 163.286C60.4714 140.849 54.5777 120.693 40.8836 102.818Z" stroke="url(#paint3_linear_542_901)" stroke-width="4.8" stroke-linecap="round" stroke-linejoin="round"/>
<path d="M126.186 84.3581L124.179 77.6692M147.965 96.051L145.958 89.3622M156.699 64.2664L154.692 57.5775M118.158 57.6026L116.151 50.9138M139.937 69.2956L137.93 62.6067M148.671 37.511L146.664 30.8221M123.549 58.1724L128.366 74.2256C128.525 74.7578 128.527 75.3136 128.371 75.7708C128.214 76.228 127.912 76.549 127.531 76.6634L120.826 78.675C120.445 78.7894 120.016 78.6876 119.634 78.3921C119.252 78.0966 118.947 77.6316 118.788 77.0994L113.971 61.0462C113.811 60.514 113.809 59.9582 113.966 59.501C114.123 59.0438 114.425 58.7228 114.806 58.6085L121.51 56.5968C121.891 56.4825 122.32 56.5842 122.703 56.8797C123.085 57.1752 123.389 57.6402 123.549 58.1724ZM145.328 69.8653L150.145 85.9186C150.304 86.4508 150.306 87.0066 150.15 87.4638C149.993 87.9209 149.691 88.242 149.31 88.3563L142.605 90.368C142.224 90.4823 141.795 90.3806 141.413 90.0851C141.031 89.7896 140.726 89.3246 140.567 88.7924L135.75 72.7392C135.59 72.207 135.589 71.6511 135.745 71.194C135.902 70.7368 136.204 70.4157 136.585 70.3014L143.289 68.2897C143.67 68.1754 144.099 68.2772 144.482 68.5727C144.864 68.8681 145.168 69.3331 145.328 69.8653ZM154.062 38.0807L158.879 54.134C159.039 54.6662 159.04 55.222 158.884 55.6792C158.727 56.1363 158.425 56.4574 158.044 56.5717L151.34 58.5834C151.151 58.64 150.948 58.6441 150.744 58.5956C150.539 58.5471 150.337 58.4468 150.147 58.3005C149.958 58.1542 149.786 57.9647 149.64 57.7429C149.495 57.5211 149.38 57.2713 149.301 57.0078L144.484 40.9545C144.405 40.691 144.364 40.4189 144.363 40.1538C144.362 39.8887 144.402 39.6357 144.479 39.4094C144.557 39.183 144.671 38.9877 144.815 38.8345C144.959 38.6814 145.13 38.5734 145.319 38.5168L152.023 36.5051C152.405 36.3908 152.833 36.4926 153.216 36.788C153.598 37.0835 153.903 37.5485 154.062 38.0807Z" stroke="url(#paint4_linear_542_901)" stroke-width="3.75" stroke-linecap="round" stroke-linejoin="round"/>
</g>
<rect x="0.5" y="0.5" width="318" height="182" rx="14.5" stroke="#C3C2C2"/>
<defs>
<linearGradient id="paint0_linear_542_901" x1="272.27" y1="198.861" x2="154.113" y2="108.017" gradientUnits="userSpaceOnUse">
<stop stop-color="#41748D"/>
<stop offset="0.58" stop-color="#51ABD8"/>
</linearGradient>
<linearGradient id="paint1_linear_542_901" x1="41.8476" y1="22.1073" x2="42.5135" y2="56.6554" gradientUnits="userSpaceOnUse">
<stop stop-color="#5FB865"/>
<stop offset="1" stop-color="#75F77E"/>
</linearGradient>
<linearGradient id="paint2_linear_542_901" x1="275.979" y1="20.9607" x2="218.892" y2="105.413" gradientUnits="userSpaceOnUse">
<stop stop-color="#41748D"/>
<stop offset="0.427001" stop-color="#51ABD8"/>
</linearGradient>
<linearGradient id="paint3_linear_542_901" x1="55" y1="154.4" x2="107.8" y2="84.8" gradientUnits="userSpaceOnUse">
<stop stop-color="#5FB865"/>
<stop offset="1" stop-color="#75F77E"/>
</linearGradient>
<linearGradient id="paint4_linear_542_901" x1="129.902" y1="35.8513" x2="151.268" y2="93.4486" gradientUnits="userSpaceOnUse">
<stop stop-color="#5FB865"/>
<stop offset="1" stop-color="#75F77E"/>
</linearGradient>
<clipPath id="clip0_542_901">
<rect width="319" height="183" rx="15" fill="white"/>
</clipPath>
<clipPath id="clip1_542_901">
<rect width="111.854" height="103.397" fill="white" transform="translate(175.754 18.9355) rotate(-17.343)"/>
</clipPath>
</defs>
</svg>
