<svg width="335" height="107" viewBox="0 0 335 107" fill="none" xmlns="http://www.w3.org/2000/svg">
<path d="M152.071 87.4042C149.505 88.0753 147.236 89.5813 145.622 91.6847L135.527 87.3534C135.779 85.7367 135.695 84.0852 135.279 82.5027C135.208 82.2343 135.138 81.9659 135.039 81.7087L139.419 78.8507C141.551 80.7943 144.312 81.9046 147.196 81.9782C150.081 82.0519 152.895 81.0839 155.123 79.2517C157.352 77.4195 158.846 74.8457 159.332 72.0018C159.817 69.1578 159.262 66.2341 157.767 63.7663C156.273 61.2984 153.939 59.4515 151.194 58.564C148.449 57.6765 145.476 57.8077 142.82 58.9337C140.163 60.0596 138.002 62.1049 136.73 64.6949C135.459 67.2848 135.164 70.2461 135.898 73.0362C135.968 73.3046 136.039 73.573 136.137 73.8302L131.757 76.6882C130.279 75.3376 128.486 74.3785 126.542 73.8982C124.598 73.418 122.565 73.4318 120.627 73.9386C119.987 74.1078 119.362 74.3288 118.758 74.5994L114.808 69.6493C116.502 67.3757 117.336 64.576 117.162 61.7464C116.989 58.9167 115.819 56.2398 113.86 54.1902C111.902 52.1406 109.281 50.8505 106.462 50.5488C103.643 50.247 100.808 50.953 98.4603 52.5416C96.1122 54.1302 94.4024 56.4989 93.6339 59.2277C92.8654 61.9565 93.0879 64.8693 94.2618 67.4498C95.4358 70.0303 97.4854 72.1118 100.048 73.3254C102.61 74.5391 105.519 74.8064 108.259 74.0801C108.899 73.9108 109.524 73.6898 110.129 73.4193L114.075 78.3549C112.407 80.5719 111.561 83.2991 111.682 86.0705C111.803 88.8419 112.882 91.4853 114.736 93.549L107.582 104.279C104.82 103.312 101.801 103.386 99.0893 104.486C96.3778 105.586 94.1607 107.638 92.8536 110.256C91.5464 112.874 91.2389 115.879 91.9887 118.707C92.7385 121.536 94.4941 123.994 96.9265 125.62C99.3589 127.247 102.301 127.931 105.201 127.543C108.102 127.156 110.761 125.724 112.682 123.516C114.602 121.308 115.651 118.475 115.632 115.549C115.613 112.623 114.528 109.804 112.579 107.621L119.733 96.8908C122.109 97.721 124.686 97.781 127.098 97.0623C129.509 96.3437 131.633 94.8829 133.167 92.8878L143.262 97.2192C143.01 98.8309 143.094 100.477 143.507 102.055C144.108 104.351 145.378 106.417 147.154 107.991C148.93 109.566 151.133 110.578 153.484 110.901C155.835 111.223 158.229 110.841 160.364 109.803C162.498 108.764 164.276 107.117 165.474 105.068C166.672 103.019 167.235 100.66 167.093 98.2913C166.95 95.9223 166.108 93.6486 164.674 91.758C163.239 89.8673 161.276 88.4445 159.032 87.6695C156.789 86.8946 154.366 86.8022 152.071 87.4042ZM145.984 64.1889C147.132 63.8879 148.343 63.9341 149.465 64.3216C150.586 64.709 151.568 65.4204 152.285 66.3658C153.003 67.3111 153.423 68.4479 153.495 69.6325C153.566 70.817 153.284 71.9961 152.685 73.0206C152.087 74.0451 151.197 74.869 150.13 75.3881C149.063 75.9072 147.866 76.0983 146.69 75.9371C145.515 75.7758 144.413 75.2696 143.525 74.4824C142.637 73.6952 142.003 72.6623 141.702 71.5144C141.298 69.9752 141.523 68.3386 142.326 66.9648C143.129 65.591 144.445 64.5925 145.984 64.1889ZM99.4117 63.9942C99.1107 62.8463 99.1569 61.635 99.5443 60.5133C99.9318 59.3917 100.643 58.4101 101.589 57.6928C102.534 56.9755 103.671 56.5546 104.855 56.4833C106.04 56.4121 107.219 56.6937 108.243 57.2925C109.268 57.8914 110.092 58.7806 110.611 59.8477C111.13 60.9148 111.321 62.1119 111.16 63.2876C110.999 64.4633 110.492 65.5648 109.705 66.4528C108.918 67.3407 107.885 67.9753 106.737 68.2763C105.198 68.6799 103.561 68.4555 102.188 67.6524C100.814 66.8494 99.8152 65.5335 99.4117 63.9942ZM105.162 121.413C104.014 121.714 102.803 121.668 101.681 121.28C100.56 120.893 99.5783 120.182 98.861 119.236C98.1436 118.291 97.7227 117.154 97.6515 115.97C97.5802 114.785 97.8618 113.606 98.4607 112.581C99.0596 111.557 99.9488 110.733 101.016 110.214C102.083 109.695 103.28 109.504 104.456 109.665C105.631 109.826 106.733 110.332 107.621 111.12C108.509 111.907 109.143 112.94 109.444 114.088C109.848 115.627 109.624 117.263 108.821 118.637C108.018 120.011 106.702 121.01 105.162 121.413ZM117.867 87.0679C117.566 85.9201 117.612 84.7087 118 83.5871C118.387 82.4654 119.099 81.4839 120.044 80.7665C120.989 80.0492 122.126 79.6283 123.311 79.557C124.495 79.4858 125.674 79.7674 126.699 80.3663C127.723 80.9651 128.547 81.8543 129.066 82.9214C129.585 83.9886 129.776 85.1857 129.615 86.3613C129.454 87.537 128.948 88.6385 128.161 89.5265C127.373 90.4145 126.341 91.0491 125.193 91.35C123.653 91.7536 122.017 91.5292 120.643 90.7262C119.269 89.9231 118.271 88.6072 117.867 87.0679ZM156.636 104.816C155.488 105.117 154.277 105.07 153.155 104.683C152.033 104.295 151.052 103.584 150.334 102.639C149.617 101.693 149.196 100.557 149.125 99.372C149.054 98.1875 149.335 97.0084 149.934 95.9839C150.533 94.9594 151.422 94.1355 152.489 93.6164C153.557 93.0972 154.754 92.9062 155.929 93.0674C157.105 93.2286 158.206 93.7349 159.094 94.5221C159.982 95.3093 160.617 96.3422 160.918 97.4901C161.322 99.0293 161.097 100.666 160.294 102.04C159.491 103.413 158.175 104.412 156.636 104.816Z" fill="url(#paint0_linear_779_436)"/>
<path d="M183.129 -7.21715C183.685 -8.04487 184.806 -8.26603 185.634 -7.711L199.126 1.33698C199.954 1.89223 200.175 3.01368 199.62 3.84149C199.065 4.66932 197.944 4.89024 197.116 4.33534L187.242 -2.28585L201.775 71.4171L233.908 40.1938L234.657 41.1977L234.69 41.0717L261.679 51.8371L302.997 -9.65483L305.659 -7.2155L263.161 56.0341L262.676 55.5901L262.561 56.0439L234.325 44.7809L202.601 75.6059L211.976 123.151L350.409 95.2893C351.387 95.0926 352.338 95.7254 352.533 96.7029C352.729 97.6802 352.095 98.6317 351.118 98.8284L211.385 126.953L211.202 126.981C210.6 127.04 210.027 126.79 209.654 126.35C209.217 126.135 208.871 125.748 208.722 125.257L208.677 125.078L198.812 75.0481L198.486 74.6127L198.688 74.4167L183.701 -1.58758L177.08 8.28612C176.524 9.11377 175.403 9.3351 174.575 8.77997C173.747 8.2248 173.526 7.10332 174.081 6.27546L183.129 -7.21715Z" fill="url(#paint1_linear_779_436)"/>
<path d="M35.8483 27.2931L41.0606 13.2278M63.9789 37.7175L69.1912 23.6522M63.7643 72.831L59.0733 85.4897L8.43821 66.7257L11.5655 58.2866M72.2397 48.7771L21.5737 30.0017M3.38697 54.456L3.12636 55.1592L53.4801 73.819L54.1627 73.2721L55.3328 72.1348C64.2809 63.4265 71.175 52.833 75.5137 41.125L77.8373 34.8547L27.2022 16.0906L24.9839 22.0768C20.6118 33.8754 13.645 44.541 4.59802 53.2859L3.38697 54.456Z" stroke="url(#paint2_linear_779_436)" stroke-width="3"/>
<path d="M95 12.4307V7.43066M112.5 24.9307V19.9307M130 4.93066V-0.0693359M95 -7.56934V-12.5693M112.5 4.93066V-0.0693359M130 -15.0693V-20.0693M100 -6.06933V5.93066C100 6.32849 99.842 6.71002 99.5607 6.99133C99.2794 7.27263 98.8978 7.43066 98.5 7.43066H91.5C91.1022 7.43066 90.7206 7.27263 90.4393 6.99133C90.158 6.71002 90 6.32849 90 5.93066V-6.06933C90 -6.46716 90.158 -6.84869 90.4393 -7.13C90.7206 -7.4113 91.1022 -7.56934 91.5 -7.56934H98.5C98.8978 -7.56934 99.2794 -7.4113 99.5607 -7.13C99.842 -6.84869 100 -6.46716 100 -6.06933ZM117.5 6.43066V18.4307C117.5 18.8285 117.342 19.21 117.061 19.4913C116.779 19.7726 116.398 19.9307 116 19.9307H109C108.602 19.9307 108.221 19.7726 107.939 19.4913C107.658 19.21 107.5 18.8285 107.5 18.4307V6.43066C107.5 6.03284 107.658 5.65131 107.939 5.37C108.221 5.0887 108.602 4.93066 109 4.93066H116C116.398 4.93066 116.779 5.0887 117.061 5.37C117.342 5.65131 117.5 6.03284 117.5 6.43066ZM135 -13.5693V-1.56934C135 -1.17151 134.842 -0.789979 134.561 -0.508675C134.279 -0.22737 133.898 -0.0693359 133.5 -0.0693359H126.5C126.303 -0.0693359 126.108 -0.108135 125.926 -0.183517C125.744 -0.2589 125.579 -0.369387 125.439 -0.508675C125.3 -0.647962 125.19 -0.813323 125.114 -0.995312C125.039 -1.1773 125 -1.37235 125 -1.56934V-13.5693C125 -13.7663 125.039 -13.9614 125.114 -14.1434C125.19 -14.3253 125.3 -14.4907 125.439 -14.63C125.579 -14.7693 125.744 -14.8798 125.926 -14.9552C126.108 -15.0305 126.303 -15.0693 126.5 -15.0693H133.5C133.898 -15.0693 134.279 -14.9113 134.561 -14.63C134.842 -14.3487 135 -13.9672 135 -13.5693Z" stroke="url(#paint3_linear_779_436)" stroke-width="3.75" stroke-linecap="round" stroke-linejoin="round"/>
<defs>
<linearGradient id="paint0_linear_779_436" x1="152" y1="117.93" x2="107.5" y2="47.9302" gradientUnits="userSpaceOnUse">
<stop stop-color="#B82626"/>
<stop offset="1" stop-color="#F95454"/>
</linearGradient>
<linearGradient id="paint1_linear_779_436" x1="206.806" y1="127.852" x2="341.022" y2="38.5795" gradientUnits="userSpaceOnUse">
<stop stop-color="#B82626"/>
<stop offset="1" stop-color="#F95454"/>
</linearGradient>
<linearGradient id="paint2_linear_779_436" x1="77.0109" y1="36.0299" x2="-1.10485" y2="47.6565" gradientUnits="userSpaceOnUse">
<stop stop-color="#B82626"/>
<stop offset="1" stop-color="#F95454"/>
</linearGradient>
<linearGradient id="paint3_linear_779_436" x1="134.5" y1="-19.5693" x2="98.5" y2="48.9307" gradientUnits="userSpaceOnUse">
<stop stop-color="#B82626"/>
<stop offset="1" stop-color="#F95454"/>
</linearGradient>
</defs>
</svg>
