<svg width="416" height="309" viewBox="0 0 416 309" fill="none" xmlns="http://www.w3.org/2000/svg">
<path d="M195.9 187.759C202.656 186.402 209.301 190.675 210.838 197.434L212.534 204.894L212.54 204.893L213.482 209.037L213.476 209.038L227.046 268.714L227.115 269.036C228.451 275.686 224.334 282.226 217.761 283.897L217.441 283.974L121.295 305.837L120.974 305.906C114.324 307.242 107.783 303.125 106.113 296.551L106.036 296.231L89.8271 224.951C88.2901 218.192 92.4332 211.466 99.1126 209.768L99.4326 209.691L195.578 187.829L195.9 187.759ZM96.61 235.613L110.18 295.289C111.221 299.866 115.776 302.733 120.353 301.692L216.498 279.83C221.076 278.789 223.943 274.234 222.902 269.656L209.332 209.981L96.61 235.613ZM100.375 213.836C95.7974 214.877 92.9304 219.431 93.9713 224.009L95.6677 231.469L208.39 205.836L206.693 198.377C205.652 193.799 201.098 190.932 196.52 191.973L100.375 213.836Z" fill="#2AD935"/>
<path d="M115.741 257.333L115.09 254.474L121.544 249.502C121.841 249.278 122.136 249.08 122.428 248.909C122.734 248.717 122.974 248.584 123.148 248.51C122.959 248.518 122.688 248.518 122.338 248.511C121.984 248.487 121.632 248.436 121.283 248.358L113.309 246.641L112.648 243.732L124.98 246.446L125.687 249.554L115.741 257.333Z" fill="#5FB865"/>
<path d="M301.289 233.069L300.822 232.586C300.47 232.223 300.194 231.794 300.008 231.324C299.822 230.854 299.731 230.352 299.739 229.847C299.747 229.342 299.855 228.843 300.056 228.379C300.257 227.916 300.547 227.496 300.911 227.144C301.274 226.793 301.703 226.516 302.173 226.331C302.643 226.145 303.145 226.053 303.65 226.062C304.155 226.07 304.654 226.178 305.118 226.379C305.581 226.58 306.001 226.87 306.353 227.233L306.817 227.715C307.741 226.918 308.935 226.504 310.155 226.558C311.374 226.613 312.527 227.132 313.376 228.009L345.656 261.335C345.857 261.543 345.997 261.802 346.062 262.084L349.045 274.883C349.107 275.151 349.099 275.431 349.021 275.694C348.943 275.958 348.799 276.197 348.601 276.389C348.404 276.58 348.16 276.717 347.894 276.786C347.628 276.855 347.348 276.855 347.082 276.784L334.385 273.393C334.106 273.319 333.853 273.17 333.652 272.964L303.414 241.742C303.193 242.046 303.086 242.418 303.113 242.793C303.139 243.168 303.298 243.522 303.56 243.791L313.887 254.451C314.033 254.601 314.147 254.779 314.225 254.974C314.302 255.169 314.34 255.377 314.336 255.587C314.333 255.796 314.288 256.003 314.205 256.195C314.122 256.387 314.001 256.561 313.851 256.707C313.7 256.853 313.523 256.968 313.328 257.045C313.133 257.122 312.925 257.16 312.715 257.157C312.506 257.153 312.299 257.109 312.107 257.025C311.914 256.942 311.74 256.822 311.594 256.671L301.27 246.005C300.421 245.128 299.939 243.958 299.924 242.737C299.909 241.515 300.362 240.335 301.191 239.437C300.422 238.548 300.007 237.408 300.025 236.234C300.044 235.059 300.494 233.933 301.289 233.069ZM303.698 235.16C303.394 235.454 303.22 235.857 303.213 236.28C303.206 236.702 303.368 237.11 303.662 237.414L335.634 270.432L345.338 273.023L343.059 263.241L311.087 230.223C310.941 230.072 310.767 229.951 310.575 229.868C310.382 229.784 310.175 229.74 309.966 229.736C309.756 229.733 309.548 229.771 309.353 229.848C309.158 229.925 308.981 230.04 308.83 230.186L303.698 235.16Z" fill="#08E617"/>
<path d="M397.209 129.991L388.448 138.418L385.651 126.226L397.209 129.991Z" fill="url(#paint0_linear_906_25)" fill-opacity="0.6" stroke="#22E62E" stroke-width="5.1"/>
<circle cx="391.193" cy="131.193" r="22.1931" stroke="#22E62E" stroke-width="4"/>
<path d="M282.431 21.7301C278.518 19.5996 273.259 18.0668 267.469 17.3461V14.7656C267.469 10.5047 264.101 6.64453 257.977 3.8918C252.408 1.38164 245.039 0 237.234 0C229.43 0 222.061 1.38164 216.492 3.8918C210.368 6.64453 207 10.5047 207 14.7656V28.8281C207 33.0891 210.368 36.9492 216.492 39.702C220.18 41.3613 224.652 42.5145 229.5 43.1227V45.7031C229.5 49.9641 232.868 53.8242 238.992 56.577C244.561 59.0871 251.93 60.4688 259.734 60.4688C267.539 60.4688 274.908 59.0871 280.477 56.577C286.59 53.8242 289.969 49.9641 289.969 45.7031V31.6406C289.969 27.8965 287.293 24.3773 282.431 21.7301ZM280.413 25.4355C283.855 27.3094 285.75 29.5312 285.75 31.6406C285.75 36.6293 275.066 42.1875 259.734 42.1875C257.241 42.1889 254.751 42.0316 252.278 41.7164C254.227 41.1933 256.132 40.5198 257.977 39.702C264.09 36.9492 267.469 33.0891 267.469 28.8281V21.5965C272.531 22.275 277.066 23.6109 280.413 25.4355ZM241.509 39.2273C240.131 39.3223 238.697 39.375 237.234 39.375C235.371 39.375 233.578 39.2906 231.862 39.1395C231.819 39.1354 231.776 39.1354 231.732 39.1395C230.474 39.0234 229.271 38.8688 228.094 38.6824V28.8703C231.12 29.3137 234.175 29.5346 237.234 29.5312C240.293 29.5346 243.348 29.3137 246.375 28.8703V38.6719C244.849 38.9145 243.243 39.1008 241.562 39.2203L241.509 39.2273ZM263.25 22.4613V28.8281C263.25 32.182 258.416 35.7891 250.594 37.7965V28.0723C253.127 27.5003 255.599 26.6856 257.977 25.6395C259.867 24.8183 261.641 23.7496 263.25 22.4613ZM237.234 4.21875C252.566 4.21875 263.25 9.77695 263.25 14.7656C263.25 19.7543 252.566 25.3125 237.234 25.3125C221.903 25.3125 211.219 19.7543 211.219 14.7656C211.219 9.77695 221.903 4.21875 237.234 4.21875ZM211.219 28.8281V22.4613C212.829 23.7446 214.602 24.8086 216.492 25.6254C218.869 26.6716 221.342 27.4863 223.875 28.0582V37.7824C216.053 35.7891 211.219 32.182 211.219 28.8281ZM233.719 45.7031V43.4953C234.879 43.5586 236.05 43.5938 237.234 43.5938C238.62 43.5938 239.986 43.5504 241.334 43.4637C242.983 44.0588 244.666 44.553 246.375 44.9437V54.6715C238.553 52.6641 233.719 49.057 233.719 45.7031ZM250.594 55.5469V45.7383C253.62 46.1841 256.675 46.4073 259.734 46.4062C262.793 46.4096 265.848 46.1887 268.875 45.7453V55.5469C262.817 56.4844 256.651 56.4844 250.594 55.5469ZM273.094 54.6715V44.9473C275.627 44.3753 278.099 43.5606 280.477 42.5145C282.367 41.6977 284.14 40.6337 285.75 39.3504V45.7031C285.75 49.057 280.916 52.6641 273.094 54.6715Z" fill="#1BBF26" fill-opacity="0.6"/>
<path d="M76.0707 88.474C73.5054 89.1451 71.2364 90.6512 69.6217 92.7545L59.5269 88.4232C59.7794 86.8065 59.6948 85.155 59.2786 83.5726C59.2082 83.3041 59.1378 83.0357 59.0393 82.7785L63.4189 79.9206C65.5512 81.8641 68.3123 82.9744 71.1964 83.048C74.0806 83.1217 76.8947 82.1537 79.1234 80.3215C81.352 78.4893 82.846 75.9155 83.3316 73.0716C83.8171 70.2277 83.2618 67.304 81.7674 64.8361C80.2729 62.3682 77.9394 60.5214 75.1942 59.6338C72.449 58.7463 69.4759 58.8776 66.8196 60.0035C64.1633 61.1294 62.0015 63.1747 60.7303 65.7647C59.4591 68.3546 59.1636 71.3159 59.8979 74.106C59.9682 74.3744 60.0386 74.6428 60.1371 74.9L55.7575 77.758C54.279 76.4074 52.4861 75.4483 50.5421 74.9681C48.598 74.4878 46.5647 74.5017 44.6274 75.0084C43.9873 75.1777 43.362 75.3987 42.7577 75.6692L38.8081 70.7191C40.5016 68.4456 41.3356 65.6459 41.1621 62.8162C40.9887 59.9865 39.819 57.3097 37.8604 55.26C35.9018 53.2104 33.2808 51.9204 30.4619 51.6186C27.643 51.3169 24.8084 52.0229 22.4603 53.6115C20.1122 55.2001 18.4024 57.5687 17.6339 60.2975C16.8654 63.0263 17.0879 65.9391 18.2618 68.5196C19.4358 71.1001 21.4854 73.1816 24.0475 74.3953C26.6096 75.6089 29.5186 75.8763 32.2589 75.1499C32.8991 74.9807 33.5244 74.7597 34.1287 74.4891L38.0745 79.4248C36.4071 81.6417 35.5615 84.3689 35.6821 87.1403C35.8027 89.9117 36.8822 92.5551 38.7359 94.6188L31.5822 105.349C28.8204 104.382 25.8007 104.456 23.0893 105.556C20.3778 106.656 18.1607 108.708 16.8536 111.326C15.5464 113.944 15.2389 116.948 15.9887 119.777C16.7385 122.605 18.4941 125.063 20.9265 126.69C23.3589 128.317 26.3011 129 29.2015 128.613C32.1019 128.226 34.7615 126.794 36.6817 124.586C38.6019 122.378 39.6509 119.545 39.632 116.619C39.6132 113.693 38.5279 110.874 36.5794 108.691L43.7332 97.9607C46.1089 98.7908 48.6859 98.8508 51.0977 98.1322C53.5095 97.4135 55.6333 95.9527 57.1671 93.9576L67.262 98.289C67.0103 99.9007 67.0935 101.547 67.5065 103.125C68.1085 105.421 69.3777 107.487 71.1536 109.061C72.9296 110.635 75.1325 111.648 77.4839 111.97C79.8353 112.293 82.2295 111.911 84.3637 110.872C86.4979 109.834 88.2763 108.186 89.4741 106.137C90.6718 104.088 91.235 101.73 91.0925 99.3612C90.95 96.9921 90.1082 94.7184 88.6735 92.8278C87.2389 90.9371 85.2758 89.5143 83.0325 88.7394C80.7892 87.9644 78.3665 87.872 76.0707 88.474ZM69.9838 65.2587C71.1317 64.9577 72.343 65.0039 73.4647 65.3914C74.5863 65.7789 75.5679 66.4903 76.2852 67.4356C77.0025 68.3809 77.4234 69.5177 77.4947 70.7023C77.5659 71.8868 77.2843 73.0659 76.6855 74.0904C76.0866 75.1149 75.1974 75.9388 74.1303 76.4579C73.0631 76.9771 71.8661 77.1681 70.6904 77.0069C69.5147 76.8457 68.4132 76.3394 67.5252 75.5522C66.6373 74.765 66.0027 73.7321 65.7017 72.5842C65.2981 71.045 65.5225 69.4084 66.3256 68.0346C67.1286 66.6608 68.4445 65.6623 69.9838 65.2587ZM23.4117 65.064C23.1107 63.9162 23.1569 62.7048 23.5443 61.5832C23.9318 60.4615 24.6432 59.48 25.5886 58.7626C26.5339 58.0453 27.6707 57.6244 28.8553 57.5531C30.0398 57.4819 31.2189 57.7635 32.2434 58.3624C33.2679 58.9612 34.0918 59.8504 34.6109 60.9175C35.13 61.9847 35.3211 63.1818 35.1599 64.3574C34.9986 65.5331 34.4924 66.6346 33.7052 67.5226C32.918 68.4106 31.8851 69.0452 30.7372 69.3461C29.1979 69.7497 27.5614 69.5253 26.1876 68.7223C24.8138 67.9192 23.8152 66.6033 23.4117 65.064ZM29.1624 122.483C28.0145 122.784 26.8031 122.738 25.6815 122.35C24.5598 121.963 23.5783 121.251 22.861 120.306C22.1436 119.361 21.7227 118.224 21.6515 117.039C21.5802 115.855 21.8618 114.676 22.4607 113.651C23.0596 112.627 23.9488 111.803 25.0159 111.284C26.083 110.765 27.2801 110.574 28.4558 110.735C29.6315 110.896 30.7329 111.402 31.6209 112.189C32.5089 112.977 33.1435 114.009 33.4445 115.157C33.848 116.697 33.6236 118.333 32.8206 119.707C32.0175 121.081 30.7016 122.079 29.1624 122.483ZM41.8671 88.1378C41.5661 86.9899 41.6123 85.7785 41.9998 84.6569C42.3873 83.5352 43.0987 82.5537 44.044 81.8363C44.9893 81.119 46.1261 80.6981 47.3107 80.6269C48.4952 80.5556 49.6743 80.8372 50.6988 81.4361C51.7233 82.035 52.5472 82.9242 53.0663 83.9913C53.5855 85.0584 53.7765 86.2555 53.6153 87.4312C53.4541 88.6069 52.9478 89.7083 52.1606 90.5963C51.3734 91.4843 50.3405 92.1189 49.1926 92.4199C47.6534 92.8234 46.0168 92.599 44.643 91.796C43.2692 90.9929 42.2707 89.677 41.8671 88.1378ZM80.6359 105.885C79.488 106.186 78.2766 106.14 77.155 105.753C76.0334 105.365 75.0518 104.654 74.3345 103.709C73.6171 102.763 73.1962 101.626 73.125 100.442C73.0537 99.2573 73.3354 98.0782 73.9342 97.0537C74.5331 96.0292 75.4223 95.2053 76.4894 94.6862C77.5565 94.1671 78.7536 93.976 79.9293 94.1372C81.105 94.2985 82.2065 94.8047 83.0944 95.5919C83.9824 96.3791 84.617 97.412 84.918 98.5599C85.3216 100.099 85.0972 101.736 84.2941 103.11C83.4911 104.483 82.1752 105.482 80.6359 105.885Z" fill="#11DA1E" fill-opacity="0.6"/>
<defs>
<linearGradient id="paint0_linear_906_25" x1="396.73" y1="137.803" x2="383.554" y2="120.821" gradientUnits="userSpaceOnUse">
<stop stop-color="#5FB865"/>
<stop offset="1" stop-color="#69E671"/>
</linearGradient>
</defs>
</svg>
