<svg width="319" height="183" viewBox="0 0 319 183" fill="none" xmlns="http://www.w3.org/2000/svg">
<g clip-path="url(#clip0_759_89)">
<rect width="319" height="183" rx="15" fill="white"/>
<path d="M240.103 44.5596C240.854 44.4411 241.588 44.9083 241.786 45.6592L246.238 62.5332C246.385 62.3874 246.562 62.2696 246.765 62.1934L246.912 62.1465L262.14 58.1279L262.291 58.0967C263.042 57.978 263.775 58.4453 263.973 59.1963L267.468 72.4443C267.615 72.2984 267.794 72.1808 267.997 72.1045L268.143 72.0576L283.372 68.04L283.522 68.0078C284.273 67.8893 285.007 68.3566 285.205 69.1074L289.083 83.8066C289.229 83.6608 289.407 83.5431 289.61 83.4668L289.757 83.4199L304.985 79.4014L305.135 79.3701C305.35 79.3363 305.562 79.3509 305.761 79.4053L303.223 69.7832C303.025 69.0324 303.433 68.2645 304.144 67.9971L304.291 67.9502L319.52 63.9316L319.67 63.9004C320.421 63.7817 321.155 64.2482 321.353 64.999L344.888 154.203L381.062 144.661L374.66 140.932C374.123 140.619 373.941 139.93 374.254 139.394C374.566 138.857 375.255 138.676 375.792 138.988L384.542 144.084C385.078 144.397 385.261 145.086 384.948 145.623L379.851 154.372C379.538 154.909 378.849 155.09 378.312 154.777C377.776 154.465 377.595 153.776 377.907 153.239L381.636 146.837L205.859 193.216L205.748 192.796C205.327 192.758 204.951 192.483 204.797 192.073L204.761 191.963L168.33 53.8867L164.6 60.2891C164.288 60.8257 163.599 61.008 163.062 60.6953C162.526 60.3826 162.344 59.694 162.657 59.1572L167.753 50.4072C168.065 49.8706 168.755 49.6883 169.292 50.001L178.041 55.0977C178.577 55.4105 178.759 56.1 178.446 56.6367C178.133 57.1732 177.445 57.3544 176.908 57.042L170.506 53.3125L192.965 138.434L207.83 134.512L207.98 134.48C208.194 134.447 208.407 134.461 208.606 134.516L200.136 102.412C199.938 101.661 200.347 100.893 201.058 100.626L201.204 100.579L216.433 96.5615L216.583 96.5293C216.797 96.4954 217.01 96.5109 217.21 96.5654L209.122 65.9121C208.924 65.1612 209.332 64.3932 210.044 64.126L210.189 64.0791L225.419 60.0605L225.569 60.0293C225.783 59.9956 225.995 60.0102 226.194 60.0645L223.656 50.4424C223.458 49.6914 223.866 48.9235 224.578 48.6562L224.723 48.6094L239.953 44.5908L240.103 44.5596ZM193.595 140.336L206.863 190.622L221.125 186.859L207.857 136.573L193.595 140.336ZM202.198 102.386L224.267 186.029L238.529 182.267L216.46 98.6221L202.198 102.386ZM211.183 65.8857L241.672 181.437L255.933 177.674L225.445 62.1221L211.183 65.8857ZM225.718 50.415L259.076 176.844L273.338 173.081L239.979 46.6523L225.718 50.415ZM247.905 63.9531L276.479 172.251L290.742 168.488L262.168 60.1895L247.905 63.9531ZM269.136 73.8643L293.884 167.659L308.146 163.896L283.398 70.1016L269.136 73.8643ZM290.751 85.2266L311.289 163.067L325.551 159.305L305.012 81.4629L290.751 85.2266ZM305.285 69.7559L328.693 158.476L342.955 154.713L319.547 65.9932L305.285 69.7559Z" fill="url(#paint0_linear_759_89)"/>
<path d="M116.116 162.591C116.035 162.201 115.804 161.859 115.471 161.641C115.139 161.422 114.733 161.344 114.344 161.424L74.6768 169.596L66.4944 129.876C66.4141 129.486 66.1823 129.145 65.85 128.926C65.5178 128.707 65.1122 128.629 64.7226 128.71C41.2308 133.549 26.0486 156.571 30.8813 180.03C35.892 204.353 58.0146 218.918 82.3379 213.908C105.001 209.239 120.785 185.257 116.116 162.591ZM33.8196 179.425C29.4215 158.075 42.83 137.119 63.8641 131.977L72.0411 171.67C72.2082 172.481 73.002 173.004 73.802 172.784L113.44 164.619C116.839 185.329 102.342 206.724 81.7326 210.969C59.0842 215.635 38.4858 202.076 33.8196 179.425Z" fill="url(#paint1_linear_759_89)"/>
<path d="M80.7986 162.154L121.932 153.68C122.754 153.566 123.268 152.719 123.101 151.908C118.262 128.416 95.2109 113.24 71.7192 118.079C71.3295 118.159 70.9877 118.391 70.7689 118.723C70.5502 119.056 70.4724 119.461 70.5526 119.851L79.0377 161.04C79.2048 161.851 79.9985 162.374 80.7986 162.154ZM73.799 120.741C94.709 117.227 114.902 130.56 119.854 151.1L81.6734 158.966L73.799 120.741Z" fill="url(#paint2_linear_759_89)"/>
<path d="M130.071 49.474C127.505 50.1451 125.236 51.6512 123.622 53.7545L113.527 49.4232C113.779 47.8065 113.695 46.155 113.279 44.5726C113.208 44.3041 113.138 44.0357 113.039 43.7785L117.419 40.9206C119.551 42.8641 122.312 43.9744 125.196 44.048C128.081 44.1217 130.895 43.1537 133.123 41.3215C135.352 39.4893 136.846 36.9155 137.332 34.0716C137.817 31.2277 137.262 28.304 135.767 25.8361C134.273 23.3682 131.939 21.5214 129.194 20.6338C126.449 19.7463 123.476 19.8776 120.82 21.0035C118.163 22.1294 116.002 24.1747 114.73 26.7647C113.459 29.3546 113.164 32.3159 113.898 35.106C113.968 35.3744 114.039 35.6428 114.137 35.9L109.757 38.758C108.279 37.4074 106.486 36.4483 104.542 35.9681C102.598 35.4878 100.565 35.5017 98.6274 36.0084C97.9873 36.1777 97.362 36.3987 96.7577 36.6692L92.8081 31.7191C94.5016 29.4456 95.3356 26.6459 95.1621 23.8162C94.9887 20.9865 93.819 18.3097 91.8604 16.26C89.9018 14.2104 87.2808 12.9204 84.4619 12.6186C81.643 12.3169 78.8084 13.0229 76.4603 14.6115C74.1122 16.2001 72.4024 18.5687 71.6339 21.2975C70.8654 24.0263 71.0879 26.9391 72.2618 29.5196C73.4358 32.1001 75.4854 34.1816 78.0475 35.3953C80.6096 36.6089 83.5186 36.8763 86.2589 36.1499C86.8991 35.9807 87.5244 35.7597 88.1287 35.4891L92.0745 40.4248C90.4071 42.6417 89.5615 45.3689 89.6821 48.1403C89.8027 50.9117 90.8822 53.5551 92.7359 55.6188L85.5822 66.349C82.8204 65.3821 79.8007 65.4557 77.0893 66.556C74.3778 67.6563 72.1607 69.7076 70.8536 72.3256C69.5464 74.9436 69.2389 77.9484 69.9887 80.7769C70.7385 83.6054 72.4941 86.0633 74.9265 87.69C77.3589 89.3166 80.3011 90.0003 83.2015 89.6129C86.1019 89.2255 88.7615 87.7936 90.6817 85.5856C92.6019 83.3776 93.6509 80.545 93.632 77.6189C93.6132 74.6928 92.5279 71.874 90.5794 69.6909L97.7332 58.9607C100.109 59.7908 102.686 59.8508 105.098 59.1322C107.509 58.4135 109.633 56.9527 111.167 54.9576L121.262 59.289C121.01 60.9007 121.094 62.547 121.507 64.1251C122.108 66.4209 123.378 68.4866 125.154 70.061C126.93 71.6355 129.133 72.6479 131.484 72.9704C133.835 73.2928 136.229 72.9107 138.364 71.8725C140.498 70.8342 142.276 69.1864 143.474 67.1374C144.672 65.0884 145.235 62.7303 145.093 60.3612C144.95 57.9921 144.108 55.7184 142.674 53.8278C141.239 51.9371 139.276 50.5143 137.032 49.7394C134.789 48.9644 132.366 48.872 130.071 49.474ZM123.984 26.2587C125.132 25.9577 126.343 26.0039 127.465 26.3914C128.586 26.7789 129.568 27.4903 130.285 28.4356C131.003 29.3809 131.423 30.5177 131.495 31.7023C131.566 32.8868 131.284 34.0659 130.685 35.0904C130.087 36.1149 129.197 36.9388 128.13 37.4579C127.063 37.9771 125.866 38.1681 124.69 38.0069C123.515 37.8457 122.413 37.3394 121.525 36.5522C120.637 35.765 120.003 34.7321 119.702 33.5842C119.298 32.045 119.523 30.4084 120.326 29.0346C121.129 27.6608 122.445 26.6623 123.984 26.2587ZM77.4117 26.064C77.1107 24.9162 77.1569 23.7048 77.5443 22.5832C77.9318 21.4615 78.6432 20.48 79.5886 19.7626C80.5339 19.0453 81.6707 18.6244 82.8553 18.5531C84.0398 18.4819 85.2189 18.7635 86.2434 19.3624C87.2679 19.9612 88.0918 20.8504 88.6109 21.9175C89.13 22.9847 89.3211 24.1818 89.1599 25.3574C88.9986 26.5331 88.4924 27.6346 87.7052 28.5226C86.918 29.4106 85.8851 30.0452 84.7372 30.3461C83.1979 30.7497 81.5614 30.5253 80.1876 29.7223C78.8138 28.9192 77.8152 27.6033 77.4117 26.064ZM83.1624 83.4829C82.0145 83.7839 80.8031 83.7377 79.6815 83.3502C78.5598 82.9628 77.5783 82.2514 76.861 81.306C76.1436 80.3607 75.7227 79.2239 75.6515 78.0393C75.5802 76.8548 75.8618 75.6757 76.4607 74.6512C77.0596 73.6267 77.9488 72.8028 79.0159 72.2837C80.083 71.7646 81.2801 71.5735 82.4558 71.7347C83.6315 71.896 84.7329 72.4022 85.6209 73.1894C86.5089 73.9766 87.1435 75.0095 87.4445 76.1574C87.848 77.6966 87.6236 79.3332 86.8206 80.707C86.0175 82.0808 84.7016 83.0793 83.1624 83.4829ZM95.8671 49.1378C95.5661 47.9899 95.6123 46.7785 95.9998 45.6569C96.3873 44.5352 97.0987 43.5537 98.044 42.8363C98.9893 42.119 100.126 41.6981 101.311 41.6269C102.495 41.5556 103.674 41.8372 104.699 42.4361C105.723 43.035 106.547 43.9242 107.066 44.9913C107.585 46.0584 107.776 47.2555 107.615 48.4312C107.454 49.6069 106.948 50.7083 106.161 51.5963C105.373 52.4843 104.341 53.1189 103.193 53.4199C101.653 53.8234 100.017 53.599 98.643 52.796C97.2692 51.9929 96.2707 50.677 95.8671 49.1378ZM134.636 66.8854C133.488 67.1864 132.277 67.1402 131.155 66.7527C130.033 66.3653 129.052 65.6539 128.334 64.7085C127.617 63.7632 127.196 62.6264 127.125 61.4418C127.054 60.2573 127.335 59.0782 127.934 58.0537C128.533 57.0292 129.422 56.2053 130.489 55.6862C131.557 55.1671 132.754 54.976 133.929 55.1372C135.105 55.2985 136.206 55.8047 137.094 56.5919C137.982 57.3791 138.617 58.412 138.918 59.5599C139.322 61.0992 139.097 62.7357 138.294 64.1095C137.491 65.4833 136.175 66.4818 134.636 66.8854Z" fill="url(#paint3_linear_759_89)"/>
</g>
<rect x="0.5" y="0.5" width="318" height="182" rx="14.5" stroke="#C3C2C2"/>
<defs>
<linearGradient id="paint0_linear_759_89" x1="261" y1="167" x2="302" y2="63.0002" gradientUnits="userSpaceOnUse">
<stop stop-color="#5FB865"/>
<stop offset="1" stop-color="#68E070"/>
</linearGradient>
<linearGradient id="paint1_linear_759_89" x1="64.7226" y1="128.71" x2="82.2762" y2="213.92" gradientUnits="userSpaceOnUse">
<stop stop-color="#DEF201"/>
<stop offset="1" stop-color="#C6D800"/>
</linearGradient>
<linearGradient id="paint2_linear_759_89" x1="92.2873" y1="113.842" x2="101.367" y2="157.92" gradientUnits="userSpaceOnUse">
<stop stop-color="#DEF201"/>
<stop offset="1" stop-color="#C6D800"/>
</linearGradient>
<linearGradient id="paint3_linear_759_89" x1="91.7523" y1="9.89843" x2="126" y2="78" gradientUnits="userSpaceOnUse">
<stop stop-color="#5FB865"/>
<stop offset="1" stop-color="#69E571"/>
</linearGradient>
<clipPath id="clip0_759_89">
<rect width="319" height="183" rx="15" fill="white"/>
</clipPath>
</defs>
</svg>
