<svg width="366" height="223" viewBox="0 0 366 223" fill="none" xmlns="http://www.w3.org/2000/svg">
<path d="M220.103 44.5599C220.854 44.4412 221.588 44.9076 221.786 45.6585L226.239 62.5325C226.385 62.3869 226.563 62.2699 226.766 62.1937L226.912 62.1468L242.141 58.1283L242.291 58.097C243.042 57.9784 243.776 58.4457 243.974 59.1966L247.469 72.4447C247.616 72.2987 247.794 72.1811 247.997 72.1048L248.143 72.0579L263.372 68.0404L263.522 68.0081C264.273 67.8894 265.007 68.3568 265.205 69.1077L269.083 83.806C269.23 83.6603 269.408 83.5424 269.611 83.4661L269.757 83.4202L284.986 79.4017L285.136 79.3704C285.35 79.3366 285.563 79.3512 285.762 79.4056L283.224 69.7835C283.026 69.0326 283.433 68.2637 284.145 67.9964L284.291 67.9495L299.52 63.932L299.67 63.9007C300.421 63.782 301.155 64.2485 301.353 64.9993L324.889 154.203L361.063 144.661L354.659 140.932C354.123 140.619 353.942 139.931 354.254 139.394C354.567 138.857 355.256 138.675 355.792 138.988L364.541 144.083C365.078 144.396 365.26 145.086 364.948 145.622L359.851 154.371C359.538 154.908 358.85 155.09 358.313 154.778C357.776 154.465 357.595 153.776 357.908 153.24L361.636 146.837L185.859 193.216L185.747 192.796C185.327 192.758 184.951 192.483 184.797 192.074L184.762 191.963L148.33 53.887L144.601 60.2894C144.288 60.826 143.6 61.0082 143.063 60.6956C142.526 60.3831 142.344 59.6943 142.657 59.1575L147.752 50.4075C148.065 49.8708 148.754 49.6888 149.291 50.0013L158.04 55.098C158.577 55.4107 158.759 56.0993 158.447 56.6361C158.134 57.1728 157.445 57.3547 156.909 57.0423L150.506 53.3128L172.964 138.433L187.83 134.512L187.981 134.48C188.195 134.446 188.407 134.462 188.607 134.516L180.137 102.412C179.939 101.662 180.346 100.894 181.058 100.626L181.204 100.579L196.433 96.5609L196.583 96.5296C196.797 96.4958 197.01 96.5104 197.209 96.5648L189.122 65.9124C188.924 65.1616 189.332 64.3937 190.043 64.1263L190.19 64.0794L205.418 60.0609L205.569 60.0296C205.783 59.9958 205.995 60.0104 206.195 60.0648L203.657 50.4427C203.458 49.6918 203.866 48.9229 204.577 48.6556L204.724 48.6097L219.952 44.5911L220.103 44.5599ZM173.595 140.336L186.863 190.622L201.125 186.86L187.858 136.574L173.595 140.336ZM182.199 102.386L204.268 186.03L218.53 182.267L196.46 98.6224L182.199 102.386ZM191.184 65.8851L221.672 181.437L235.934 177.674L205.446 62.1224L191.184 65.8851ZM205.718 50.4154L239.076 176.844L253.338 173.081L219.98 46.6527L205.718 50.4154ZM227.906 63.9525L256.48 172.251L270.743 168.489L242.167 60.1898L227.906 63.9525ZM249.137 73.8646L273.885 167.66L288.147 163.897L263.399 70.1009L249.137 73.8646ZM270.75 85.2259L291.289 163.068L305.551 159.305L285.013 81.4632L270.75 85.2259ZM285.285 69.7562L308.694 158.476L322.955 154.713L299.547 65.9935L285.285 69.7562Z" fill="url(#paint0_linear_893_72)"/>
<path d="M96.1176 162.591C96.0373 162.201 95.8056 161.859 95.4733 161.641C95.141 161.422 94.7354 161.344 94.3458 161.424L54.6787 169.596L46.4963 129.876C46.416 129.486 46.1843 129.145 45.852 128.926C45.5197 128.707 45.1142 128.629 44.7245 128.71C21.2328 133.549 6.05055 156.571 10.8833 180.03C15.8939 204.353 38.0166 218.918 62.3399 213.908C85.003 209.239 100.787 185.257 96.1176 162.591ZM13.8216 179.425C9.42346 158.075 22.8319 137.119 43.8661 131.977L52.0431 171.67C52.2101 172.481 53.0039 173.004 53.804 172.784L93.4417 164.619C96.8412 185.329 82.3438 206.724 61.7346 210.969C39.0861 215.635 18.4878 202.076 13.8216 179.425Z" fill="url(#paint1_linear_893_72)"/>
<path d="M60.8006 162.154L101.934 153.68C102.756 153.566 103.27 152.719 103.103 151.908C98.2639 128.416 75.2128 113.24 51.7211 118.079C51.3315 118.159 50.9897 118.391 50.7709 118.723C50.5521 119.056 50.4743 119.461 50.5546 119.851L59.0397 161.04C59.2067 161.851 60.0005 162.374 60.8006 162.154ZM53.801 120.741C74.711 117.227 94.9044 130.56 99.8556 151.1L61.6753 158.966L53.801 120.741Z" fill="url(#paint2_linear_893_72)"/>
<path d="M110.071 49.474C107.505 50.1451 105.236 51.6512 103.622 53.7545L93.5269 49.4232C93.7794 47.8065 93.6948 46.155 93.2786 44.5726C93.2082 44.3041 93.1378 44.0357 93.0393 43.7785L97.4189 40.9206C99.5512 42.8641 102.312 43.9744 105.196 44.048C108.081 44.1217 110.895 43.1537 113.123 41.3215C115.352 39.4893 116.846 36.9155 117.332 34.0716C117.817 31.2277 117.262 28.304 115.767 25.8361C114.273 23.3682 111.939 21.5214 109.194 20.6338C106.449 19.7463 103.476 19.8776 100.82 21.0035C98.1633 22.1294 96.0015 24.1747 94.7303 26.7647C93.4591 29.3546 93.1636 32.3159 93.8979 35.106C93.9682 35.3744 94.0386 35.6428 94.1371 35.9L89.7575 38.758C88.279 37.4074 86.4861 36.4483 84.5421 35.9681C82.598 35.4878 80.5647 35.5017 78.6274 36.0084C77.9873 36.1777 77.362 36.3987 76.7577 36.6692L72.8081 31.7191C74.5016 29.4456 75.3356 26.6459 75.1621 23.8162C74.9887 20.9865 73.819 18.3097 71.8604 16.26C69.9018 14.2104 67.2808 12.9204 64.4619 12.6186C61.643 12.3169 58.8084 13.0229 56.4603 14.6115C54.1122 16.2001 52.4024 18.5687 51.6339 21.2975C50.8654 24.0263 51.0879 26.9391 52.2618 29.5196C53.4358 32.1001 55.4854 34.1816 58.0475 35.3953C60.6096 36.6089 63.5186 36.8763 66.2589 36.1499C66.8991 35.9807 67.5244 35.7597 68.1287 35.4891L72.0745 40.4248C70.4071 42.6417 69.5615 45.3689 69.6821 48.1403C69.8027 50.9117 70.8822 53.5551 72.7359 55.6188L65.5822 66.349C62.8204 65.3821 59.8007 65.4557 57.0893 66.556C54.3778 67.6563 52.1607 69.7076 50.8536 72.3256C49.5464 74.9436 49.2389 77.9484 49.9887 80.7769C50.7385 83.6054 52.4941 86.0633 54.9265 87.69C57.3589 89.3166 60.3011 90.0003 63.2015 89.6129C66.1019 89.2255 68.7615 87.7936 70.6817 85.5856C72.6019 83.3776 73.6509 80.545 73.632 77.6189C73.6132 74.6928 72.5279 71.874 70.5794 69.6909L77.7332 58.9607C80.1089 59.7908 82.6859 59.8508 85.0977 59.1322C87.5095 58.4135 89.6333 56.9527 91.1671 54.9576L101.262 59.289C101.01 60.9007 101.094 62.547 101.507 64.1251C102.108 66.4209 103.378 68.4866 105.154 70.061C106.93 71.6355 109.133 72.6479 111.484 72.9704C113.835 73.2928 116.229 72.9107 118.364 71.8725C120.498 70.8342 122.276 69.1864 123.474 67.1374C124.672 65.0884 125.235 62.7303 125.093 60.3612C124.95 57.9921 124.108 55.7184 122.674 53.8278C121.239 51.9371 119.276 50.5143 117.032 49.7394C114.789 48.9644 112.366 48.872 110.071 49.474ZM103.984 26.2587C105.132 25.9577 106.343 26.0039 107.465 26.3914C108.586 26.7789 109.568 27.4903 110.285 28.4356C111.003 29.3809 111.423 30.5177 111.495 31.7023C111.566 32.8868 111.284 34.0659 110.685 35.0904C110.087 36.1149 109.197 36.9388 108.13 37.4579C107.063 37.9771 105.866 38.1681 104.69 38.0069C103.515 37.8457 102.413 37.3394 101.525 36.5522C100.637 35.765 100.003 34.7321 99.7017 33.5842C99.2981 32.045 99.5225 30.4084 100.326 29.0346C101.129 27.6608 102.445 26.6623 103.984 26.2587ZM57.4117 26.064C57.1107 24.9162 57.1569 23.7048 57.5443 22.5832C57.9318 21.4615 58.6432 20.48 59.5886 19.7626C60.5339 19.0453 61.6707 18.6244 62.8553 18.5531C64.0398 18.4819 65.2189 18.7635 66.2434 19.3624C67.2679 19.9612 68.0918 20.8504 68.6109 21.9175C69.13 22.9847 69.3211 24.1818 69.1599 25.3574C68.9986 26.5331 68.4924 27.6346 67.7052 28.5226C66.918 29.4106 65.8851 30.0452 64.7372 30.3461C63.1979 30.7497 61.5614 30.5253 60.1876 29.7223C58.8138 28.9192 57.8152 27.6033 57.4117 26.064ZM63.1624 83.4829C62.0145 83.7839 60.8031 83.7377 59.6815 83.3502C58.5598 82.9628 57.5783 82.2514 56.861 81.306C56.1436 80.3607 55.7227 79.2239 55.6515 78.0393C55.5802 76.8548 55.8618 75.6757 56.4607 74.6512C57.0596 73.6267 57.9488 72.8028 59.0159 72.2837C60.083 71.7646 61.2801 71.5735 62.4558 71.7347C63.6315 71.896 64.7329 72.4022 65.6209 73.1894C66.5089 73.9766 67.1435 75.0095 67.4445 76.1574C67.848 77.6966 67.6236 79.3332 66.8206 80.707C66.0175 82.0808 64.7016 83.0793 63.1624 83.4829ZM75.8671 49.1378C75.5661 47.9899 75.6123 46.7785 75.9998 45.6569C76.3873 44.5352 77.0987 43.5537 78.044 42.8363C78.9893 42.119 80.1261 41.6981 81.3107 41.6269C82.4952 41.5556 83.6743 41.8372 84.6988 42.4361C85.7233 43.035 86.5472 43.9242 87.0663 44.9913C87.5855 46.0584 87.7765 47.2555 87.6153 48.4312C87.4541 49.6069 86.9478 50.7083 86.1606 51.5963C85.3734 52.4843 84.3405 53.1189 83.1926 53.4199C81.6534 53.8234 80.0168 53.599 78.643 52.796C77.2692 51.9929 76.2707 50.677 75.8671 49.1378ZM114.636 66.8854C113.488 67.1864 112.277 67.1402 111.155 66.7527C110.033 66.3653 109.052 65.6539 108.334 64.7085C107.617 63.7632 107.196 62.6264 107.125 61.4418C107.054 60.2573 107.335 59.0782 107.934 58.0537C108.533 57.0292 109.422 56.2053 110.489 55.6862C111.557 55.1671 112.754 54.976 113.929 55.1372C115.105 55.2985 116.206 55.8047 117.094 56.5919C117.982 57.3791 118.617 58.412 118.918 59.5599C119.322 61.0992 119.097 62.7357 118.294 64.1095C117.491 65.4833 116.175 66.4818 114.636 66.8854Z" fill="url(#paint3_linear_893_72)"/>
<defs>
<linearGradient id="paint0_linear_893_72" x1="241" y1="167" x2="282" y2="63.0005" gradientUnits="userSpaceOnUse">
<stop stop-color="#5FB865"/>
<stop offset="1" stop-color="#68E070"/>
</linearGradient>
<linearGradient id="paint1_linear_893_72" x1="44.7245" y1="128.71" x2="62.2782" y2="213.92" gradientUnits="userSpaceOnUse">
<stop stop-color="#DEF201"/>
<stop offset="1" stop-color="#C6D800"/>
</linearGradient>
<linearGradient id="paint2_linear_893_72" x1="72.2892" y1="113.842" x2="81.3693" y2="157.92" gradientUnits="userSpaceOnUse">
<stop stop-color="#DEF201"/>
<stop offset="1" stop-color="#C6D800"/>
</linearGradient>
<linearGradient id="paint3_linear_893_72" x1="71.7523" y1="9.89843" x2="106" y2="78" gradientUnits="userSpaceOnUse">
<stop stop-color="#5FB865"/>
<stop offset="1" stop-color="#69E571"/>
</linearGradient>
</defs>
</svg>
