<svg width="319" height="183" viewBox="0 0 319 183" fill="none" xmlns="http://www.w3.org/2000/svg">
<g clip-path="url(#clip0_836_33)">
<rect width="319" height="183" rx="15" fill="white"/>
<path d="M196.794 47.4071C197.31 46.5545 198.42 46.2815 199.273 46.7974L213.172 55.2087C214.024 55.7249 214.297 56.8349 213.781 57.6876C213.265 58.5403 212.155 58.8131 211.302 58.2973L201.132 52.142L219.073 125.09L249.721 92.4075L250.516 93.3755L250.543 93.2481L278.003 102.748L316.42 39.4026L319.192 41.7156L279.678 106.871L279.173 106.451L279.079 106.909L250.351 96.9703L220.093 129.236L231.667 176.294L368.656 142.03C369.623 141.789 370.603 142.376 370.844 143.344C371.085 144.311 370.496 145.291 369.529 145.533L231.253 180.119L231.072 180.156C230.474 180.243 229.889 180.02 229.496 179.597C229.05 179.404 228.686 179.032 228.514 178.549L228.461 178.372L216.283 128.855L215.937 128.435L216.129 128.23L197.627 53.004L191.471 63.1747C190.955 64.0273 189.845 64.3005 188.993 63.7844C188.14 63.2683 187.867 62.1583 188.383 61.3055L196.794 47.4071Z" fill="url(#paint0_linear_836_33)"/>
<path d="M141.014 27.1995L139.656 27.6213L139.031 27.3066C140.146 24.7439 140.302 21.8656 139.471 19.1971C138.785 16.9871 137.459 15.0303 135.661 13.5741C133.862 12.1179 131.672 11.2277 129.368 11.0161C127.064 10.8044 124.748 11.2808 122.715 12.3851C120.681 13.4893 119.021 15.1718 117.943 17.2197C116.866 19.2677 116.42 21.5891 116.662 23.8904C116.904 26.1918 117.823 28.3697 119.303 30.1488C120.782 31.9279 122.757 33.2282 124.975 33.8853C127.194 34.5425 129.558 34.5269 131.768 33.8406C134.535 32.9811 136.765 31.1768 138.201 28.8836L138.815 29.2208L139.236 30.5788L150.495 36.4875L152.261 33.1308L141.014 27.1995ZM130.7 30.4026C126.42 31.7319 121.892 29.3497 120.562 25.0693C119.233 20.789 121.615 16.2607 125.896 14.9314C130.176 13.6022 134.704 15.9844 136.033 20.2647C137.363 24.5451 134.98 29.0733 130.7 30.4026Z" fill="url(#paint1_linear_836_33)"/>
<path d="M90.6875 62.8778C84.1015 47.7965 69.1915 42.0291 55.1532 46.4131C41.8842 50.5568 35.9631 61.6314 35.7664 70.8418C24.5549 75.4914 16.6022 85.1696 20.3278 97.0998C23.9222 108.61 36.8119 113.389 49.504 109.425L99.5034 93.8111C110.08 90.5081 117.239 83.0203 113.941 72.4591C110.684 62.0269 99.0786 60.686 90.6875 62.8778Z" stroke="url(#paint2_linear_836_33)" stroke-width="6" stroke-linejoin="round"/>
<g clip-path="url(#clip1_836_33)">
<rect width="319" height="183" rx="15" fill="white"/>
<path d="M196.794 47.4071C197.31 46.5545 198.42 46.2815 199.273 46.7974L213.172 55.2087C214.024 55.7249 214.297 56.8349 213.781 57.6876C213.265 58.5403 212.155 58.8131 211.302 58.2973L201.132 52.142L219.073 125.09L249.721 92.4075L250.516 93.3755L250.543 93.2481L278.003 102.748L316.42 39.4026L319.192 41.7156L279.678 106.871L279.173 106.451L279.079 106.909L250.351 96.9703L220.093 129.236L231.667 176.294L368.656 142.03C369.623 141.789 370.603 142.376 370.844 143.344C371.085 144.311 370.496 145.291 369.529 145.533L231.253 180.119L231.072 180.156C230.474 180.243 229.889 180.02 229.496 179.597C229.05 179.404 228.686 179.032 228.514 178.549L228.461 178.372L216.283 128.855L215.937 128.435L216.129 128.23L197.627 53.004L191.471 63.1747C190.955 64.0273 189.845 64.3005 188.993 63.7844C188.14 63.2683 187.867 62.1583 188.383 61.3055L196.794 47.4071Z" fill="url(#paint3_linear_836_33)"/>
<path d="M141.014 27.1995L139.656 27.6213L139.031 27.3066C140.146 24.7439 140.302 21.8656 139.471 19.1971C138.785 16.9871 137.459 15.0303 135.661 13.5741C133.862 12.1179 131.672 11.2277 129.368 11.0161C127.064 10.8044 124.748 11.2808 122.715 12.3851C120.681 13.4893 119.021 15.1718 117.943 17.2197C116.866 19.2677 116.42 21.5891 116.662 23.8904C116.904 26.1918 117.823 28.3697 119.303 30.1488C120.782 31.9279 122.757 33.2282 124.975 33.8853C127.194 34.5425 129.558 34.5269 131.768 33.8406C134.535 32.9811 136.765 31.1768 138.201 28.8836L138.815 29.2208L139.236 30.5788L150.495 36.4875L152.261 33.1308L141.014 27.1995ZM130.7 30.4026C126.42 31.7319 121.892 29.3497 120.562 25.0693C119.233 20.789 121.615 16.2607 125.896 14.9314C130.176 13.6022 134.704 15.9844 136.033 20.2647C137.363 24.5451 134.98 29.0733 130.7 30.4026Z" fill="url(#paint4_linear_836_33)"/>
<path d="M90.6875 62.8778C84.1015 47.7965 69.1915 42.0291 55.1532 46.4131C41.8842 50.5568 35.9631 61.6314 35.7664 70.8418C24.5549 75.4914 16.6022 85.1696 20.3278 97.0998C23.9222 108.61 36.8119 113.389 49.504 109.425L99.5034 93.8111C110.08 90.5081 117.239 83.0203 113.941 72.4591C110.684 62.0269 99.0786 60.686 90.6875 62.8778Z" stroke="url(#paint5_linear_836_33)" stroke-width="6" stroke-linejoin="round"/>
</g>
<rect x="0.5" y="0.5" width="318" height="182" rx="14.5" stroke="#C3C2C2"/>
<rect x="0.5" y="0.5" width="318" height="182" rx="14.5" fill="white"/>
<rect x="0.5" y="0.5" width="318" height="182" rx="14.5" stroke="#C3C2C2"/>
<path d="M196.794 47.4071C197.31 46.5545 198.42 46.2815 199.273 46.7974L213.172 55.2087C214.024 55.7249 214.297 56.8349 213.781 57.6876C213.265 58.5403 212.155 58.8131 211.302 58.2973L201.132 52.142L219.073 125.09L249.721 92.4075L250.516 93.3755L250.543 93.2481L278.003 102.748L316.42 39.4026L319.192 41.7156L279.678 106.871L279.173 106.451L279.079 106.909L250.351 96.9703L220.093 129.236L231.667 176.294L368.656 142.03C369.623 141.789 370.603 142.376 370.844 143.344C371.085 144.311 370.496 145.291 369.529 145.533L231.253 180.119L231.072 180.156C230.474 180.243 229.889 180.02 229.496 179.597C229.05 179.404 228.686 179.032 228.514 178.549L228.461 178.372L216.283 128.855L215.937 128.435L216.129 128.23L197.627 53.004L191.471 63.1747C190.955 64.0273 189.845 64.3005 188.993 63.7844C188.14 63.2683 187.867 62.1583 188.383 61.3055L196.794 47.4071Z" fill="url(#paint6_linear_836_33)"/>
<path d="M164.014 27.1995L162.656 27.6213L162.031 27.3066C163.146 24.7439 163.302 21.8656 162.471 19.1971C161.785 16.9871 160.459 15.0303 158.661 13.5741C156.862 12.1179 154.672 11.2277 152.368 11.0161C150.064 10.8044 147.748 11.2808 145.715 12.3851C143.681 13.4893 142.021 15.1718 140.943 17.2197C139.866 19.2677 139.42 21.5891 139.662 23.8904C139.904 26.1918 140.823 28.3697 142.303 30.1488C143.782 31.9279 145.757 33.2282 147.975 33.8853C150.194 34.5425 152.558 34.5269 154.768 33.8406C157.535 32.9811 159.765 31.1768 161.201 28.8836L161.815 29.2208L162.236 30.5788L173.495 36.4875L175.261 33.1308L164.014 27.1995ZM153.7 30.4026C149.42 31.7319 144.892 29.3497 143.562 25.0693C142.233 20.789 144.615 16.2607 148.896 14.9314C153.176 13.6022 157.704 15.9844 159.033 20.2647C160.363 24.5451 157.98 29.0733 153.7 30.4026Z" fill="url(#paint7_linear_836_33)"/>
<path d="M90.6875 62.8778C84.1015 47.7965 69.1915 42.0291 55.1532 46.4131C41.8842 50.5568 35.9631 61.6314 35.7664 70.8418C24.5549 75.4914 16.6022 85.1696 20.3278 97.0998C23.9222 108.61 36.8119 113.389 49.504 109.425L99.5034 93.8111C110.08 90.5081 117.239 83.0203 113.941 72.4591C110.684 62.0269 99.0786 60.686 90.6875 62.8778Z" stroke="url(#paint8_linear_836_33)" stroke-width="6" stroke-linejoin="round"/>
<path d="M112.807 132.182L107.791 118.046M141.08 122.149L136.064 108.013M163.425 149.236L167.94 161.959L117.049 180.018L114.039 171.536M154.51 125.342L103.588 143.412M105.306 173.839L105.557 174.546L156.165 156.587L156.339 155.73L156.508 154.107C157.793 141.687 156.293 129.137 152.117 117.37L149.881 111.068L98.99 129.127L101.125 135.143C105.333 147.001 106.823 159.653 105.486 172.164L105.306 173.839Z" stroke="url(#paint9_linear_836_33)" stroke-width="3"/>
</g>
<rect x="0.5" y="0.5" width="318" height="182" rx="14.5" stroke="#C3C2C2"/>
<defs>
<linearGradient id="paint0_linear_836_33" x1="226.721" y1="181.23" x2="356.644" y2="85.818" gradientUnits="userSpaceOnUse">
<stop stop-color="#B82626"/>
<stop offset="1" stop-color="#F95454"/>
</linearGradient>
<linearGradient id="paint1_linear_836_33" x1="128.687" y1="10.2949" x2="129.22" y2="37.9334" gradientUnits="userSpaceOnUse">
<stop stop-color="#41748D"/>
<stop offset="1" stop-color="#51ABD8"/>
</linearGradient>
<linearGradient id="paint2_linear_836_33" x1="92.9551" y1="46.3816" x2="39.4551" y2="136.382" gradientUnits="userSpaceOnUse">
<stop stop-color="#41748D"/>
<stop offset="1" stop-color="#51ABD8"/>
</linearGradient>
<linearGradient id="paint3_linear_836_33" x1="226.721" y1="181.23" x2="356.644" y2="85.818" gradientUnits="userSpaceOnUse">
<stop stop-color="#B82626"/>
<stop offset="1" stop-color="#F95454"/>
</linearGradient>
<linearGradient id="paint4_linear_836_33" x1="128.687" y1="10.2949" x2="129.22" y2="37.9334" gradientUnits="userSpaceOnUse">
<stop stop-color="#41748D"/>
<stop offset="1" stop-color="#51ABD8"/>
</linearGradient>
<linearGradient id="paint5_linear_836_33" x1="92.9551" y1="46.3816" x2="39.4551" y2="136.382" gradientUnits="userSpaceOnUse">
<stop stop-color="#41748D"/>
<stop offset="1" stop-color="#51ABD8"/>
</linearGradient>
<linearGradient id="paint6_linear_836_33" x1="226.721" y1="181.23" x2="356.644" y2="85.818" gradientUnits="userSpaceOnUse">
<stop stop-color="#E5F440"/>
<stop offset="1" stop-color="#CEE101"/>
</linearGradient>
<linearGradient id="paint7_linear_836_33" x1="151.687" y1="10.2949" x2="152.22" y2="37.9334" gradientUnits="userSpaceOnUse">
<stop stop-color="#41748D"/>
<stop offset="1" stop-color="#51ABD8"/>
</linearGradient>
<linearGradient id="paint8_linear_836_33" x1="92.9551" y1="46.3816" x2="39.4551" y2="136.382" gradientUnits="userSpaceOnUse">
<stop stop-color="#41748D"/>
<stop offset="1" stop-color="#51ABD8"/>
</linearGradient>
<linearGradient id="paint9_linear_836_33" x1="150" y1="112.5" x2="97.5" y2="171.5" gradientUnits="userSpaceOnUse">
<stop stop-color="#447E9B"/>
<stop offset="1" stop-color="#4FA4CE"/>
</linearGradient>
<clipPath id="clip0_836_33">
<rect width="319" height="183" rx="15" fill="white"/>
</clipPath>
<clipPath id="clip1_836_33">
<rect width="319" height="183" rx="15" fill="white"/>
</clipPath>
</defs>
</svg>
