<svg width="363" height="201" viewBox="0 0 363 201" fill="none" xmlns="http://www.w3.org/2000/svg">
<path d="M187.794 64.4071C188.31 63.5545 189.42 63.2815 190.273 63.7974L204.172 72.2087C205.024 72.7249 205.297 73.8349 204.781 74.6876C204.265 75.5403 203.155 75.8131 202.302 75.2973L192.132 69.142L210.073 142.09L240.721 109.407L241.516 110.375L241.543 110.248L269.003 119.748L307.42 56.4026L310.192 58.7156L270.678 123.871L270.173 123.451L270.079 123.909L241.351 113.97L211.093 146.236L222.667 193.294L359.656 159.03C360.623 158.789 361.603 159.376 361.844 160.344C362.085 161.311 361.496 162.291 360.529 162.533L222.253 197.119L222.072 197.156C221.474 197.243 220.889 197.02 220.496 196.597C220.05 196.404 219.686 196.032 219.514 195.549L219.461 195.372L207.283 145.855L206.937 145.435L207.129 145.23L188.627 70.004L182.471 80.1747C181.955 81.0273 180.845 81.3005 179.993 80.7844C179.14 80.2683 178.867 79.1583 179.383 78.3055L187.794 64.4071Z" fill="url(#paint0_linear_894_92)"/>
<path d="M155.014 44.1995L153.656 44.6213L153.031 44.3066C154.146 41.7439 154.302 38.8656 153.471 36.1971C152.785 33.9871 151.459 32.0303 149.661 30.5741C147.862 29.1179 145.672 28.2277 143.368 28.0161C141.064 27.8044 138.748 28.2808 136.715 29.3851C134.681 30.4893 133.021 32.1718 131.943 34.2197C130.866 36.2677 130.42 38.5891 130.662 40.8904C130.904 43.1918 131.823 45.3697 133.303 47.1488C134.782 48.9279 136.757 50.2282 138.975 50.8853C141.194 51.5425 143.558 51.5269 145.768 50.8406C148.535 49.9811 150.765 48.1768 152.201 45.8836L152.815 46.2208L153.236 47.5788L164.495 53.4875L166.261 50.1308L155.014 44.1995ZM144.7 47.4026C140.42 48.7319 135.892 46.3497 134.562 42.0693C133.233 37.789 135.615 33.2607 139.896 31.9314C144.176 30.6022 148.704 32.9844 150.033 37.2647C151.363 41.5451 148.98 46.0733 144.7 47.4026Z" fill="url(#paint1_linear_894_92)"/>
<path d="M81.6875 79.8778C75.1015 64.7965 60.1915 59.0291 46.1532 63.4131C32.8842 67.5568 26.9631 78.6314 26.7664 87.8418C15.5549 92.4914 7.60217 102.17 11.3278 114.1C14.9222 125.61 27.8119 130.389 40.504 126.425L90.5034 110.811C101.08 107.508 108.239 100.02 104.941 89.4591C101.684 79.0269 90.0786 77.686 81.6875 79.8778Z" stroke="url(#paint2_linear_894_92)" stroke-width="6" stroke-linejoin="round"/>
<path d="M103.807 149.182L98.7909 135.046M132.08 139.149L127.064 125.013M154.425 166.236L158.94 178.959L108.049 197.018L105.039 188.536M145.51 142.342L94.5879 160.412M96.3063 190.839L96.5571 191.546L147.165 173.587L147.339 172.73L147.508 171.107C148.793 158.687 147.293 146.137 143.117 134.37L140.881 128.068L89.99 146.127L92.1249 152.143C96.3329 164.001 97.8232 176.653 96.4857 189.164L96.3063 190.839Z" stroke="url(#paint3_linear_894_92)" stroke-width="3"/>
<defs>
<linearGradient id="paint0_linear_894_92" x1="217.721" y1="198.23" x2="347.644" y2="102.818" gradientUnits="userSpaceOnUse">
<stop stop-color="#E5F440"/>
<stop offset="1" stop-color="#CEE101"/>
</linearGradient>
<linearGradient id="paint1_linear_894_92" x1="142.687" y1="27.2949" x2="143.22" y2="54.9334" gradientUnits="userSpaceOnUse">
<stop stop-color="#41748D"/>
<stop offset="1" stop-color="#51ABD8"/>
</linearGradient>
<linearGradient id="paint2_linear_894_92" x1="83.9551" y1="63.3816" x2="30.4551" y2="153.382" gradientUnits="userSpaceOnUse">
<stop stop-color="#41748D"/>
<stop offset="1" stop-color="#51ABD8"/>
</linearGradient>
<linearGradient id="paint3_linear_894_92" x1="141" y1="129.5" x2="88.5" y2="188.5" gradientUnits="userSpaceOnUse">
<stop stop-color="#447E9B"/>
<stop offset="1" stop-color="#4FA4CE"/>
</linearGradient>
</defs>
</svg>
