<svg width="372" height="173" viewBox="0 0 372 173" fill="none" xmlns="http://www.w3.org/2000/svg">
<path d="M196.78 36.2234C197.292 35.3679 198.4 35.0884 199.256 35.5995L213.202 43.9305C214.058 44.4418 214.337 45.5502 213.826 46.4058C213.315 47.2615 212.207 47.5407 211.351 47.0298L201.145 40.9332L219.507 113.777L249.966 80.918L250.767 81.8814L250.793 81.7539L278.307 91.0952L316.358 27.5295L319.143 29.8265L280.006 95.209L279.499 94.791L279.407 95.2502L250.622 85.4771L220.551 117.917L232.396 164.908L369.185 129.855C370.151 129.607 371.134 130.189 371.38 131.155C371.626 132.121 371.043 133.104 370.078 133.352L232.004 168.735L231.823 168.772C231.225 168.863 230.639 168.643 230.244 168.223C229.796 168.032 229.431 167.663 229.256 167.181L229.202 167.004L216.738 117.557L216.39 117.14L216.581 116.933L197.645 41.8155L191.549 52.0215C191.037 52.877 189.929 53.1566 189.073 52.6454C188.218 52.1342 187.939 51.0258 188.449 50.1701L196.78 36.2234Z" fill="url(#paint0_linear_892_58)"/>
<path d="M125.549 111.422L137.933 116.796M157.444 114.227L161.475 104.939C161.832 104.118 161.847 103.189 161.519 102.356C161.19 101.524 160.544 100.856 159.723 100.5L153.531 97.8121C152.71 97.4557 151.781 97.4401 150.948 97.7687C150.116 98.0973 149.448 98.7432 149.091 99.5644L145.06 108.852M157.444 114.227C158.265 114.584 158.911 115.251 159.24 116.084C159.568 116.917 159.553 117.846 159.196 118.667L156.079 125.849C153.57 131.63 157.65 139.184 155.782 143.487L150.607 155.41C149.895 157.052 148.559 158.344 146.893 159.001C145.228 159.658 143.37 159.627 141.728 158.914L129.344 153.54C127.702 152.827 126.41 151.491 125.753 149.826C125.096 148.16 125.127 146.302 125.84 144.66L140.621 110.605C140.977 109.783 141.645 109.138 142.477 108.809C143.31 108.48 144.239 108.496 145.06 108.852M157.444 114.227L145.06 108.852M154.639 146.122L92.7191 119.248M114.101 95.415C113.279 95.0587 112.35 95.0431 111.518 95.3717C110.685 95.7003 110.017 96.3462 109.661 97.1673L106.543 104.35C104.035 110.13 95.7304 112.31 93.8626 116.613L88.688 128.536C87.9752 130.178 87.944 132.036 88.6012 133.701C89.2584 135.366 90.5502 136.702 92.1925 137.415L104.576 142.79C106.219 143.503 108.077 143.534 109.742 142.877C111.407 142.219 112.743 140.928 113.456 139.285L128.237 105.23C128.593 104.409 128.609 103.479 128.28 102.647C127.951 101.814 127.306 101.146 126.484 100.79M114.101 95.415L126.484 100.79M114.101 95.415L118.132 86.1271C118.488 85.306 119.156 84.6601 119.989 84.3315C120.821 84.0029 121.75 84.0185 122.571 84.3749L128.763 87.0623C129.584 87.4187 130.23 88.0867 130.559 88.9193C130.888 89.7519 130.872 90.6809 130.516 91.502L126.484 100.79" stroke="url(#paint1_linear_892_58)" stroke-width="3" stroke-linecap="round" stroke-linejoin="round"/>
<g clip-path="url(#clip0_892_58)">
<path d="M84.0142 43.1995L82.6562 43.6213L82.0308 43.3066C83.146 40.7439 83.3024 37.8656 82.4715 35.1971C81.7852 32.9871 80.459 31.0303 78.6606 29.5741C76.8622 28.1179 74.6723 27.2277 72.368 27.0161C70.0636 26.8044 67.7483 27.2808 65.7147 28.3851C63.6811 29.4893 62.0207 31.1718 60.9433 33.2197C59.8659 35.2677 59.42 37.5891 59.662 39.8904C59.904 42.1918 60.8229 44.3697 62.3027 46.1488C63.7825 47.9279 65.7565 49.2282 67.9753 49.8853C70.1941 50.5425 72.5579 50.5269 74.7678 49.8406C77.5354 48.9811 79.7646 47.1768 81.2011 44.8836L81.8147 45.2208L82.2365 46.5788L93.4954 52.4875L95.2613 49.1308L84.0142 43.1995ZM73.7002 46.4026C69.4198 47.7319 64.8916 45.3497 63.5623 41.0693C62.233 36.789 64.6152 32.2607 68.8956 30.9314C73.1759 29.6022 77.7042 31.9844 79.0334 36.2647C80.3627 40.5451 77.9805 45.0733 73.7002 46.4026Z" fill="url(#paint2_linear_892_58)"/>
</g>
<path d="M10.8953 125.306L9.97518 120.391M30.3967 134.372L29.4766 129.457M43.9174 111.493L42.9973 106.579M7.21487 105.647L6.29477 100.733M26.7163 114.714L25.7962 109.799M40.237 91.8348L39.3169 86.9202M12.4055 106.202L14.6138 117.997C14.687 118.388 14.6018 118.792 14.3771 119.12C14.1524 119.448 13.8064 119.674 13.4154 119.747L6.53495 121.035C6.14392 121.109 5.73982 121.023 5.41155 120.799C5.08329 120.574 4.85774 120.228 4.78453 119.837L2.57629 108.042C2.50308 107.651 2.58821 107.247 2.81294 106.919C3.03768 106.59 3.38361 106.365 3.77464 106.292L10.6551 105.003C11.0461 104.93 11.4502 105.015 11.7785 105.24C12.1068 105.465 12.3323 105.811 12.4055 106.202ZM31.9069 115.268L34.1152 127.063C34.1884 127.454 34.1032 127.858 33.8785 128.186C33.6538 128.515 33.3078 128.74 32.9168 128.813L26.0363 130.102C25.6453 130.175 25.2412 130.09 24.913 129.865C24.5847 129.64 24.3591 129.294 24.2859 128.903L22.0777 117.108C22.0045 116.717 22.0896 116.313 22.3143 115.985C22.5391 115.656 22.885 115.431 23.276 115.358L30.1565 114.07C30.5475 113.996 30.9516 114.081 31.2799 114.306C31.6082 114.531 31.8337 114.877 31.9069 115.268ZM45.4276 92.3891L47.6359 104.184C47.7091 104.575 47.624 104.979 47.3992 105.308C47.1745 105.636 46.8286 105.861 46.4375 105.935L39.5571 107.223C39.3635 107.259 39.1646 107.257 38.9718 107.216C38.7791 107.175 38.5962 107.097 38.4337 106.986C38.2711 106.875 38.1321 106.733 38.0245 106.568C37.9169 106.403 37.8429 106.218 37.8067 106.024L35.5984 94.2293C35.5622 94.0357 35.5644 93.8368 35.605 93.644C35.6456 93.4513 35.7238 93.2684 35.8351 93.1059C35.9463 92.9433 36.0886 92.8043 36.2536 92.6967C36.4186 92.5891 36.6032 92.5151 36.7968 92.4789L43.6772 91.1907C44.0683 91.1175 44.4724 91.2026 44.8006 91.4274C45.1289 91.6521 45.3544 91.998 45.4276 92.3891Z" stroke="url(#paint3_linear_892_58)" stroke-width="3.75" stroke-linecap="round" stroke-linejoin="round"/>
<defs>
<linearGradient id="paint0_linear_892_58" x1="227.479" y1="169.872" x2="260.5" y2="51.9999" gradientUnits="userSpaceOnUse">
<stop stop-color="#63C769"/>
<stop offset="1" stop-color="#69E370"/>
</linearGradient>
<linearGradient id="paint1_linear_892_58" x1="141.147" y1="92.4372" x2="116.96" y2="148.165" gradientUnits="userSpaceOnUse">
<stop stop-color="#68E270"/>
<stop offset="1" stop-color="#60BB66"/>
</linearGradient>
<linearGradient id="paint2_linear_892_58" x1="71.6871" y1="26.2949" x2="72.2198" y2="53.9334" gradientUnits="userSpaceOnUse">
<stop stop-color="#C3D500"/>
<stop offset="1" stop-color="#E2F601"/>
</linearGradient>
<linearGradient id="paint3_linear_892_58" x1="22.1158" y1="90.1405" x2="30.3967" y2="134.372" gradientUnits="userSpaceOnUse">
<stop stop-color="#E2F601"/>
<stop offset="1" stop-color="#C3D500"/>
</linearGradient>
<clipPath id="clip0_892_58">
<rect width="57.6" height="57.6" fill="white" transform="translate(52 27.083) rotate(-17.2522)"/>
</clipPath>
</defs>
</svg>
