<svg width="319" height="183" viewBox="0 0 319 183" fill="none" xmlns="http://www.w3.org/2000/svg">
<g clip-path="url(#clip0_542_1006)">
<rect width="319" height="183" rx="15" fill="white"/>
<path fill-rule="evenodd" clip-rule="evenodd" d="M184.719 99.0443L304.901 71.7157C310.623 70.4145 316.316 73.9983 317.617 79.7203L319.738 89.0451L178.835 121.086L176.714 111.761C175.413 106.039 178.997 100.345 184.719 99.0443ZM180.012 126.266L196.975 200.861C198.276 206.583 203.97 210.167 209.691 208.866L329.873 181.537C335.595 180.236 339.179 174.543 337.878 168.821L320.915 94.2253L180.012 126.266ZM326.096 93.0474L343.058 167.643C345.01 176.226 339.634 184.766 331.051 186.717L210.869 214.046C202.286 215.998 193.746 210.622 191.795 202.039L171.534 112.939C169.582 104.356 174.958 95.8158 183.541 93.8641L303.723 66.5354C312.306 64.5837 320.846 69.9594 322.797 78.5423L324.918 87.8671L324.924 87.8656L326.102 93.0459L326.096 93.0474Z" fill="url(#paint0_linear_542_1006)"/>
<path d="M203.816 152.929L203.003 149.354L211.07 143.14C211.442 142.859 211.81 142.612 212.176 142.398C212.557 142.159 212.857 141.992 213.076 141.899C212.838 141.909 212.501 141.91 212.063 141.901C211.62 141.87 211.181 141.807 210.744 141.71L200.777 139.564L199.95 135.927L215.366 139.319L216.249 143.204L203.816 152.929Z" fill="#B23DAE"/>
<path d="M160.591 25.9101L159.901 25.6011C159.382 25.3685 158.914 25.036 158.524 24.6225C158.134 24.2091 157.829 23.7228 157.626 23.1915C157.424 22.6601 157.328 22.0942 157.345 21.5258C157.361 20.9575 157.489 20.3979 157.722 19.8791C157.954 19.3603 158.287 18.8924 158.7 18.5021C159.114 18.1118 159.6 17.8067 160.131 17.6044C160.663 17.402 161.229 17.3063 161.797 17.3226C162.365 17.339 162.925 17.4671 163.444 17.6998L164.13 18.01C164.762 16.7908 165.837 15.8596 167.134 15.4074C168.431 14.9551 169.851 15.0161 171.104 15.5777L218.74 36.9158C219.036 37.0497 219.291 37.2617 219.476 37.5292L227.936 49.6548C228.113 49.9087 228.221 50.204 228.25 50.5119C228.279 50.8199 228.228 51.1301 228.101 51.4124C227.975 51.6947 227.777 51.9395 227.528 52.123C227.279 52.3064 226.987 52.4223 226.68 52.4594L212 54.218C211.678 54.2568 211.351 54.2075 211.055 54.0754L166.431 34.0836C166.327 34.4934 166.371 34.9269 166.555 35.3075C166.74 35.688 167.053 35.9911 167.439 36.1633L182.678 42.9876C182.893 43.084 183.087 43.2219 183.249 43.3932C183.411 43.5646 183.537 43.7662 183.621 43.9865C183.705 44.2068 183.745 44.4415 183.738 44.6771C183.732 44.9128 183.679 45.1448 183.582 45.36C183.486 45.5751 183.348 45.7692 183.177 45.9311C183.005 46.0929 182.804 46.2195 182.583 46.3035C182.363 46.3874 182.128 46.4272 181.893 46.4205C181.657 46.4138 181.425 46.3607 181.21 46.2643L165.972 39.432C164.718 38.8701 163.726 37.8496 163.201 36.5798C162.675 35.31 162.656 33.8873 163.146 32.6035C161.972 31.9965 161.063 30.9787 160.592 29.7442C160.12 28.5097 160.12 27.1449 160.591 25.9101ZM163.98 27.0895C163.786 27.5234 163.772 28.0167 163.941 28.461C164.11 28.9052 164.449 29.264 164.883 29.4585L212.069 50.6035L223.288 49.2587L216.823 39.9914L169.637 18.8463C169.422 18.7496 169.19 18.6963 168.954 18.6895C168.719 18.6826 168.484 18.7223 168.264 18.8063C168.043 18.8903 167.842 19.017 167.67 19.179C167.499 19.3411 167.361 19.5353 167.265 19.7507L163.98 27.0895Z" fill="url(#paint1_linear_542_1006)"/>
<path d="M83.8976 131.403L97.251 135.752L87.1298 145.488L83.8976 131.403Z" stroke="url(#paint2_linear_542_1006)" stroke-width="4"/>
<circle cx="90.1931" cy="137.193" r="22.1931" stroke="url(#paint3_linear_542_1006)" stroke-width="4"/>
<path d="M47.58 69.48L27.42 59.985V54.36L47.58 44.865V50.04L34.53 56.07C33.93 56.34 33.33 56.58 32.73 56.79C32.16 56.97 31.71 57.09 31.38 57.15C31.71 57.21 32.175 57.33 32.775 57.51C33.375 57.69 33.96 57.915 34.53 58.185L47.58 64.215V69.48ZM69.3874 80.1L64.4374 71.955L65.4274 72.405C65.3074 72.405 65.1574 72.405 64.9774 72.405C64.8274 72.435 64.6624 72.45 64.4824 72.45C62.3824 72.45 60.5524 72.045 58.9924 71.235C57.4324 70.425 56.2174 69.285 55.3474 67.815C54.4774 66.315 54.0424 64.59 54.0424 62.64V48.51C54.0424 46.5 54.4774 44.775 55.3474 43.335C56.2174 41.865 57.4324 40.725 58.9924 39.915C60.5524 39.105 62.3824 38.7 64.4824 38.7C66.5824 38.7 68.4124 39.105 69.9724 39.915C71.5324 40.725 72.7474 41.865 73.6174 43.335C74.4874 44.805 74.9224 46.53 74.9224 48.51V62.64C74.9224 64.62 74.4874 66.36 73.6174 67.86C72.7774 69.33 71.5774 70.455 70.0174 71.235L75.4624 80.1H69.3874ZM64.4824 67.5C66.0424 67.5 67.2274 67.08 68.0374 66.24C68.8774 65.37 69.2974 64.17 69.2974 62.64V48.51C69.2974 46.95 68.8624 45.75 67.9924 44.91C67.1524 44.04 65.9824 43.605 64.4824 43.605C62.9824 43.605 61.7974 44.04 60.9274 44.91C60.0874 45.75 59.6674 46.95 59.6674 48.51V62.64C59.6674 64.17 60.0874 65.37 60.9274 66.24C61.7674 67.08 62.9524 67.5 64.4824 67.5ZM91.5548 72.45C89.3048 72.45 87.3548 72.075 85.7048 71.325C84.0548 70.575 82.7798 69.51 81.8798 68.13C81.0098 66.72 80.5598 65.07 80.5298 63.18H86.1548C86.1548 64.53 86.6348 65.595 87.5948 66.375C88.5848 67.125 89.9198 67.5 91.5998 67.5C93.2198 67.5 94.4798 67.125 95.3798 66.375C96.3098 65.625 96.7748 64.59 96.7748 63.27C96.7748 62.16 96.4448 61.2 95.7848 60.39C95.1548 59.55 94.2398 58.98 93.0398 58.68L89.2598 57.645C86.6798 56.985 84.6848 55.8 83.2748 54.09C81.8948 52.38 81.2048 50.31 81.2048 47.88C81.2048 46.02 81.6248 44.4 82.4648 43.02C83.3048 41.64 84.4898 40.575 86.0198 39.825C87.5798 39.075 89.4098 38.7 91.5098 38.7C94.6898 38.7 97.2098 39.525 99.0698 41.175C100.93 42.795 101.875 44.985 101.905 47.745H96.2798C96.2798 46.455 95.8598 45.45 95.0198 44.73C94.1798 43.98 92.9948 43.605 91.4648 43.605C89.9948 43.605 88.8548 43.95 88.0448 44.64C87.2348 45.33 86.8298 46.305 86.8298 47.565C86.8298 48.705 87.1298 49.68 87.7298 50.49C88.3598 51.27 89.2598 51.825 90.4298 52.155L94.3448 53.235C96.9548 53.895 98.9498 55.08 100.33 56.79C101.71 58.47 102.4 60.555 102.4 63.045C102.4 64.905 101.95 66.555 101.05 67.995C100.15 69.405 98.8898 70.5 97.2698 71.28C95.6498 72.06 93.7448 72.45 91.5548 72.45ZM108.367 69.48V64.305L121.417 58.275C122.017 58.005 122.602 57.78 123.172 57.6C123.772 57.39 124.237 57.255 124.567 57.195C124.237 57.135 123.772 57.03 123.172 56.88C122.572 56.7 121.987 56.475 121.417 56.205L108.367 50.13V44.865L128.527 54.36V59.985L108.367 69.48Z" fill="#F46AEF"/>
</g>
<rect x="0.5" y="0.5" width="318" height="182" rx="14.5" stroke="#C3C2C2"/>
<defs>
<linearGradient id="paint0_linear_542_1006" x1="270.96" y1="200.382" x2="198.5" y2="88.5" gradientUnits="userSpaceOnUse">
<stop stop-color="#81247E"/>
<stop offset="1" stop-color="#F46AEF"/>
</linearGradient>
<linearGradient id="paint1_linear_542_1006" x1="182.4" y1="9.11544" x2="202.464" y2="61.7477" gradientUnits="userSpaceOnUse">
<stop stop-color="#F46AEF"/>
<stop offset="1" stop-color="#81247E"/>
</linearGradient>
<linearGradient id="paint2_linear_542_1006" x1="89.8959" y1="126.402" x2="94.7082" y2="147.373" gradientUnits="userSpaceOnUse">
<stop stop-color="#F46AEF"/>
<stop offset="1" stop-color="#81247E"/>
</linearGradient>
<linearGradient id="paint3_linear_542_1006" x1="90.1931" y1="113" x2="90.1931" y2="161.386" gradientUnits="userSpaceOnUse">
<stop stop-color="#F46AEF"/>
<stop offset="1" stop-color="#81247E"/>
</linearGradient>
<clipPath id="clip0_542_1006">
<rect width="319" height="183" rx="15" fill="white"/>
</clipPath>
</defs>
</svg>
