<svg width="323" height="211" viewBox="0 0 323 211" fill="none" xmlns="http://www.w3.org/2000/svg">
<path d="M280.125 59.4488C288.571 57.7518 296.876 63.0932 298.797 71.5421L300.918 80.8665L300.924 80.865L302.102 86.0453L302.096 86.0468L319.058 160.643L319.145 161.044C320.815 169.357 315.668 177.533 307.451 179.621L307.051 179.717L186.869 207.046L186.467 207.132C178.155 208.802 169.979 203.656 167.891 195.439L167.795 195.039L147.534 105.938C145.613 97.4896 150.792 89.082 159.141 86.9598L159.541 86.8638L279.723 59.5352L280.125 59.4488ZM156.012 119.265L172.975 193.861C174.276 199.583 179.97 203.167 185.691 201.866L305.873 174.537C311.595 173.236 315.179 167.542 313.878 161.82L296.915 87.2248L156.012 119.265ZM160.719 92.0441C154.997 93.3452 151.413 99.0386 152.714 104.761L154.834 114.085L295.737 82.0445L293.617 72.72C292.316 66.9981 286.623 63.4143 280.901 64.7154L160.719 92.0441Z" fill="url(#paint0_linear_889_44)"/>
<path d="M179.816 145.928L179.003 142.354L187.07 136.139C187.442 135.859 187.81 135.611 188.176 135.398C188.557 135.158 188.857 134.992 189.076 134.899C188.838 134.909 188.501 134.91 188.063 134.9C187.62 134.87 187.181 134.807 186.744 134.71L176.777 132.563L175.95 128.927L191.366 132.319L192.249 136.204L179.816 145.928Z" fill="#B23DAE"/>
<path d="M136.591 18.9101L135.901 18.6011C135.382 18.3685 134.914 18.036 134.524 17.6225C134.134 17.2091 133.829 16.7228 133.626 16.1915C133.424 15.6601 133.328 15.0941 133.345 14.5258C133.361 13.9575 133.489 13.3979 133.722 12.8791C133.954 12.3603 134.287 11.8924 134.7 11.5021C135.114 11.1118 135.6 10.8067 136.131 10.6044C136.663 10.402 137.229 10.3063 137.797 10.3226C138.365 10.339 138.925 10.4671 139.444 10.6998L140.13 11.01C140.762 9.79078 141.837 8.85962 143.134 8.40738C144.431 7.95513 145.851 8.01605 147.104 8.57765L194.74 29.9158C195.036 30.0497 195.291 30.2617 195.476 30.5292L203.936 42.6548C204.113 42.9087 204.221 43.204 204.25 43.5119C204.279 43.8199 204.228 44.1301 204.101 44.4124C203.975 44.6947 203.777 44.9395 203.528 45.123C203.279 45.3064 202.987 45.4223 202.68 45.4594L188 47.218C187.678 47.2568 187.351 47.2075 187.055 47.0754L142.431 27.0836C142.327 27.4934 142.371 27.9269 142.555 28.3075C142.74 28.688 143.053 28.9911 143.439 29.1633L158.678 35.9876C158.893 36.084 159.087 36.2219 159.249 36.3932C159.411 36.5646 159.537 36.7662 159.621 36.9865C159.705 37.2068 159.745 37.4415 159.738 37.6771C159.732 37.9128 159.679 38.1448 159.582 38.36C159.486 38.5751 159.348 38.7692 159.177 38.931C159.005 39.0929 158.804 39.2195 158.583 39.3035C158.363 39.3874 158.128 39.4272 157.893 39.4205C157.657 39.4138 157.425 39.3607 157.21 39.2643L141.972 32.432C140.718 31.8701 139.726 30.8496 139.201 29.5798C138.675 28.31 138.656 26.8873 139.146 25.6035C137.972 24.9965 137.063 23.9787 136.592 22.7442C136.12 21.5097 136.12 20.1449 136.591 18.9101ZM139.98 20.0895C139.786 20.5234 139.772 21.0167 139.941 21.461C140.11 21.9052 140.449 22.264 140.883 22.4585L188.069 43.6035L199.288 42.2587L192.823 32.9914L145.637 11.8463C145.422 11.7496 145.19 11.6963 144.954 11.6895C144.719 11.6826 144.484 11.7223 144.264 11.8063C144.043 11.8903 143.842 12.017 143.67 12.179C143.499 12.3411 143.361 12.5353 143.265 12.7507L139.98 20.0895Z" fill="url(#paint1_linear_889_44)"/>
<path d="M73.2506 128.752L63.1296 138.487L59.8976 124.403L73.2506 128.752Z" stroke="url(#paint2_linear_889_44)" stroke-width="4"/>
<circle cx="66.1931" cy="130.193" r="22.1931" stroke="url(#paint3_linear_889_44)" stroke-width="4"/>
<path d="M23.58 62.48L3.42 52.985V47.36L23.58 37.865V43.04L10.53 49.07C9.93 49.34 9.33 49.58 8.73 49.79C8.16 49.97 7.71 50.09 7.38 50.15C7.71 50.21 8.175 50.33 8.775 50.51C9.375 50.69 9.96 50.915 10.53 51.185L23.58 57.215V62.48ZM45.3874 73.1L40.4374 64.955L41.4274 65.405C41.3074 65.405 41.1574 65.405 40.9774 65.405C40.8274 65.435 40.6624 65.45 40.4824 65.45C38.3824 65.45 36.5524 65.045 34.9924 64.235C33.4324 63.425 32.2174 62.285 31.3474 60.815C30.4774 59.315 30.0424 57.59 30.0424 55.64V41.51C30.0424 39.5 30.4774 37.775 31.3474 36.335C32.2174 34.865 33.4324 33.725 34.9924 32.915C36.5524 32.105 38.3824 31.7 40.4824 31.7C42.5824 31.7 44.4124 32.105 45.9724 32.915C47.5324 33.725 48.7474 34.865 49.6174 36.335C50.4874 37.805 50.9224 39.53 50.9224 41.51V55.64C50.9224 57.62 50.4874 59.36 49.6174 60.86C48.7774 62.33 47.5774 63.455 46.0174 64.235L51.4624 73.1H45.3874ZM40.4824 60.5C42.0424 60.5 43.2274 60.08 44.0374 59.24C44.8774 58.37 45.2974 57.17 45.2974 55.64V41.51C45.2974 39.95 44.8624 38.75 43.9924 37.91C43.1524 37.04 41.9824 36.605 40.4824 36.605C38.9824 36.605 37.7974 37.04 36.9274 37.91C36.0874 38.75 35.6674 39.95 35.6674 41.51V55.64C35.6674 57.17 36.0874 58.37 36.9274 59.24C37.7674 60.08 38.9524 60.5 40.4824 60.5ZM67.5548 65.45C65.3048 65.45 63.3548 65.075 61.7048 64.325C60.0548 63.575 58.7798 62.51 57.8798 61.13C57.0098 59.72 56.5598 58.07 56.5298 56.18H62.1548C62.1548 57.53 62.6348 58.595 63.5948 59.375C64.5848 60.125 65.9198 60.5 67.5998 60.5C69.2198 60.5 70.4798 60.125 71.3798 59.375C72.3098 58.625 72.7748 57.59 72.7748 56.27C72.7748 55.16 72.4448 54.2 71.7848 53.39C71.1548 52.55 70.2398 51.98 69.0398 51.68L65.2598 50.645C62.6798 49.985 60.6848 48.8 59.2748 47.09C57.8948 45.38 57.2048 43.31 57.2048 40.88C57.2048 39.02 57.6248 37.4 58.4648 36.02C59.3048 34.64 60.4898 33.575 62.0198 32.825C63.5798 32.075 65.4098 31.7 67.5098 31.7C70.6898 31.7 73.2098 32.525 75.0698 34.175C76.9298 35.795 77.8748 37.985 77.9048 40.745H72.2798C72.2798 39.455 71.8598 38.45 71.0198 37.73C70.1798 36.98 68.9948 36.605 67.4648 36.605C65.9948 36.605 64.8548 36.95 64.0448 37.64C63.2348 38.33 62.8298 39.305 62.8298 40.565C62.8298 41.705 63.1298 42.68 63.7298 43.49C64.3598 44.27 65.2598 44.825 66.4298 45.155L70.3448 46.235C72.9548 46.895 74.9498 48.08 76.3298 49.79C77.7098 51.47 78.3998 53.555 78.3998 56.045C78.3998 57.905 77.9498 59.555 77.0498 60.995C76.1498 62.405 74.8898 63.5 73.2698 64.28C71.6498 65.06 69.7448 65.45 67.5548 65.45ZM84.3673 62.48V57.305L97.4173 51.275C98.0173 51.005 98.6023 50.78 99.1723 50.6C99.7723 50.39 100.237 50.255 100.567 50.195C100.237 50.135 99.7723 50.03 99.1723 49.88C98.5723 49.7 97.9873 49.475 97.4173 49.205L84.3673 43.13V37.865L104.527 47.36V52.985L84.3673 62.48Z" fill="#81247E"/>
<defs>
<linearGradient id="paint0_linear_889_44" x1="246.961" y1="193.381" x2="174.5" y2="81.4996" gradientUnits="userSpaceOnUse">
<stop stop-color="#81247E"/>
<stop offset="1" stop-color="#F46AEF"/>
</linearGradient>
<linearGradient id="paint1_linear_889_44" x1="158.4" y1="2.11544" x2="178.464" y2="54.7477" gradientUnits="userSpaceOnUse">
<stop stop-color="#F46AEF"/>
<stop offset="1" stop-color="#81247E"/>
</linearGradient>
<linearGradient id="paint2_linear_889_44" x1="65.8959" y1="119.402" x2="70.7082" y2="140.373" gradientUnits="userSpaceOnUse">
<stop stop-color="#F46AEF"/>
<stop offset="1" stop-color="#81247E"/>
</linearGradient>
<linearGradient id="paint3_linear_889_44" x1="66.1931" y1="106" x2="66.1931" y2="154.386" gradientUnits="userSpaceOnUse">
<stop stop-color="#F46AEF"/>
<stop offset="1" stop-color="#81247E"/>
</linearGradient>
</defs>
</svg>
