<svg width="319" height="183" viewBox="0 0 319 183" fill="none" xmlns="http://www.w3.org/2000/svg">
<g clip-path="url(#clip0_531_468)">
<rect width="319" height="183" rx="15" fill="white"/>
<path fill-rule="evenodd" clip-rule="evenodd" d="M-38.448 -20.896L132.2 4.31585C136.297 4.92124 139.128 8.73382 138.523 12.8315L137.554 19.3906L-47.9327 -8.01356L-46.9636 -14.5727C-46.3582 -18.6703 -42.5457 -21.5014 -38.448 -20.896ZM-52.1905 -4.85192L-61.8543 60.5577C-62.7623 66.7042 -58.5158 72.4231 -52.3693 73.3312L32.5383 85.8756L34.7642 86.2045L118.278 98.543C124.425 99.4511 130.144 95.2046 131.052 89.0581L132.204 81.2585L132.205 81.2587L132.534 79.0328L132.533 79.0327L135.122 61.5061L135.123 61.5062L135.452 59.2804L135.451 59.2803L138.041 41.7542L138.041 41.7543L138.37 39.5284L138.369 39.5284L142.233 13.3796C143.141 7.23307 138.894 1.51421 132.748 0.606113L-37.8999 -24.6057C-44.0464 -25.5138 -49.7653 -21.2673 -50.6734 -15.1208L-51.6424 -8.56165L-51.6431 -8.56175L-52.1912 -4.85202L-52.1905 -4.85192ZM35.3123 82.4947L118.826 94.8333C122.924 95.4387 126.737 92.6076 127.342 88.51L128.494 80.7104L37.5607 67.2757L35.3123 82.4947ZM37.8896 65.0499L128.823 78.4846L131.413 60.958L40.479 47.5233L37.8896 65.0499ZM38.2532 47.1945L35.6638 64.721L-56.6634 51.0804L-54.0739 33.5539L38.2532 47.1945ZM40.8079 45.2975L131.741 58.7322L134.331 41.2061L43.3972 27.7714L40.8079 45.2975ZM41.1714 27.4426L38.582 44.9686L-53.7451 31.328L-51.1558 13.802L41.1714 27.4426ZM43.726 25.5456L134.66 38.9803L137.006 23.1003L46.0722 9.66562L43.726 25.5456ZM43.8463 9.33677L41.5002 25.2167L-50.8269 11.5761L-48.4808 -4.30383L43.8463 9.33677ZM35.3349 66.9469L33.0864 82.1659L-51.8212 69.6214C-55.9189 69.0161 -58.7499 65.2035 -58.1445 61.1058L-56.9922 53.3063L35.3349 66.9469Z" fill="url(#paint0_linear_531_468)"/>
<path d="M81.6605 143.133L92.8667 150.661M112.521 151.666L118.166 143.262C118.666 142.519 118.849 141.608 118.677 140.729C118.504 139.851 117.99 139.077 117.247 138.578L111.644 134.814C110.901 134.315 109.99 134.131 109.112 134.304C108.233 134.476 107.459 134.991 106.96 135.734L101.314 144.138M112.521 151.666C113.264 152.165 113.778 152.939 113.95 153.818C114.123 154.696 113.939 155.607 113.44 156.35L109.074 162.849C105.56 168.08 108.205 176.248 105.589 180.142L98.3414 190.931C97.3431 192.417 95.7954 193.446 94.0388 193.791C92.2821 194.135 90.4603 193.768 88.9743 192.77L77.768 185.242C76.282 184.244 75.2534 182.696 74.9085 180.94C74.5636 179.183 74.9306 177.361 75.9289 175.875L96.6307 145.058C97.1299 144.315 97.9037 143.801 98.782 143.628C99.6604 143.456 100.571 143.639 101.314 144.138M112.521 151.666L101.314 144.138M103.987 182.526L47.9561 144.887M73.2986 125.319C72.5556 124.819 71.6447 124.636 70.7664 124.808C69.8881 124.981 69.1142 125.495 68.6151 126.238L64.2489 132.738C60.7352 137.968 52.1736 138.608 49.5576 142.503L42.3101 153.291C41.3119 154.777 40.9448 156.599 41.2897 158.356C41.6346 160.112 42.6632 161.66 44.1493 162.658L55.3555 170.186C56.8416 171.185 58.6633 171.552 60.42 171.207C62.1767 170.862 63.7244 169.833 64.7226 168.347L85.4245 137.53C85.9236 136.787 86.1071 135.876 85.9347 134.998C85.7622 134.119 85.2479 133.346 84.5049 132.846M73.2986 125.319L84.5049 132.846M73.2986 125.319L78.9446 116.914C79.4437 116.171 80.2176 115.656 81.0959 115.484C81.9742 115.312 82.8851 115.495 83.6281 115.994L89.2313 119.758C89.9743 120.257 90.4886 121.031 90.661 121.91C90.8335 122.788 90.65 123.699 90.1508 124.442L84.5049 132.846" stroke="url(#paint1_linear_531_468)" stroke-width="3" stroke-linecap="round" stroke-linejoin="round"/>
<path fill-rule="evenodd" clip-rule="evenodd" d="M150.973 135.54L315.312 83.1079C319.258 81.8489 323.478 84.0272 324.737 87.9734L326.752 94.2894L148.123 151.281L146.108 144.965C144.849 141.018 147.027 136.799 150.973 135.54ZM240.32 125.801L327.892 97.862L332.771 113.155L245.2 141.094L240.32 125.801ZM238.177 126.485L149.263 154.853L154.142 170.146L243.056 141.778L238.177 126.485ZM243.74 143.922L154.826 172.29L160.211 189.168L249.125 160.801L243.74 143.922ZM249.809 162.944L160.895 191.312L166.28 208.19L255.194 179.822L249.809 162.944ZM257.338 179.138L251.953 162.26L339.524 134.321L344.909 151.199L257.338 179.138ZM255.878 181.966L166.964 210.334L169.36 217.845C170.619 221.791 174.839 223.97 178.785 222.711L260.554 196.622L255.878 181.966ZM262.698 195.939L258.021 181.282L345.593 153.343L347.989 160.854C349.248 164.8 347.07 169.02 343.124 170.279L262.698 195.939ZM263.837 199.511L344.263 173.851C350.183 171.963 353.45 165.633 351.562 159.714L349.165 152.203L348.481 150.059L343.096 133.181L343.097 133.181L342.413 131.037L342.412 131.037L331.464 96.7223L330.324 93.1497L328.309 86.8336C326.421 80.9143 320.091 77.6468 314.172 79.5353L149.834 131.967C143.914 133.856 140.647 140.185 142.535 146.104L144.55 152.421L145.69 155.993L150.569 171.286L150.569 171.286L151.253 173.43L151.253 173.429L162.707 209.33L163.391 211.474L165.788 218.985C167.676 224.904 174.006 228.172 179.925 226.283L261.694 200.195L261.694 200.195L263.837 199.511L263.837 199.511ZM251.269 160.117L245.884 143.238L333.455 115.298L338.84 132.177L251.269 160.117Z" fill="url(#paint2_linear_531_468)"/>
<path d="M222.792 30.2141L226.501 42.4999L235.667 44.6075M246.605 36.4314C247.402 39.0715 247.671 41.8428 247.397 44.5869C247.123 47.331 246.311 49.9942 245.007 52.4246C243.704 54.8549 241.935 57.0048 239.801 58.7514C237.667 60.4979 235.209 61.8071 232.569 62.604C229.929 63.4009 227.158 63.67 224.414 63.396C221.67 63.1219 219.006 62.31 216.576 61.0067C214.146 59.7034 211.996 57.9341 210.249 55.8C208.503 53.6658 207.194 51.2085 206.397 48.5684C204.787 43.2365 205.362 37.4836 207.994 32.5753C210.626 27.667 215.1 24.0053 220.432 22.3959C225.764 20.7864 231.517 21.361 236.425 23.9931C241.334 26.6253 244.995 31.0995 246.605 36.4314Z" stroke="#41748D" stroke-width="3.6" stroke-linecap="round" stroke-linejoin="round"/>
</g>
<rect x="0.5" y="0.5" width="318" height="182" rx="14.5" stroke="#C3C2C2"/>
<defs>
<linearGradient id="paint0_linear_531_468" x1="132" y1="26" x2="0.499997" y2="99" gradientUnits="userSpaceOnUse">
<stop stop-color="#41748D"/>
<stop offset="1" stop-color="#51ABD8"/>
</linearGradient>
<linearGradient id="paint1_linear_531_468" x1="100.438" y1="127.286" x2="70.5" y2="231" gradientUnits="userSpaceOnUse">
<stop stop-color="#41748D"/>
<stop offset="1" stop-color="#122027"/>
</linearGradient>
<linearGradient id="paint2_linear_531_468" x1="256.5" y1="181.5" x2="157" y2="105" gradientUnits="userSpaceOnUse">
<stop stop-color="#41748D"/>
<stop offset="1" stop-color="#51ABD8"/>
</linearGradient>
<clipPath id="clip0_531_468">
<rect width="319" height="183" rx="15" fill="white"/>
</clipPath>
</defs>
</svg>
