<svg width="342" height="222" viewBox="0 0 342 222" fill="none" xmlns="http://www.w3.org/2000/svg">
<path d="M76.0707 32.474C73.5054 33.1451 71.2364 34.6512 69.6217 36.7545L59.5269 32.4232C59.7794 30.8065 59.6948 29.155 59.2786 27.5726C59.2082 27.3041 59.1378 27.0357 59.0393 26.7785L63.4189 23.9206C65.5512 25.8641 68.3123 26.9744 71.1964 27.048C74.0806 27.1217 76.8947 26.1537 79.1234 24.3215C81.352 22.4893 82.846 19.9155 83.3316 17.0716C83.8171 14.2277 83.2618 11.304 81.7674 8.83608C80.2729 6.3682 77.9394 4.52135 75.1942 3.63384C72.449 2.74632 69.4759 2.87755 66.8196 4.0035C64.1633 5.12944 62.0015 7.17472 60.7303 9.76467C59.4591 12.3546 59.1636 15.3159 59.8979 18.106C59.9682 18.3744 60.0386 18.6428 60.1371 18.9L55.7575 21.758C54.279 20.4074 52.4861 19.4483 50.5421 18.9681C48.598 18.4878 46.5647 18.5017 44.6274 19.0084C43.9873 19.1777 43.362 19.3987 42.7577 19.6692L38.8081 14.7191C40.5016 12.4456 41.3356 9.64585 41.1621 6.81619C40.9887 3.98652 39.819 1.30965 37.8604 -0.73998C35.9018 -2.78961 33.2808 -4.07963 30.4619 -4.38138C27.643 -4.68314 24.8084 -3.97715 22.4603 -2.38854C20.1122 -0.799933 18.4024 1.56869 17.6339 4.29752C16.8654 7.02635 17.0879 9.93914 18.2618 12.5196C19.4358 15.1001 21.4854 17.1816 24.0475 18.3953C26.6096 19.6089 29.5186 19.8763 32.2589 19.1499C32.8991 18.9807 33.5244 18.7597 34.1287 18.4891L38.0745 23.4248C36.4071 25.6417 35.5615 28.3689 35.6821 31.1403C35.8027 33.9117 36.8822 36.5551 38.7359 38.6188L31.5822 49.349C28.8204 48.3821 25.8007 48.4557 23.0893 49.556C20.3778 50.6563 18.1607 52.7076 16.8536 55.3256C15.5464 57.9436 15.2389 60.9484 15.9887 63.7769C16.7385 66.6054 18.4941 69.0633 20.9265 70.69C23.3589 72.3166 26.3011 73.0003 29.2015 72.6129C32.1019 72.2255 34.7615 70.7936 36.6817 68.5856C38.6019 66.3776 39.6509 63.545 39.632 60.6189C39.6132 57.6928 38.5279 54.874 36.5794 52.6909L43.7332 41.9607C46.1089 42.7908 48.6859 42.8508 51.0977 42.1322C53.5095 41.4135 55.6333 39.9527 57.1671 37.9576L67.262 42.289C67.0103 43.9007 67.0935 45.547 67.5065 47.1251C68.1085 49.4209 69.3777 51.4866 71.1536 53.061C72.9296 54.6355 75.1325 55.6479 77.4839 55.9704C79.8353 56.2928 82.2295 55.9107 84.3637 54.8725C86.4979 53.8342 88.2763 52.1864 89.4741 50.1374C90.6718 48.0884 91.235 45.7303 91.0925 43.3612C90.95 40.9921 90.1082 38.7184 88.6735 36.8278C87.2389 34.9371 85.2758 33.5143 83.0325 32.7394C80.7892 31.9644 78.3665 31.872 76.0707 32.474ZM69.9838 9.25869C71.1317 8.95772 72.343 9.0039 73.4647 9.39138C74.5863 9.77887 75.5679 10.4903 76.2852 11.4356C77.0025 12.3809 77.4234 13.5177 77.4947 14.7023C77.5659 15.8868 77.2843 17.0659 76.6855 18.0904C76.0866 19.1149 75.1974 19.9388 74.1303 20.4579C73.0631 20.9771 71.8661 21.1681 70.6904 21.0069C69.5147 20.8457 68.4132 20.3394 67.5252 19.5522C66.6373 18.765 66.0027 17.7321 65.7017 16.5842C65.2981 15.045 65.5225 13.4084 66.3256 12.0346C67.1286 10.6608 68.4445 9.66228 69.9838 9.25869ZM23.4117 9.06404C23.1107 7.91615 23.1569 6.70479 23.5443 5.58315C23.9318 4.46151 24.6432 3.47995 25.5886 2.76262C26.5339 2.04528 27.6707 1.62438 28.8553 1.55313C30.0398 1.48189 31.2189 1.7635 32.2434 2.36236C33.2679 2.96122 34.0918 3.85043 34.6109 4.91755C35.13 5.98466 35.3211 7.18175 35.1599 8.35744C34.9986 9.53312 34.4924 10.6346 33.7052 11.5226C32.918 12.4106 31.8851 13.0452 30.7372 13.3461C29.1979 13.7497 27.5614 13.5253 26.1876 12.7223C24.8138 11.9192 23.8152 10.6033 23.4117 9.06404ZM29.1624 66.4829C28.0145 66.7839 26.8031 66.7377 25.6815 66.3502C24.5598 65.9628 23.5783 65.2514 22.861 64.306C22.1436 63.3607 21.7227 62.2239 21.6515 61.0393C21.5802 59.8548 21.8618 58.6757 22.4607 57.6512C23.0596 56.6267 23.9488 55.8028 25.0159 55.2837C26.083 54.7646 27.2801 54.5735 28.4558 54.7347C29.6315 54.896 30.7329 55.4022 31.6209 56.1894C32.5089 56.9766 33.1435 58.0095 33.4445 59.1574C33.848 60.6966 33.6236 62.3332 32.8206 63.707C32.0175 65.0808 30.7016 66.0793 29.1624 66.4829ZM41.8671 32.1378C41.5661 30.9899 41.6123 29.7785 41.9998 28.6569C42.3873 27.5352 43.0987 26.5537 44.044 25.8363C44.9893 25.119 46.1261 24.6981 47.3107 24.6269C48.4952 24.5556 49.6743 24.8372 50.6988 25.4361C51.7233 26.035 52.5472 26.9242 53.0663 27.9913C53.5855 29.0584 53.7765 30.2555 53.6153 31.4312C53.4541 32.6069 52.9478 33.7083 52.1606 34.5963C51.3734 35.4843 50.3405 36.1189 49.1926 36.4199C47.6534 36.8234 46.0168 36.599 44.643 35.796C43.2692 34.9929 42.2707 33.677 41.8671 32.1378ZM80.6359 49.8854C79.488 50.1864 78.2766 50.1402 77.155 49.7527C76.0334 49.3653 75.0518 48.6539 74.3345 47.7085C73.6171 46.7632 73.1962 45.6264 73.125 44.4418C73.0537 43.2573 73.3354 42.0782 73.9342 41.0537C74.5331 40.0292 75.4223 39.2053 76.4894 38.6862C77.5565 38.1671 78.7536 37.976 79.9293 38.1372C81.105 38.2985 82.2065 38.8047 83.0944 39.5919C83.9824 40.3791 84.617 41.412 84.918 42.5599C85.3216 44.0992 85.0972 45.7357 84.2941 47.1095C83.4911 48.4833 82.1752 49.4818 80.6359 49.8854Z" fill="url(#paint0_linear_881_26)"/>
<path fill-rule="evenodd" clip-rule="evenodd" d="M53.0633 89.5022L53.0269 89.5038L52.8027 89.5821L52.7417 89.5867L52.7014 89.5697L52.5032 89.4365C52.4724 89.4247 52.4478 89.4277 52.4295 89.4456L52.414 89.4739L52.207 90.7422L52.2146 90.8036L52.2396 90.8459L52.5223 91.1043L52.5655 91.1217L52.6027 91.1141L52.9394 90.9318L52.9809 90.8885L52.9991 90.8393L53.1044 89.5617C53.1004 89.5289 53.0867 89.5091 53.0633 89.5022ZM53.8907 89.2622L53.8483 89.263L53.2664 89.4727L53.233 89.4989L53.2201 89.5305L53.1166 90.8175L53.1271 90.855L53.148 90.8818L53.7129 91.2292C53.7494 91.2437 53.7792 91.2393 53.8022 91.2159L53.8192 91.1757L53.9422 89.335C53.9369 89.2961 53.9198 89.2718 53.8907 89.2622ZM51.7609 89.007C51.7488 88.9974 51.7334 88.9929 51.718 88.9944C51.7027 88.9959 51.6884 89.0033 51.6784 89.015L51.6554 89.0545L51.3299 90.8704C51.3275 90.9063 51.3414 90.9322 51.3717 90.948L51.4171 90.9475L52.0496 90.744L52.0823 90.7239L52.0953 90.6922L52.3059 89.4184L52.3014 89.3816L52.2752 89.3481L51.7609 89.007Z" fill="url(#paint1_linear_881_26)"/>
<path fill-rule="evenodd" clip-rule="evenodd" d="M83.5008 102.579C84.0555 102.59 84.5964 102.754 85.0633 103.054C85.5303 103.353 85.905 103.776 86.1459 104.276L86.3322 104.68L86.583 105.321L86.7606 105.869L86.9329 106.51C87.5648 109.12 87.7376 113.551 83.874 118.091C83.5849 118.426 83.2678 118.736 82.9262 119.018C82.9196 119.39 82.8437 119.758 82.7024 120.103C81.8429 122.2 80.8359 124.234 79.689 126.189C77.587 129.749 74.8069 133.267 71.146 136.131C64.293 141.486 55.9334 143.305 49.5139 143.845C46.9942 144.058 44.7221 144.076 42.8853 144.02L41.4213 143.955L40.7912 143.917L40.0218 147.036L39.3991 149.698L39.1354 150.911L38.8361 152.439C38.7903 152.693 38.7511 152.947 38.7184 153.202C38.6215 153.992 38.2149 154.71 37.588 155.2C36.961 155.69 36.1652 155.911 35.3754 155.814C34.5857 155.717 33.8668 155.311 33.3769 154.684C32.887 154.057 32.6661 153.261 32.763 152.471C32.8012 152.16 32.855 151.804 32.9243 151.403L33.1732 150.113L33.4799 148.672L34.0001 146.403L34.3561 144.929C35.5992 139.847 36.9355 134.89 39.1542 130.133C41.7166 124.644 45.9646 117.733 52.6735 112.493C57.9323 108.381 63.8466 105.972 69.0793 104.561L70.4898 104.199L71.8584 103.884C72.0821 103.835 72.3044 103.788 72.5253 103.745L73.8256 103.493L75.0665 103.283L76.249 103.104L77.3638 102.96L78.4055 102.846L79.369 102.753L81.0332 102.64L82.7845 102.579L83.5008 102.579ZM81.2405 108.637L80.259 108.704L79.1284 108.804L77.8569 108.945L77.1747 109.036L75.7277 109.252C75.2258 109.335 74.7095 109.429 74.1789 109.533L72.5439 109.877C67.5216 111.026 61.5357 113.181 56.3675 117.22C50.6715 121.669 46.9252 127.668 44.5917 132.671C43.9152 134.121 43.3624 135.473 42.9234 136.662L42.445 137.999L43.8453 138.041C45.569 138.071 47.2931 138.013 49.0109 137.868C54.8745 137.375 61.9031 135.738 67.4494 131.401C70.2906 129.183 72.5466 126.413 74.3289 123.464C71.2327 124.656 67.9598 125.663 65.6631 126.128C64.883 126.286 64.0723 126.127 63.4093 125.687C62.7462 125.247 62.2852 124.561 62.1275 123.781C61.9699 123.001 62.1286 122.19 62.5688 121.527C63.0089 120.864 63.6944 120.403 64.4745 120.245C66.5632 119.825 69.9696 118.764 73.137 117.485C74.7081 116.849 76.1555 116.186 77.3061 115.554L78.0412 115.13L78.5989 114.772L78.8143 114.617L79.1319 114.369L79.3038 114.2C81.1645 112.016 81.3928 109.983 81.2405 108.637ZM38.5792 92.735C39.1363 92.8033 39.663 93.0266 40.0996 93.3793C40.5361 93.7321 40.8649 94.2002 41.0486 94.7305L41.1488 95.0964L41.3979 96.2695C41.6595 97.5172 42.1832 98.695 42.9344 99.7251C43.6855 100.755 44.6469 101.614 45.7548 102.244L46.2801 102.52L47.3586 103.043C47.8925 103.301 48.3376 103.713 48.6377 104.225C48.9378 104.736 49.0794 105.326 49.0446 105.918C49.0098 106.51 48.8001 107.079 48.4422 107.552C48.0842 108.025 47.594 108.382 47.0334 108.576L46.6675 108.676L45.4945 108.925C44.2468 109.187 43.0689 109.711 42.0389 110.462C41.0088 111.213 40.1501 112.174 39.5196 113.282L39.2436 113.808L38.7214 114.886C38.4625 115.42 38.0512 115.865 37.5394 116.165C37.0276 116.465 36.4383 116.607 35.846 116.572C35.2537 116.537 34.685 116.328 34.2119 115.97C33.7387 115.612 33.3823 115.121 33.1878 114.561L33.0876 114.195L32.8386 113.022C32.5769 111.774 32.0532 110.596 31.3021 109.566C30.551 108.536 29.5896 107.678 28.4816 107.047L27.9563 106.771L26.8779 106.249C26.344 105.99 25.8989 105.579 25.5988 105.067C25.2986 104.555 25.157 103.966 25.1918 103.373C25.2266 102.781 25.4363 102.213 25.7943 101.739C26.1522 101.266 26.6425 100.91 27.203 100.715L27.5689 100.615L28.742 100.366C29.9896 100.104 31.1675 99.5807 32.1976 98.8296C33.2276 98.0785 34.0863 97.1171 34.7169 96.0091L34.9929 95.4838L35.5151 94.4054C35.7878 93.8421 36.2298 93.3783 36.7793 93.0788C37.3287 92.7793 37.9581 92.6591 38.5792 92.735ZM37.4119 102.252C36.5988 103.052 35.697 103.756 34.7242 104.352C35.5271 105.166 36.2272 106.062 36.8246 107.04C37.6384 106.237 38.5343 105.537 39.5123 104.939C38.7122 104.126 38.0075 103.225 37.4119 102.252Z" fill="url(#paint2_linear_881_26)"/>
<path d="M303.729 74.3731C309.483 72.8537 315.48 76.0999 317.31 81.834L331.412 126.037H331.413L332.097 128.181L340.562 154.714L340.724 155.271C342.194 160.839 339.202 166.635 333.811 168.661L333.264 168.852L251.436 194.958L250.694 195.195L250.693 195.194L168.925 221.283L168.369 221.445C162.8 222.916 157.004 219.924 154.978 214.532L154.788 213.985L152.392 206.474L151.707 204.33V204.329L140.253 168.429V168.43L139.568 166.286L139.569 166.285L134.691 150.993L133.55 147.421V147.42L131.535 141.105C129.706 135.37 132.715 129.251 138.286 127.157L138.834 126.967L303.172 74.5352L303.729 74.3731ZM155.964 205.333L158.36 212.845C159.619 216.791 163.839 218.97 167.785 217.711L249.554 191.622L244.878 176.965L155.964 205.333ZM149.895 186.312L155.279 203.19L244.193 174.821L238.809 157.942L149.895 186.312ZM247.021 176.281L251.697 190.939L332.124 165.278C336.07 164.019 338.248 159.8 336.989 155.854L334.592 148.343L247.021 176.281ZM143.825 167.289L149.21 184.168L238.125 155.799L232.74 138.921L143.825 167.289ZM240.952 157.259L246.337 174.138L333.908 146.199L328.523 129.32L240.952 157.259ZM138.262 149.853L143.141 165.146L232.056 136.777L227.177 121.484L138.262 149.853ZM234.883 138.237L240.268 155.115L327.839 127.177L322.454 110.299L234.883 138.237ZM313.736 82.9737C312.517 79.1509 308.519 76.987 304.683 78.0001L304.312 78.1075L139.974 130.54C136.028 131.799 133.849 136.019 135.108 139.965L137.122 146.28L315.751 89.2891L313.736 82.9737ZM229.32 120.801L234.199 136.094L321.77 108.155L316.891 92.8624L229.32 120.801Z" fill="url(#paint3_linear_881_26)"/>
<path d="M271.768 36.9537L270.41 37.3754L269.785 37.0608C270.9 34.498 271.056 31.6197 270.225 28.9512C269.539 26.7413 268.213 24.7845 266.414 23.3283C264.616 21.8721 262.426 20.9819 260.122 20.7702C257.818 20.5586 255.502 21.035 253.469 22.1392C251.435 23.2435 249.775 24.9259 248.697 26.9739C247.62 29.0218 247.174 31.3432 247.416 33.6446C247.658 35.946 248.577 38.1239 250.057 39.9029C251.536 41.682 253.51 42.9823 255.729 43.6395C257.948 44.2966 260.312 44.2811 262.522 43.5948C265.289 42.7353 267.519 40.931 268.955 38.6378L269.569 38.975L269.99 40.333L281.249 46.2417L283.015 42.8849L271.768 36.9537ZM261.454 40.1567C257.174 41.486 252.645 39.1038 251.316 34.8235C249.987 30.5431 252.369 26.0149 256.649 24.6856C260.93 23.3563 265.458 25.7385 266.787 30.0189C268.117 34.2992 265.734 38.8275 261.454 40.1567Z" fill="url(#paint4_linear_881_26)"/>
<g clip-path="url(#clip0_881_26)">
<path d="M194.232 41.4962C187.646 26.4149 172.736 20.6475 158.698 25.0315C145.429 29.1753 139.508 40.2498 139.311 49.4602C128.1 54.1098 120.147 63.788 123.873 75.7182C127.467 87.2282 140.357 92.0073 153.049 88.0437L203.048 72.4295C213.625 69.1265 220.784 61.6387 217.486 51.0775C214.228 40.6453 202.624 39.3045 194.232 41.4962Z" stroke="url(#paint5_linear_881_26)" stroke-width="6" stroke-linejoin="round"/>
</g>
<defs>
<linearGradient id="paint0_linear_881_26" x1="37.7523" y1="-7.10157" x2="72" y2="61" gradientUnits="userSpaceOnUse">
<stop stop-color="#5FB865"/>
<stop offset="1" stop-color="#69E571"/>
</linearGradient>
<linearGradient id="paint1_linear_881_26" x1="52.3044" y1="91.154" x2="53.5091" y2="88.7293" gradientUnits="userSpaceOnUse">
<stop stop-color="#5FB865"/>
<stop offset="1" stop-color="#69E571"/>
</linearGradient>
<linearGradient id="paint2_linear_881_26" x1="43.521" y1="158.832" x2="85.8" y2="88.2707" gradientUnits="userSpaceOnUse">
<stop stop-color="#5FB865"/>
<stop offset="1" stop-color="#69E571"/>
</linearGradient>
<linearGradient id="paint3_linear_881_26" x1="245.5" y1="176.5" x2="146" y2="100" gradientUnits="userSpaceOnUse">
<stop stop-color="#41748D"/>
<stop offset="1" stop-color="#51ABD8"/>
</linearGradient>
<linearGradient id="paint4_linear_881_26" x1="259.441" y1="20.0491" x2="259.974" y2="47.6876" gradientUnits="userSpaceOnUse">
<stop stop-color="#41748D"/>
<stop offset="1" stop-color="#51ABD8"/>
</linearGradient>
<linearGradient id="paint5_linear_881_26" x1="196.5" y1="25" x2="143" y2="115" gradientUnits="userSpaceOnUse">
<stop stop-color="#41748D"/>
<stop offset="1" stop-color="#51ABD8"/>
</linearGradient>
<clipPath id="clip0_881_26">
<rect width="103.15" height="93.5416" fill="white" transform="translate(104.24 23.6638) rotate(-17.343)"/>
</clipPath>
</defs>
</svg>
