<svg width="319" height="183" viewBox="0 0 319 183" fill="none" xmlns="http://www.w3.org/2000/svg">
<g clip-path="url(#clip0_537_800)">
<rect width="319" height="183" rx="15" fill="white"/>
<path d="M160.071 133.474C157.505 134.145 155.236 135.651 153.622 137.755L143.527 133.423C143.779 131.806 143.695 130.155 143.279 128.573C143.208 128.304 143.138 128.036 143.039 127.779L147.419 124.921C149.551 126.864 152.312 127.974 155.196 128.048C158.081 128.122 160.895 127.154 163.123 125.322C165.352 123.489 166.846 120.916 167.332 118.072C167.817 115.228 167.262 112.304 165.767 109.836C164.273 107.368 161.939 105.521 159.194 104.634C156.449 103.746 153.476 103.878 150.82 105.003C148.163 106.129 146.002 108.175 144.73 110.765C143.459 113.355 143.164 116.316 143.898 119.106C143.968 119.374 144.039 119.643 144.137 119.9L139.757 122.758C138.279 121.407 136.486 120.448 134.542 119.968C132.598 119.488 130.565 119.502 128.627 120.008C127.987 120.178 127.362 120.399 126.758 120.669L122.808 115.719C124.502 113.446 125.336 110.646 125.162 107.816C124.989 104.987 123.819 102.31 121.86 100.26C119.902 98.2104 117.281 96.9204 114.462 96.6186C111.643 96.3169 108.808 97.0229 106.46 98.6115C104.112 100.2 102.402 102.569 101.634 105.298C100.865 108.026 101.088 110.939 102.262 113.52C103.436 116.1 105.485 118.182 108.048 119.395C110.61 120.609 113.519 120.876 116.259 120.15C116.899 119.981 117.524 119.76 118.129 119.489L122.075 124.425C120.407 126.642 119.561 129.369 119.682 132.14C119.803 134.912 120.882 137.555 122.736 139.619L115.582 150.349C112.82 149.382 109.801 149.456 107.089 150.556C104.378 151.656 102.161 153.708 100.854 156.326C99.5464 158.944 99.2389 161.948 99.9887 164.777C100.739 167.605 102.494 170.063 104.927 171.69C107.359 173.317 110.301 174 113.201 173.613C116.102 173.226 118.761 171.794 120.682 169.586C122.602 167.378 123.651 164.545 123.632 161.619C123.613 158.693 122.528 155.874 120.579 153.691L127.733 142.961C130.109 143.791 132.686 143.851 135.098 143.132C137.509 142.413 139.633 140.953 141.167 138.958L151.262 143.289C151.01 144.901 151.094 146.547 151.507 148.125C152.108 150.421 153.378 152.487 155.154 154.061C156.93 155.635 159.133 156.648 161.484 156.97C163.835 157.293 166.229 156.911 168.364 155.872C170.498 154.834 172.276 153.186 173.474 151.137C174.672 149.088 175.235 146.73 175.093 144.361C174.95 141.992 174.108 139.718 172.674 137.828C171.239 135.937 169.276 134.514 167.032 133.739C164.789 132.964 162.366 132.872 160.071 133.474ZM153.984 110.259C155.132 109.958 156.343 110.004 157.465 110.391C158.586 110.779 159.568 111.49 160.285 112.436C161.003 113.381 161.423 114.518 161.495 115.702C161.566 116.887 161.284 118.066 160.685 119.09C160.087 120.115 159.197 120.939 158.13 121.458C157.063 121.977 155.866 122.168 154.69 122.007C153.515 121.846 152.413 121.339 151.525 120.552C150.637 119.765 150.003 118.732 149.702 117.584C149.298 116.045 149.523 114.408 150.326 113.035C151.129 111.661 152.445 110.662 153.984 110.259ZM107.412 110.064C107.111 108.916 107.157 107.705 107.544 106.583C107.932 105.462 108.643 104.48 109.589 103.763C110.534 103.045 111.671 102.624 112.855 102.553C114.04 102.482 115.219 102.763 116.243 103.362C117.268 103.961 118.092 104.85 118.611 105.918C119.13 106.985 119.321 108.182 119.16 109.357C118.999 110.533 118.492 111.635 117.705 112.523C116.918 113.411 115.885 114.045 114.737 114.346C113.198 114.75 111.561 114.525 110.188 113.722C108.814 112.919 107.815 111.603 107.412 110.064ZM113.162 167.483C112.014 167.784 110.803 167.738 109.681 167.35C108.56 166.963 107.578 166.251 106.861 165.306C106.144 164.361 105.723 163.224 105.651 162.039C105.58 160.855 105.862 159.676 106.461 158.651C107.06 157.627 107.949 156.803 109.016 156.284C110.083 155.765 111.28 155.574 112.456 155.735C113.631 155.896 114.733 156.402 115.621 157.189C116.509 157.977 117.143 159.009 117.444 160.157C117.848 161.697 117.624 163.333 116.821 164.707C116.018 166.081 114.702 167.079 113.162 167.483ZM125.867 133.138C125.566 131.99 125.612 130.779 126 129.657C126.387 128.535 127.099 127.554 128.044 126.836C128.989 126.119 130.126 125.698 131.311 125.627C132.495 125.556 133.674 125.837 134.699 126.436C135.723 127.035 136.547 127.924 137.066 128.991C137.585 130.058 137.776 131.255 137.615 132.431C137.454 133.607 136.948 134.708 136.161 135.596C135.373 136.484 134.341 137.119 133.193 137.42C131.653 137.823 130.017 137.599 128.643 136.796C127.269 135.993 126.271 134.677 125.867 133.138ZM164.636 150.885C163.488 151.186 162.277 151.14 161.155 150.753C160.033 150.365 159.052 149.654 158.334 148.709C157.617 147.763 157.196 146.626 157.125 145.442C157.054 144.257 157.335 143.078 157.934 142.054C158.533 141.029 159.422 140.205 160.489 139.686C161.557 139.167 162.754 138.976 163.929 139.137C165.105 139.298 166.206 139.805 167.094 140.592C167.982 141.379 168.617 142.412 168.918 143.56C169.322 145.099 169.097 146.736 168.294 148.11C167.491 149.483 166.175 150.482 164.636 150.885Z" fill="url(#paint0_linear_537_800)"/>
<path fill-rule="evenodd" clip-rule="evenodd" d="M191.127 38.8524C191.682 38.0244 192.804 37.8033 193.632 38.3585L207.124 47.4062C207.952 47.9614 208.173 49.0827 207.618 49.9107C207.062 50.7386 205.941 50.9597 205.113 50.4045L195.24 43.7838L209.773 117.487L241.907 86.263L242.656 87.2656L242.688 87.1409L269.678 97.9069L310.996 36.4149L313.657 38.8534L271.159 102.103L270.675 101.66L270.559 102.113L242.323 90.8498L210.599 121.675L219.974 169.221L358.407 141.358C359.384 141.161 360.335 141.794 360.531 142.772C360.727 143.749 360.093 144.701 359.116 144.898L219.383 173.022C218.715 173.157 218.059 172.904 217.648 172.418C217.161 172.178 216.788 171.721 216.675 171.147L206.81 121.118L206.484 120.682L206.685 120.487L191.698 44.4822L185.078 54.3552C184.523 55.1831 183.401 55.4042 182.573 54.849C181.745 54.2938 181.524 53.1725 182.08 52.3446L191.127 38.8524Z" fill="url(#paint1_linear_537_800)"/>
<path d="M43.8483 73.3624L49.0606 59.2971M71.9789 83.7869L77.1912 69.7216M71.7643 118.9L67.0733 131.559L16.4382 112.795L19.5655 104.356M80.2397 94.8465L29.5737 76.071M11.387 100.525L11.1264 101.229L61.4801 119.888L62.1627 119.341L63.3328 118.204C72.2809 109.496 79.175 98.9023 83.5137 87.1943L85.8373 80.924L35.2022 62.16L32.9839 68.1462C28.6118 79.9447 21.645 90.6103 12.598 99.3552L11.387 100.525Z" stroke="url(#paint2_linear_537_800)" stroke-width="3"/>
<path d="M103 58.5V53.5M120.5 71V66M138 51V46M103 38.5V33.5M120.5 51V46M138 31V26M108 40V52C108 52.3978 107.842 52.7794 107.561 53.0607C107.279 53.342 106.898 53.5 106.5 53.5H99.5C99.1022 53.5 98.7206 53.342 98.4393 53.0607C98.158 52.7794 98 52.3978 98 52V40C98 39.6022 98.158 39.2206 98.4393 38.9393C98.7206 38.658 99.1022 38.5 99.5 38.5H106.5C106.898 38.5 107.279 38.658 107.561 38.9393C107.842 39.2206 108 39.6022 108 40ZM125.5 52.5V64.5C125.5 64.8978 125.342 65.2794 125.061 65.5607C124.779 65.842 124.398 66 124 66H117C116.602 66 116.221 65.842 115.939 65.5607C115.658 65.2794 115.5 64.8978 115.5 64.5V52.5C115.5 52.1022 115.658 51.7206 115.939 51.4393C116.221 51.158 116.602 51 117 51H124C124.398 51 124.779 51.158 125.061 51.4393C125.342 51.7206 125.5 52.1022 125.5 52.5ZM143 32.5V44.5C143 44.8978 142.842 45.2794 142.561 45.5607C142.279 45.842 141.898 46 141.5 46H134.5C134.303 46 134.108 45.9612 133.926 45.8858C133.744 45.8104 133.579 45.6999 133.439 45.5607C133.3 45.4214 133.19 45.256 133.114 45.074C133.039 44.892 133 44.697 133 44.5V32.5C133 32.303 133.039 32.108 133.114 31.926C133.19 31.744 133.3 31.5786 133.439 31.4393C133.579 31.3001 133.744 31.1896 133.926 31.1142C134.108 31.0388 134.303 31 134.5 31H141.5C141.898 31 142.279 31.158 142.561 31.4393C142.842 31.7206 143 32.1022 143 32.5Z" stroke="url(#paint3_linear_537_800)" stroke-width="3.75" stroke-linecap="round" stroke-linejoin="round"/>
</g>
<rect x="0.5" y="0.5" width="318" height="182" rx="14.5" stroke="#C3C2C2"/>
<defs>
<linearGradient id="paint0_linear_537_800" x1="160" y1="164" x2="115.5" y2="94" gradientUnits="userSpaceOnUse">
<stop stop-color="#B82626"/>
<stop offset="1" stop-color="#F95454"/>
</linearGradient>
<linearGradient id="paint1_linear_537_800" x1="214.804" y1="173.921" x2="349.02" y2="84.6492" gradientUnits="userSpaceOnUse">
<stop stop-color="#B82626"/>
<stop offset="1" stop-color="#F95454"/>
</linearGradient>
<linearGradient id="paint2_linear_537_800" x1="85.0109" y1="82.0992" x2="6.89515" y2="93.7258" gradientUnits="userSpaceOnUse">
<stop stop-color="#B82626"/>
<stop offset="1" stop-color="#F95454"/>
</linearGradient>
<linearGradient id="paint3_linear_537_800" x1="142.5" y1="26.5" x2="106.5" y2="95" gradientUnits="userSpaceOnUse">
<stop stop-color="#B82626"/>
<stop offset="1" stop-color="#F95454"/>
</linearGradient>
<clipPath id="clip0_537_800">
<rect width="319" height="183" rx="15" fill="white"/>
</clipPath>
</defs>
</svg>
