<svg width="319" height="183" viewBox="0 0 319 183" fill="none" xmlns="http://www.w3.org/2000/svg">
<g clip-path="url(#clip0_536_677)">
<rect width="319" height="183" rx="15" fill="white"/>
<path fill-rule="evenodd" clip-rule="evenodd" d="M-38.448 -20.896L132.2 4.31585C136.297 4.92124 139.128 8.73382 138.523 12.8315L137.554 19.3906L-47.9327 -8.01356L-46.9636 -14.5727C-46.3582 -18.6703 -42.5457 -21.5014 -38.448 -20.896ZM-52.1905 -4.85192L-61.8543 60.5577C-62.7623 66.7042 -58.5158 72.4231 -52.3693 73.3312L32.5383 85.8756L34.7642 86.2045L118.278 98.543C124.425 99.4511 130.144 95.2046 131.052 89.0581L132.204 81.2585L132.205 81.2587L132.534 79.0328L132.533 79.0327L135.122 61.5061L135.123 61.5062L135.452 59.2804L135.451 59.2803L138.041 41.7542L138.041 41.7543L138.37 39.5284L138.369 39.5284L142.233 13.3796C143.141 7.23307 138.894 1.51421 132.748 0.606113L-37.8999 -24.6057C-44.0464 -25.5138 -49.7653 -21.2673 -50.6734 -15.1208L-51.6424 -8.56165L-51.6431 -8.56175L-52.1912 -4.85202L-52.1905 -4.85192ZM35.3123 82.4947L118.826 94.8333C122.924 95.4387 126.737 92.6076 127.342 88.51L128.494 80.7104L37.5607 67.2757L35.3123 82.4947ZM37.8896 65.0499L128.823 78.4846L131.413 60.958L40.479 47.5233L37.8896 65.0499ZM38.2532 47.1945L35.6638 64.721L-56.6634 51.0804L-54.0739 33.5539L38.2532 47.1945ZM40.8079 45.2975L131.741 58.7322L134.331 41.2061L43.3972 27.7714L40.8079 45.2975ZM41.1714 27.4426L38.582 44.9686L-53.7451 31.328L-51.1558 13.802L41.1714 27.4426ZM43.726 25.5456L134.66 38.9803L137.006 23.1003L46.0722 9.66562L43.726 25.5456ZM43.8463 9.33677L41.5002 25.2167L-50.8269 11.5761L-48.4808 -4.30383L43.8463 9.33677ZM35.3349 66.9469L33.0864 82.1659L-51.8212 69.6214C-55.9189 69.0161 -58.7499 65.2035 -58.1445 61.1058L-56.9922 53.3063L35.3349 66.9469Z" fill="url(#paint0_linear_536_677)"/>
<path fill-rule="evenodd" clip-rule="evenodd" d="M259.077 176.847L225.718 50.4154L239.98 46.6524L273.339 173.084L259.077 176.847ZM226.195 60.0636C225.949 59.9965 225.683 59.9912 225.419 60.0609L210.19 64.0791C209.389 64.2904 208.911 65.1111 209.122 65.9121L217.21 96.5638C216.964 96.4967 216.697 96.4914 216.433 96.5611L201.204 100.579C200.403 100.791 199.925 101.611 200.137 102.412L208.607 134.514C208.361 134.447 208.095 134.442 207.831 134.512L192.965 138.434L170.506 53.313L176.908 57.0421C177.445 57.3548 178.134 57.173 178.446 56.6362C178.759 56.0993 178.577 55.4105 178.04 55.0978L169.291 50.0018C168.754 49.6891 168.066 49.8708 167.753 50.4077L162.657 59.1568C162.344 59.6937 162.526 60.3824 163.063 60.6951C163.6 61.0078 164.288 60.8261 164.601 60.2892L168.33 53.887L204.762 191.963C204.886 192.434 205.29 192.755 205.749 192.797L205.859 193.216L381.636 146.837L377.907 153.239C377.594 153.776 377.776 154.465 378.313 154.777C378.85 155.09 379.539 154.908 379.851 154.371L384.947 145.622C385.26 145.086 385.078 144.397 384.541 144.084L375.792 138.988C375.256 138.675 374.567 138.857 374.254 139.394C373.941 139.931 374.123 140.62 374.66 140.932L381.062 144.661L344.89 154.205L321.353 64.9995C321.142 64.1985 320.321 63.7204 319.52 63.9318L304.291 67.9499C303.49 68.1613 303.012 68.982 303.224 69.783L305.762 79.4044C305.516 79.3373 305.25 79.332 304.986 79.4017L289.757 83.4198C289.493 83.4895 289.264 83.6255 289.083 83.8052L285.205 69.1075C284.994 68.3065 284.173 67.8285 283.372 68.0399L268.143 72.058C267.879 72.1277 267.65 72.2637 267.469 72.4434L263.974 59.1961C263.762 58.3951 262.942 57.917 262.141 58.1284L246.912 62.1465C246.648 62.2162 246.419 62.3522 246.238 62.5319L241.786 45.6587C241.575 44.8577 240.754 44.3797 239.953 44.591L224.724 48.6092C223.923 48.8205 223.445 49.6412 223.656 50.4422L226.195 60.0636ZM342.956 154.716L328.695 158.479L305.285 69.7562L319.547 65.9932L342.956 154.716ZM305.013 81.4631L325.552 159.308L311.29 163.071L290.751 85.2261L305.013 81.4631ZM308.148 163.9L293.886 167.663L269.137 73.8643L283.399 70.1012L308.148 163.9ZM262.168 60.1898L290.743 168.492L276.481 172.255L247.906 63.9528L262.168 60.1898ZM225.445 62.1223L255.935 177.676L241.673 181.439L211.184 65.8853L225.445 62.1223ZM238.53 182.269L224.268 186.032L202.198 102.386L216.46 98.6225L238.53 182.269ZM207.857 136.573L221.126 186.861L206.864 190.624L193.595 140.336L207.857 136.573Z" fill="url(#paint1_linear_536_677)"/>
<path d="M116.118 162.591C116.037 162.201 115.806 161.859 115.473 161.641C115.141 161.422 114.735 161.344 114.346 161.424L74.6787 169.596L66.4963 129.876C66.416 129.486 66.1843 129.145 65.852 128.926C65.5197 128.707 65.1141 128.629 64.7245 128.71C41.2328 133.549 26.0506 156.571 30.8833 180.03C35.8939 204.353 58.0166 218.918 82.3399 213.908C105.003 209.239 120.787 185.257 116.118 162.591ZM33.8216 179.425C29.4235 158.075 42.8319 137.119 63.8661 131.977L72.0431 171.67C72.2101 172.481 73.0039 173.004 73.804 172.784L113.442 164.619C116.841 185.329 102.344 206.724 81.7346 210.969C59.0861 215.635 38.4878 202.076 33.8216 179.425Z" fill="#4486A7"/>
<path d="M80.8006 162.154L121.934 153.68C122.756 153.566 123.27 152.719 123.103 151.908C118.264 128.416 95.2128 113.24 71.7211 118.079C71.3315 118.159 70.9897 118.391 70.7709 118.723C70.5521 119.056 70.4743 119.461 70.5546 119.851L79.0397 161.04C79.2067 161.851 80.0005 162.374 80.8006 162.154ZM73.801 120.741C94.711 117.227 114.904 130.56 119.856 151.1L81.6753 158.966L73.801 120.741Z" fill="#4486A7"/>
</g>
<rect x="0.5" y="0.5" width="318" height="182" rx="14.5" stroke="#C3C2C2"/>
<defs>
<linearGradient id="paint0_linear_536_677" x1="146.5" y1="80" x2="2.99999" y2="-7" gradientUnits="userSpaceOnUse">
<stop offset="0.04" stop-color="#B82626"/>
<stop offset="0.415" stop-color="#41748D"/>
<stop offset="1" stop-color="#51ABD8"/>
</linearGradient>
<linearGradient id="paint1_linear_536_677" x1="261" y1="167" x2="172.5" y2="65.5" gradientUnits="userSpaceOnUse">
<stop stop-color="#CA5353"/>
<stop offset="1" stop-color="#F26F6F"/>
</linearGradient>
<clipPath id="clip0_536_677">
<rect width="319" height="183" rx="15" fill="white"/>
</clipPath>
</defs>
</svg>
