<svg width="387" height="107" viewBox="0 0 387 107" fill="none" xmlns="http://www.w3.org/2000/svg">
<path d="M11.3031 -59.3927C12.1829 -65.3469 17.5772 -69.5179 23.5014 -68.9474L24.0766 -68.877L194.724 -43.6651L195.295 -43.5665C201.131 -42.3994 205.089 -36.8459 204.209 -30.8917L200.345 -4.74423L200.346 -4.74326L200.017 -2.51767L197.427 15.0077L197.428 15.0087L197.099 17.2343L194.508 34.7607L194.51 34.7616L194.181 36.9872L194.18 36.9862L193.028 44.786L192.929 45.3573C191.8 51.0051 186.563 54.8939 180.829 54.3417L180.254 54.2714L9.60683 29.0595L9.03652 28.9608C3.38869 27.8316 -0.49997 22.5943 0.0521458 16.8612L0.122458 16.286L11.3031 -59.3927ZM97.2885 38.2226L180.803 50.5614C184.901 51.1666 188.713 48.3357 189.319 44.2382L190.47 36.4384L99.5365 23.0028L97.2885 38.2226ZM3.83144 16.8339C3.22607 20.9314 6.05729 24.7439 10.1547 25.3495L95.0629 37.8935L97.3109 22.6737L4.98281 9.03311L3.83144 16.8339ZM99.8656 20.7773L190.799 34.2128L193.388 16.6855L102.455 3.25089L99.8656 20.7773ZM5.31191 6.8085L97.64 20.4491L100.23 2.92178L7.90078 -10.7188L5.31191 6.8085ZM102.784 1.0253L193.716 14.4599L196.306 -3.0665L105.373 -16.5011L102.784 1.0253ZM8.22988 -12.9435L100.558 0.696198L103.148 -16.8302L10.8197 -30.4698L8.22988 -12.9435ZM105.702 -18.7267L196.635 -5.29208L198.982 -21.172L108.048 -34.6075L105.702 -18.7267ZM11.1488 -32.6954L103.476 -19.0558L105.823 -34.9356L13.4955 -48.5763L11.1488 -32.6954ZM23.5287 -65.1681C19.4312 -65.7734 15.6187 -62.9422 15.0131 -58.8448L14.0434 -52.2852L199.53 -24.8819L200.499 -31.4405C201.086 -35.4101 198.447 -39.112 194.556 -39.8897L194.176 -39.9561L23.5287 -65.1681Z" fill="url(#paint0_linear_779_199)"/>
<path d="M302.079 0.28792C302.83 0.169208 303.565 0.635662 303.763 1.38655L308.215 18.2606C308.362 18.115 308.54 17.9979 308.743 17.9217L308.889 17.8748L324.118 13.8563L324.268 13.825C325.019 13.7065 325.752 14.1738 325.951 14.9246L329.446 28.1727C329.592 28.0267 329.771 27.9092 329.974 27.8328L330.119 27.786L345.349 23.7684L345.498 23.7362C346.249 23.6174 346.984 24.0848 347.182 24.8358L351.06 39.534C351.206 39.3883 351.384 39.2704 351.587 39.1942L351.734 39.1483L366.962 35.1297L367.113 35.0985C367.327 35.0646 367.539 35.0792 367.739 35.1336L365.201 25.5116C365.002 24.7606 365.41 23.9917 366.121 23.7244L366.268 23.6776L381.496 19.66L381.647 19.6287C382.398 19.51 383.131 19.9766 383.329 20.7274L406.866 109.931L443.039 100.389L436.636 96.66C436.1 96.3471 435.918 95.6586 436.231 95.1219C436.543 94.5853 437.232 94.4032 437.769 94.7157L446.519 99.8114C447.056 100.124 447.237 100.814 446.924 101.35L441.827 110.099C441.515 110.636 440.826 110.818 440.289 110.506C439.753 110.193 439.572 109.504 439.884 108.968L443.613 102.565L267.835 148.944L267.724 148.524C267.303 148.486 266.928 148.211 266.774 147.802L266.739 147.691L230.307 9.61507L226.577 16.0174C226.265 16.5541 225.576 16.7362 225.039 16.4237C224.503 16.1111 224.321 15.4224 224.633 14.8856L229.729 6.13558C230.041 5.59879 230.731 5.41685 231.268 5.72933L240.017 10.826C240.554 11.1387 240.736 11.8273 240.423 12.3641C240.111 12.9008 239.422 13.0827 238.885 12.7703L232.483 9.04085L254.941 94.161L269.807 90.2401L269.957 90.2078C270.172 90.174 270.384 90.1895 270.583 90.244L262.114 58.1405C261.915 57.3896 262.323 56.6217 263.034 56.3543L263.181 56.3075L278.409 52.2889L278.56 52.2576C278.774 52.2238 278.987 52.2384 279.186 52.2928L271.099 21.6405C270.901 20.8897 271.308 20.1217 272.02 19.8543L272.166 19.8075L287.395 15.7889L287.545 15.7576C287.759 15.7238 287.972 15.7384 288.171 15.7928L285.633 6.17073C285.435 5.41986 285.842 4.65094 286.554 4.38362L286.701 4.33772L301.929 0.31917L302.079 0.28792ZM255.572 96.0643L268.839 146.35L283.102 142.588L269.834 92.3016L255.572 96.0643ZM264.175 58.1141L286.244 141.758L300.506 137.995L278.437 54.3504L264.175 58.1141ZM273.16 21.6131L303.649 137.165L317.91 133.402L287.422 17.8504L273.16 21.6131ZM287.695 6.14339L321.053 132.572L335.315 128.809L301.956 2.38069L287.695 6.14339ZM309.882 19.6805L338.456 127.979L352.719 124.217L324.144 15.9178L309.882 19.6805ZM331.114 29.5926L355.862 123.388L370.123 119.625L345.375 25.8289L331.114 29.5926ZM352.727 40.9539L373.266 118.796L387.528 115.033L366.99 37.1912L352.727 40.9539ZM367.262 25.4842L390.67 114.204L404.932 110.441L381.524 21.7215L367.262 25.4842Z" fill="url(#paint1_linear_779_199)"/>
<path d="M178.092 118.319C178.012 117.93 177.78 117.588 177.448 117.369C177.116 117.15 176.71 117.073 176.32 117.153L136.653 125.324L128.471 85.6045C128.391 85.2149 128.159 84.8731 127.827 84.6543C127.494 84.4356 127.089 84.3578 126.699 84.438C103.207 89.2774 88.0252 112.299 92.8579 135.759C97.8685 160.082 119.991 174.647 144.314 169.636C166.978 164.967 182.761 140.986 178.092 118.319ZM95.7962 135.153C91.3981 113.804 104.807 92.8471 125.841 87.7054L134.018 127.399C134.185 128.21 134.979 128.732 135.779 128.513L175.416 120.347C178.816 141.057 164.318 162.452 143.709 166.698C121.061 171.363 100.462 157.805 95.7962 135.153Z" fill="#4486A7"/>
<path d="M142.775 117.882L183.908 109.409C184.73 109.294 185.245 108.447 185.078 107.636C180.239 84.1445 157.187 68.9683 133.696 73.8077C133.306 73.888 132.964 74.1197 132.746 74.452C132.527 74.7843 132.449 75.1899 132.529 75.5795L141.014 116.769C141.181 117.58 141.975 118.102 142.775 117.882ZM135.776 76.4698C156.686 72.9556 176.879 86.2885 181.83 106.829L143.65 114.694L135.776 76.4698Z" fill="#4486A7"/>
<defs>
<linearGradient id="paint0_linear_779_199" x1="208.477" y1="35.7285" x2="64.9766" y2="-51.2715" gradientUnits="userSpaceOnUse">
<stop offset="0.04" stop-color="#B82626"/>
<stop offset="0.415" stop-color="#41748D"/>
<stop offset="1" stop-color="#51ABD8"/>
</linearGradient>
<linearGradient id="paint1_linear_779_199" x1="322.977" y1="122.728" x2="234.477" y2="21.2281" gradientUnits="userSpaceOnUse">
<stop stop-color="#CA5353"/>
<stop offset="1" stop-color="#F26F6F"/>
</linearGradient>
</defs>
</svg>
