<svg width="319" height="183" viewBox="0 0 319 183" fill="none" xmlns="http://www.w3.org/2000/svg">
<g clip-path="url(#clip0_758_46)">
<rect width="319" height="183" rx="15" fill="white"/>
<path d="M207.78 36.2234C208.292 35.3679 209.4 35.0884 210.256 35.5995L224.202 43.9305C225.058 44.4418 225.337 45.5502 224.826 46.4058C224.315 47.2615 223.207 47.5407 222.351 47.0298L212.145 40.9332L230.507 113.777L260.966 80.918L261.767 81.8814L261.793 81.7539L289.307 91.0952L327.358 27.5295L330.143 29.8265L291.006 95.209L290.499 94.791L290.407 95.2502L261.622 85.4771L231.551 117.917L243.396 164.908L380.185 129.855C381.151 129.607 382.134 130.189 382.38 131.155C382.626 132.121 382.043 133.104 381.078 133.352L243.004 168.735L242.823 168.772C242.225 168.863 241.639 168.643 241.244 168.223C240.796 168.032 240.431 167.663 240.256 167.181L240.202 167.004L227.738 117.557L227.39 117.14L227.581 116.933L208.645 41.8155L202.549 52.0215C202.037 52.877 200.929 53.1566 200.073 52.6454C199.218 52.1342 198.939 51.0258 199.449 50.1701L207.78 36.2234Z" fill="url(#paint0_linear_758_46)"/>
<path d="M136.549 111.422L148.933 116.796M168.444 114.227L172.475 104.939C172.832 104.118 172.847 103.189 172.519 102.356C172.19 101.524 171.544 100.856 170.723 100.5L164.531 97.8121C163.71 97.4557 162.781 97.4401 161.948 97.7687C161.116 98.0973 160.448 98.7432 160.091 99.5644L156.06 108.852M168.444 114.227C169.265 114.584 169.911 115.251 170.24 116.084C170.568 116.917 170.553 117.846 170.196 118.667L167.079 125.849C164.57 131.63 168.65 139.184 166.782 143.487L161.607 155.41C160.895 157.052 159.559 158.344 157.893 159.001C156.228 159.658 154.37 159.627 152.728 158.914L140.344 153.54C138.702 152.827 137.41 151.491 136.753 149.826C136.096 148.16 136.127 146.302 136.84 144.66L151.621 110.605C151.977 109.783 152.645 109.138 153.477 108.809C154.31 108.48 155.239 108.496 156.06 108.852M168.444 114.227L156.06 108.852M165.639 146.122L103.719 119.248M125.101 95.415C124.279 95.0587 123.35 95.0431 122.518 95.3717C121.685 95.7003 121.017 96.3462 120.661 97.1673L117.543 104.35C115.035 110.13 106.73 112.31 104.863 116.613L99.688 128.536C98.9752 130.178 98.944 132.036 99.6012 133.701C100.258 135.366 101.55 136.702 103.192 137.415L115.576 142.79C117.219 143.503 119.077 143.534 120.742 142.877C122.407 142.219 123.743 140.928 124.456 139.285L139.237 105.23C139.593 104.409 139.609 103.479 139.28 102.647C138.951 101.814 138.306 101.146 137.484 100.79M125.101 95.415L137.484 100.79M125.101 95.415L129.132 86.1271C129.488 85.306 130.156 84.6601 130.989 84.3315C131.821 84.0029 132.75 84.0185 133.571 84.3749L139.763 87.0623C140.584 87.4187 141.23 88.0867 141.559 88.9193C141.888 89.7519 141.872 90.6809 141.516 91.502L137.484 100.79" stroke="url(#paint1_linear_758_46)" stroke-width="3" stroke-linecap="round" stroke-linejoin="round"/>
<g clip-path="url(#clip1_758_46)">
<path d="M95.0142 43.1995L93.6562 43.6213L93.0308 43.3066C94.146 40.7439 94.3024 37.8656 93.4715 35.1971C92.7852 32.9871 91.459 31.0303 89.6606 29.5741C87.8622 28.1179 85.6723 27.2277 83.368 27.0161C81.0636 26.8044 78.7483 27.2808 76.7147 28.3851C74.6811 29.4893 73.0207 31.1718 71.9433 33.2197C70.8659 35.2677 70.42 37.5891 70.662 39.8904C70.904 42.1918 71.8229 44.3697 73.3027 46.1488C74.7825 47.9279 76.7565 49.2282 78.9753 49.8853C81.1941 50.5425 83.5579 50.5269 85.7678 49.8406C88.5354 48.9811 90.7646 47.1768 92.2011 44.8836L92.8147 45.2208L93.2365 46.5788L104.495 52.4875L106.261 49.1308L95.0142 43.1995ZM84.7002 46.4026C80.4198 47.7319 75.8916 45.3497 74.5623 41.0693C73.233 36.789 75.6152 32.2607 79.8956 30.9314C84.1759 29.6022 88.7042 31.9844 90.0334 36.2647C91.3627 40.5451 88.9805 45.0733 84.7002 46.4026Z" fill="url(#paint2_linear_758_46)"/>
</g>
<path d="M21.8953 125.306L20.9752 120.391M41.3967 134.372L40.4766 129.457M54.9174 111.493L53.9973 106.579M18.2149 105.647L17.2948 100.733M37.7163 114.714L36.7962 109.799M51.237 91.8348L50.3169 86.9202M23.4055 106.202L25.6138 117.997C25.687 118.388 25.6018 118.792 25.3771 119.12C25.1524 119.448 24.8064 119.674 24.4154 119.747L17.5349 121.035C17.1439 121.109 16.7398 121.023 16.4116 120.799C16.0833 120.574 15.8577 120.228 15.7845 119.837L13.5763 108.042C13.5031 107.651 13.5882 107.247 13.8129 106.919C14.0377 106.59 14.3836 106.365 14.7746 106.292L21.6551 105.003C22.0461 104.93 22.4502 105.015 22.7785 105.24C23.1068 105.465 23.3323 105.811 23.4055 106.202ZM42.9069 115.268L45.1152 127.063C45.1884 127.454 45.1032 127.858 44.8785 128.186C44.6538 128.515 44.3078 128.74 43.9168 128.813L37.0363 130.102C36.6453 130.175 36.2412 130.09 35.913 129.865C35.5847 129.64 35.3591 129.294 35.2859 128.903L33.0777 117.108C33.0045 116.717 33.0896 116.313 33.3143 115.985C33.5391 115.656 33.885 115.431 34.276 115.358L41.1565 114.07C41.5475 113.996 41.9516 114.081 42.2799 114.306C42.6082 114.531 42.8337 114.877 42.9069 115.268ZM56.4276 92.3891L58.6359 104.184C58.7091 104.575 58.624 104.979 58.3992 105.308C58.1745 105.636 57.8286 105.861 57.4375 105.935L50.5571 107.223C50.3635 107.259 50.1646 107.257 49.9718 107.216C49.7791 107.175 49.5962 107.097 49.4337 106.986C49.2711 106.875 49.1321 106.733 49.0245 106.568C48.9169 106.403 48.8429 106.218 48.8067 106.024L46.5984 94.2293C46.5622 94.0357 46.5644 93.8368 46.605 93.644C46.6456 93.4513 46.7238 93.2684 46.8351 93.1059C46.9463 92.9433 47.0886 92.8043 47.2536 92.6967C47.4186 92.5891 47.6032 92.5151 47.7968 92.4789L54.6772 91.1907C55.0683 91.1175 55.4724 91.2026 55.8006 91.4274C56.1289 91.6521 56.3544 91.998 56.4276 92.3891Z" stroke="url(#paint3_linear_758_46)" stroke-width="3.75" stroke-linecap="round" stroke-linejoin="round"/>
</g>
<rect x="0.5" y="0.5" width="318" height="182" rx="14.5" stroke="#C3C2C2"/>
<defs>
<linearGradient id="paint0_linear_758_46" x1="238.479" y1="169.872" x2="271.5" y2="51.9999" gradientUnits="userSpaceOnUse">
<stop stop-color="#63C769"/>
<stop offset="1" stop-color="#69E370"/>
</linearGradient>
<linearGradient id="paint1_linear_758_46" x1="152.147" y1="92.4372" x2="127.96" y2="148.165" gradientUnits="userSpaceOnUse">
<stop stop-color="#68E270"/>
<stop offset="1" stop-color="#60BB66"/>
</linearGradient>
<linearGradient id="paint2_linear_758_46" x1="82.6871" y1="26.2949" x2="83.2198" y2="53.9334" gradientUnits="userSpaceOnUse">
<stop stop-color="#C3D500"/>
<stop offset="1" stop-color="#E2F601"/>
</linearGradient>
<linearGradient id="paint3_linear_758_46" x1="33.1158" y1="90.1405" x2="41.3967" y2="134.372" gradientUnits="userSpaceOnUse">
<stop stop-color="#E2F601"/>
<stop offset="1" stop-color="#C3D500"/>
</linearGradient>
<clipPath id="clip0_758_46">
<rect width="319" height="183" rx="15" fill="white"/>
</clipPath>
<clipPath id="clip1_758_46">
<rect width="57.6" height="57.6" fill="white" transform="translate(63 27.083) rotate(-17.2522)"/>
</clipPath>
</defs>
</svg>
