<svg width="326" height="199" viewBox="0 0 326 199" fill="none" xmlns="http://www.w3.org/2000/svg">
<path d="M249.431 33.7301C245.518 31.5996 240.259 30.0668 234.469 29.3461V26.7656C234.469 22.5047 231.101 18.6445 224.977 15.8918C219.408 13.3816 212.039 12 204.234 12C196.43 12 189.061 13.3816 183.492 15.8918C177.368 18.6445 174 22.5047 174 26.7656V40.8281C174 45.0891 177.368 48.9492 183.492 51.702C187.18 53.3613 191.652 54.5145 196.5 55.1227V57.7031C196.5 61.9641 199.868 65.8242 205.992 68.577C211.561 71.0871 218.93 72.4688 226.734 72.4688C234.539 72.4688 241.908 71.0871 247.477 68.577C253.59 65.8242 256.969 61.9641 256.969 57.7031V43.6406C256.969 39.8965 254.293 36.3773 249.431 33.7301ZM247.413 37.4355C250.855 39.3094 252.75 41.5312 252.75 43.6406C252.75 48.6293 242.066 54.1875 226.734 54.1875C224.241 54.1889 221.751 54.0316 219.278 53.7164C221.227 53.1933 223.132 52.5198 224.977 51.702C231.09 48.9492 234.469 45.0891 234.469 40.8281V33.5965C239.531 34.275 244.066 35.6109 247.413 37.4355ZM208.509 51.2273C207.131 51.3223 205.697 51.375 204.234 51.375C202.371 51.375 200.578 51.2906 198.862 51.1395C198.819 51.1354 198.776 51.1354 198.732 51.1395C197.474 51.0234 196.271 50.8688 195.094 50.6824V40.8703C198.12 41.3137 201.175 41.5346 204.234 41.5312C207.293 41.5346 210.348 41.3137 213.375 40.8703V50.6719C211.849 50.9145 210.243 51.1008 208.562 51.2203L208.509 51.2273ZM230.25 34.4613V40.8281C230.25 44.182 225.416 47.7891 217.594 49.7965V40.0723C220.127 39.5003 222.599 38.6856 224.977 37.6395C226.867 36.8183 228.641 35.7496 230.25 34.4613ZM204.234 16.2188C219.566 16.2188 230.25 21.777 230.25 26.7656C230.25 31.7543 219.566 37.3125 204.234 37.3125C188.903 37.3125 178.219 31.7543 178.219 26.7656C178.219 21.777 188.903 16.2188 204.234 16.2188ZM178.219 40.8281V34.4613C179.829 35.7446 181.602 36.8086 183.492 37.6254C185.869 38.6716 188.342 39.4863 190.875 40.0582V49.7824C183.053 47.7891 178.219 44.182 178.219 40.8281ZM200.719 57.7031V55.4953C201.879 55.5586 203.05 55.5938 204.234 55.5938C205.62 55.5938 206.986 55.5504 208.334 55.4637C209.983 56.0588 211.666 56.553 213.375 56.9437V66.6715C205.553 64.6641 200.719 61.057 200.719 57.7031ZM217.594 67.5469V57.7383C220.62 58.1841 223.675 58.4073 226.734 58.4062C229.793 58.4096 232.848 58.1887 235.875 57.7453V67.5469C229.817 68.4844 223.651 68.4844 217.594 67.5469ZM240.094 66.6715V56.9473C242.627 56.3753 245.099 55.5606 247.477 54.5145C249.367 53.6977 251.14 52.6337 252.75 51.3504V57.7031C252.75 61.057 247.916 64.6641 240.094 66.6715Z" fill="url(#paint0_linear_880_11)"/>
<path d="M5.77756 122.557L5.31028 122.074C4.95877 121.711 4.68224 121.282 4.49646 120.812C4.31069 120.342 4.21931 119.84 4.22754 119.335C4.23577 118.83 4.34345 118.331 4.54444 117.867C4.74542 117.403 5.03578 116.984 5.39892 116.632C5.76206 116.281 6.19088 116.004 6.6609 115.818C7.13091 115.633 7.63292 115.541 8.13825 115.549C8.64358 115.558 9.14234 115.665 9.60605 115.866C10.0698 116.067 10.4894 116.358 10.8409 116.721L11.3049 117.203C12.229 116.406 13.4232 115.991 14.6428 116.046C15.8624 116.1 17.0149 116.619 17.8642 117.496L50.1442 150.823C50.3449 151.031 50.4851 151.29 50.5498 151.572L53.533 164.371C53.5952 164.639 53.587 164.918 53.5092 165.182C53.4315 165.446 53.2868 165.685 53.0893 165.876C52.8918 166.068 52.6481 166.205 52.382 166.274C52.1159 166.343 51.8365 166.342 51.5707 166.272L38.8733 162.881C38.5948 162.806 38.3415 162.658 38.1406 162.451L7.90223 131.23C7.68101 131.534 7.57431 131.906 7.60098 132.281C7.62764 132.656 7.78597 133.009 8.04798 133.279L18.3752 143.939C18.521 144.089 18.6358 144.267 18.7128 144.462C18.7899 144.657 18.8279 144.865 18.8245 145.074C18.8212 145.284 18.7766 145.491 18.6933 145.683C18.61 145.875 18.4897 146.049 18.3392 146.195C18.1886 146.341 18.0109 146.456 17.816 146.533C17.6211 146.61 17.413 146.648 17.2034 146.644C16.9939 146.641 16.7871 146.596 16.5948 146.513C16.4025 146.43 16.2285 146.31 16.0827 146.159L5.75872 135.493C4.90888 134.615 4.4271 133.446 4.41225 132.225C4.39741 131.003 4.85062 129.822 5.67888 128.924C4.91027 128.036 4.4955 126.896 4.5137 125.722C4.5319 124.547 4.98179 123.421 5.77756 122.557ZM8.18604 124.648C7.88251 124.942 7.70821 125.345 7.70145 125.767C7.69469 126.19 7.85603 126.598 8.14999 126.901L40.1225 159.92L49.8265 162.511L47.5474 152.729L15.5749 119.71C15.4292 119.56 15.2553 119.439 15.063 119.356C14.8706 119.272 14.6638 119.227 14.4542 119.224C14.2445 119.221 14.0363 119.259 13.8415 119.336C13.6466 119.413 13.4688 119.528 13.3184 119.674L8.18604 124.648Z" fill="#5FB865"/>
<path d="M291.462 86.9274C298.219 85.5697 304.863 89.8429 306.4 96.6021L308.096 104.062L308.102 104.061L309.044 108.205L309.039 108.206L322.609 167.882L322.678 168.204C324.014 174.854 319.897 181.394 313.323 183.065L313.003 183.142L216.858 205.005L216.536 205.074C209.887 206.41 203.346 202.293 201.675 195.719L201.598 195.399L185.39 124.119C183.853 117.36 187.996 110.634 194.675 108.936L194.995 108.859L291.14 86.9966L291.462 86.9274ZM192.173 134.781L205.742 194.457C206.783 199.034 211.338 201.901 215.916 200.86L312.061 178.998C316.638 177.957 319.505 173.402 318.464 168.824L304.895 109.149L192.173 134.781ZM195.937 113.004C191.36 114.045 188.493 118.599 189.534 123.177L191.23 130.637L303.952 105.004L302.256 97.5445C301.215 92.9669 296.66 90.0999 292.083 91.1408L195.937 113.004Z" fill="url(#paint1_linear_880_11)"/>
<path d="M211.303 156.501L210.653 153.642L217.106 148.67C217.404 148.446 217.699 148.248 217.991 148.077C218.296 147.885 218.536 147.752 218.711 147.678C218.521 147.686 218.251 147.686 217.901 147.679C217.546 147.655 217.195 147.604 216.846 147.526L208.872 145.809L208.21 142.9L220.543 145.614L221.25 148.722L211.303 156.501Z" fill="#5FB865"/>
<path d="M118.158 88.4077L122.97 109.378L138.04 94.8827L118.158 88.4077Z" fill="url(#paint2_linear_880_11)"/>
<circle cx="127.193" cy="97.1931" r="22.1931" stroke="url(#paint3_linear_880_11)" stroke-width="4"/>
<path d="M76.0707 49.474C73.5054 50.1451 71.2364 51.6512 69.6217 53.7545L59.5269 49.4232C59.7794 47.8065 59.6948 46.155 59.2786 44.5726C59.2082 44.3041 59.1378 44.0357 59.0393 43.7785L63.4189 40.9206C65.5512 42.8641 68.3123 43.9744 71.1964 44.048C74.0806 44.1217 76.8947 43.1537 79.1234 41.3215C81.352 39.4893 82.846 36.9155 83.3316 34.0716C83.8171 31.2277 83.2618 28.304 81.7674 25.8361C80.2729 23.3682 77.9394 21.5214 75.1942 20.6338C72.449 19.7463 69.4759 19.8776 66.8196 21.0035C64.1633 22.1294 62.0015 24.1747 60.7303 26.7647C59.4591 29.3546 59.1636 32.3159 59.8979 35.106C59.9682 35.3744 60.0386 35.6428 60.1371 35.9L55.7575 38.758C54.279 37.4074 52.4861 36.4483 50.5421 35.9681C48.598 35.4878 46.5647 35.5017 44.6274 36.0084C43.9873 36.1777 43.362 36.3987 42.7577 36.6692L38.8081 31.7191C40.5016 29.4456 41.3356 26.6459 41.1621 23.8162C40.9887 20.9865 39.819 18.3097 37.8604 16.26C35.9018 14.2104 33.2808 12.9204 30.4619 12.6186C27.643 12.3169 24.8084 13.0229 22.4603 14.6115C20.1122 16.2001 18.4024 18.5687 17.6339 21.2975C16.8654 24.0263 17.0879 26.9391 18.2618 29.5196C19.4358 32.1001 21.4854 34.1816 24.0475 35.3953C26.6096 36.6089 29.5186 36.8763 32.2589 36.1499C32.8991 35.9807 33.5244 35.7597 34.1287 35.4891L38.0745 40.4248C36.4071 42.6417 35.5615 45.3689 35.6821 48.1403C35.8027 50.9117 36.8822 53.5551 38.7359 55.6188L31.5822 66.349C28.8204 65.3821 25.8007 65.4557 23.0893 66.556C20.3778 67.6563 18.1607 69.7076 16.8536 72.3256C15.5464 74.9436 15.2389 77.9484 15.9887 80.7769C16.7385 83.6054 18.4941 86.0633 20.9265 87.69C23.3589 89.3166 26.3011 90.0003 29.2015 89.6129C32.1019 89.2255 34.7615 87.7936 36.6817 85.5856C38.6019 83.3776 39.6509 80.545 39.632 77.6189C39.6132 74.6928 38.5279 71.874 36.5794 69.6909L43.7332 58.9607C46.1089 59.7908 48.6859 59.8508 51.0977 59.1322C53.5095 58.4135 55.6333 56.9527 57.1671 54.9576L67.262 59.289C67.0103 60.9007 67.0935 62.547 67.5065 64.1251C68.1085 66.4209 69.3777 68.4866 71.1536 70.061C72.9296 71.6355 75.1325 72.6479 77.4839 72.9704C79.8353 73.2928 82.2295 72.9107 84.3637 71.8725C86.4979 70.8342 88.2763 69.1864 89.4741 67.1374C90.6718 65.0884 91.235 62.7303 91.0925 60.3612C90.95 57.9921 90.1082 55.7184 88.6735 53.8278C87.2389 51.9371 85.2758 50.5143 83.0325 49.7394C80.7892 48.9644 78.3665 48.872 76.0707 49.474ZM69.9838 26.2587C71.1317 25.9577 72.343 26.0039 73.4647 26.3914C74.5863 26.7789 75.5679 27.4903 76.2852 28.4356C77.0025 29.3809 77.4234 30.5177 77.4947 31.7023C77.5659 32.8868 77.2843 34.0659 76.6855 35.0904C76.0866 36.1149 75.1974 36.9388 74.1303 37.4579C73.0631 37.9771 71.8661 38.1681 70.6904 38.0069C69.5147 37.8457 68.4132 37.3394 67.5252 36.5522C66.6373 35.765 66.0027 34.7321 65.7017 33.5842C65.2981 32.045 65.5225 30.4084 66.3256 29.0346C67.1286 27.6608 68.4445 26.6623 69.9838 26.2587ZM23.4117 26.064C23.1107 24.9162 23.1569 23.7048 23.5443 22.5832C23.9318 21.4615 24.6432 20.48 25.5886 19.7626C26.5339 19.0453 27.6707 18.6244 28.8553 18.5531C30.0398 18.4819 31.2189 18.7635 32.2434 19.3624C33.2679 19.9612 34.0918 20.8504 34.6109 21.9175C35.13 22.9847 35.3211 24.1818 35.1599 25.3574C34.9986 26.5331 34.4924 27.6346 33.7052 28.5226C32.918 29.4106 31.8851 30.0452 30.7372 30.3461C29.1979 30.7497 27.5614 30.5253 26.1876 29.7223C24.8138 28.9192 23.8152 27.6033 23.4117 26.064ZM29.1624 83.4829C28.0145 83.7839 26.8031 83.7377 25.6815 83.3502C24.5598 82.9628 23.5783 82.2514 22.861 81.306C22.1436 80.3607 21.7227 79.2239 21.6515 78.0393C21.5802 76.8548 21.8618 75.6757 22.4607 74.6512C23.0596 73.6267 23.9488 72.8028 25.0159 72.2837C26.083 71.7646 27.2801 71.5735 28.4558 71.7347C29.6315 71.896 30.7329 72.4022 31.6209 73.1894C32.5089 73.9766 33.1435 75.0095 33.4445 76.1574C33.848 77.6966 33.6236 79.3332 32.8206 80.707C32.0175 82.0808 30.7016 83.0793 29.1624 83.4829ZM41.8671 49.1378C41.5661 47.9899 41.6123 46.7785 41.9998 45.6569C42.3873 44.5352 43.0987 43.5537 44.044 42.8363C44.9893 42.119 46.1261 41.6981 47.3107 41.6269C48.4952 41.5556 49.6743 41.8372 50.6988 42.4361C51.7233 43.035 52.5472 43.9242 53.0663 44.9913C53.5855 46.0584 53.7765 47.2555 53.6153 48.4312C53.4541 49.6069 52.9478 50.7083 52.1606 51.5963C51.3734 52.4843 50.3405 53.1189 49.1926 53.4199C47.6534 53.8234 46.0168 53.599 44.643 52.796C43.2692 51.9929 42.2707 50.677 41.8671 49.1378ZM80.6359 66.8854C79.488 67.1864 78.2766 67.1402 77.155 66.7527C76.0334 66.3653 75.0518 65.6539 74.3345 64.7085C73.6171 63.7632 73.1962 62.6264 73.125 61.4418C73.0537 60.2573 73.3354 59.0782 73.9342 58.0537C74.5331 57.0292 75.4223 56.2053 76.4894 55.6862C77.5565 55.1671 78.7536 54.976 79.9293 55.1372C81.105 55.2985 82.2065 55.8047 83.0944 56.5919C83.9824 57.3791 84.617 58.412 84.918 59.5599C85.3216 61.0992 85.0972 62.7357 84.2941 64.1095C83.4911 65.4833 82.1752 66.4818 80.6359 66.8854Z" fill="url(#paint4_linear_880_11)"/>
<defs>
<linearGradient id="paint0_linear_880_11" x1="174.297" y1="42.0469" x2="257.297" y2="34.0469" gradientUnits="userSpaceOnUse">
<stop stop-color="#5FB865"/>
<stop offset="1" stop-color="#69E571"/>
</linearGradient>
<linearGradient id="paint1_linear_880_11" x1="264.931" y1="194.073" x2="250.528" y2="96.2317" gradientUnits="userSpaceOnUse">
<stop stop-color="#5FB865"/>
<stop offset="1" stop-color="#69E571"/>
</linearGradient>
<linearGradient id="paint2_linear_880_11" x1="132.73" y1="103.803" x2="119.554" y2="86.8214" gradientUnits="userSpaceOnUse">
<stop stop-color="#5FB865"/>
<stop offset="1" stop-color="#69E671"/>
</linearGradient>
<linearGradient id="paint3_linear_880_11" x1="127.193" y1="73" x2="127.193" y2="121.386" gradientUnits="userSpaceOnUse">
<stop stop-color="#69E571"/>
<stop offset="1" stop-color="#5FB865"/>
</linearGradient>
<linearGradient id="paint4_linear_880_11" x1="37.7523" y1="9.89843" x2="72" y2="78" gradientUnits="userSpaceOnUse">
<stop stop-color="#5FB865"/>
<stop offset="1" stop-color="#69E571"/>
</linearGradient>
</defs>
</svg>
