<svg width="319" height="183" viewBox="0 0 319 183" fill="none" xmlns="http://www.w3.org/2000/svg">
<g clip-path="url(#clip0_540_848)">
<rect width="319" height="183" rx="15" fill="white"/>
<path d="M271.431 39.7301C267.518 37.5996 262.259 36.0668 256.469 35.3461V32.7656C256.469 28.5047 253.101 24.6445 246.977 21.8918C241.408 19.3816 234.039 18 226.234 18C218.43 18 211.061 19.3816 205.492 21.8918C199.368 24.6445 196 28.5047 196 32.7656V46.8281C196 51.0891 199.368 54.9492 205.492 57.702C209.18 59.3613 213.652 60.5145 218.5 61.1227V63.7031C218.5 67.9641 221.868 71.8242 227.992 74.577C233.561 77.0871 240.93 78.4688 248.734 78.4688C256.539 78.4688 263.908 77.0871 269.477 74.577C275.59 71.8242 278.969 67.9641 278.969 63.7031V49.6406C278.969 45.8965 276.293 42.3773 271.431 39.7301ZM269.413 43.4355C272.855 45.3094 274.75 47.5312 274.75 49.6406C274.75 54.6293 264.066 60.1875 248.734 60.1875C246.241 60.1889 243.751 60.0316 241.278 59.7164C243.227 59.1933 245.132 58.5198 246.977 57.702C253.09 54.9492 256.469 51.0891 256.469 46.8281V39.5965C261.531 40.275 266.066 41.6109 269.413 43.4355ZM230.509 57.2273C229.131 57.3223 227.697 57.375 226.234 57.375C224.371 57.375 222.578 57.2906 220.862 57.1395C220.819 57.1354 220.776 57.1354 220.732 57.1395C219.474 57.0234 218.271 56.8688 217.094 56.6824V46.8703C220.12 47.3137 223.175 47.5346 226.234 47.5312C229.293 47.5346 232.348 47.3137 235.375 46.8703V56.6719C233.849 56.9145 232.243 57.1008 230.562 57.2203L230.509 57.2273ZM252.25 40.4613V46.8281C252.25 50.182 247.416 53.7891 239.594 55.7965V46.0723C242.127 45.5003 244.599 44.6856 246.977 43.6395C248.867 42.8183 250.641 41.7496 252.25 40.4613ZM226.234 22.2188C241.566 22.2188 252.25 27.777 252.25 32.7656C252.25 37.7543 241.566 43.3125 226.234 43.3125C210.903 43.3125 200.219 37.7543 200.219 32.7656C200.219 27.777 210.903 22.2188 226.234 22.2188ZM200.219 46.8281V40.4613C201.829 41.7446 203.602 42.8086 205.492 43.6254C207.869 44.6716 210.342 45.4863 212.875 46.0582V55.7824C205.053 53.7891 200.219 50.182 200.219 46.8281ZM222.719 63.7031V61.4953C223.879 61.5586 225.05 61.5938 226.234 61.5938C227.62 61.5938 228.986 61.5504 230.334 61.4637C231.983 62.0588 233.666 62.553 235.375 62.9437V72.6715C227.553 70.6641 222.719 67.057 222.719 63.7031ZM239.594 73.5469V63.7383C242.62 64.1841 245.675 64.4073 248.734 64.4062C251.793 64.4096 254.848 64.1887 257.875 63.7453V73.5469C251.817 74.4844 245.651 74.4844 239.594 73.5469ZM262.094 72.6715V62.9473C264.627 62.3753 267.099 61.5606 269.477 60.5145C271.367 59.6977 273.14 58.6337 274.75 57.3504V63.7031C274.75 67.057 269.916 70.6641 262.094 72.6715Z" fill="url(#paint0_linear_540_848)"/>
<path d="M27.7776 128.556L27.3103 128.074C26.9588 127.711 26.6822 127.282 26.4965 126.812C26.3107 126.342 26.2193 125.84 26.2275 125.335C26.2358 124.829 26.3435 124.33 26.5444 123.867C26.7454 123.403 27.0358 122.983 27.3989 122.632C27.7621 122.28 28.1909 122.004 28.6609 121.818C29.1309 121.632 29.6329 121.541 30.1382 121.549C30.6436 121.557 31.1423 121.665 31.6061 121.866C32.0698 122.067 32.4894 122.357 32.8409 122.721L33.3049 123.203C34.229 122.405 35.4232 121.991 36.6428 122.046C37.8624 122.1 39.0149 122.619 39.8642 123.496L72.1442 156.822C72.3449 157.031 72.4851 157.29 72.5498 157.572L75.533 170.371C75.5952 170.639 75.587 170.918 75.5092 171.182C75.4315 171.446 75.2868 171.685 75.0893 171.876C74.8918 172.067 74.6481 172.204 74.382 172.274C74.1159 172.343 73.8365 172.342 73.5707 172.271L60.8733 168.88C60.5948 168.806 60.3415 168.658 60.1406 168.451L29.9022 137.23C29.681 137.533 29.5743 137.906 29.601 138.281C29.6276 138.656 29.786 139.009 30.048 139.279L40.3752 149.938C40.521 150.089 40.6358 150.267 40.7128 150.462C40.7899 150.656 40.8279 150.865 40.8245 151.074C40.8212 151.284 40.7766 151.49 40.6933 151.683C40.61 151.875 40.4897 152.049 40.3392 152.195C40.1886 152.341 40.0109 152.455 39.816 152.532C39.6211 152.61 39.413 152.647 39.2034 152.644C38.9939 152.641 38.7871 152.596 38.5948 152.513C38.4025 152.43 38.2285 152.309 38.0827 152.159L27.7587 141.493C26.9089 140.615 26.4271 139.446 26.4123 138.224C26.3974 137.003 26.8506 135.822 27.6789 134.924C26.9103 134.036 26.4955 132.896 26.5137 131.721C26.5319 130.547 26.9818 129.42 27.7776 128.556ZM30.186 130.648C29.8825 130.942 29.7082 131.345 29.7014 131.767C29.6947 132.19 29.856 132.598 30.15 132.901L62.1225 165.92L71.8265 168.511L69.5474 158.729L37.5749 125.71C37.4292 125.559 37.2553 125.439 37.063 125.355C36.8706 125.272 36.6638 125.227 36.4542 125.224C36.2445 125.221 36.0363 125.259 35.8415 125.336C35.6466 125.413 35.4688 125.528 35.3184 125.674L30.186 130.648Z" fill="#5FB865"/>
<path fill-rule="evenodd" clip-rule="evenodd" d="M217.937 119.004L314.083 97.1407C318.661 96.0998 323.215 98.9668 324.256 103.544L325.952 111.004L213.23 136.636L211.534 129.177C210.493 124.599 213.36 120.045 217.937 119.004ZM214.172 140.781L227.743 200.457C228.783 205.035 233.338 207.902 237.916 206.861L334.061 184.998C338.639 183.957 341.506 179.402 340.465 174.825L326.895 115.148L214.172 140.781ZM331.039 114.206L344.609 173.882C346.171 180.749 341.87 187.581 335.004 189.142L238.858 211.005C231.992 212.566 225.16 208.266 223.598 201.399L207.39 130.119C205.828 123.253 210.129 116.421 216.995 114.859L313.141 92.9965C320.007 91.4351 326.839 95.7357 328.4 102.602L330.097 110.062L330.102 110.06L331.044 114.205L331.039 114.206Z" fill="url(#paint1_linear_540_848)"/>
<path d="M233.303 162.501L232.653 159.642L239.106 154.67C239.404 154.445 239.699 154.248 239.991 154.076C240.296 153.885 240.536 153.752 240.711 153.677C240.521 153.686 240.251 153.686 239.901 153.679C239.546 153.655 239.195 153.604 238.846 153.526L230.872 151.809L230.21 148.9L242.543 151.613L243.25 154.721L233.303 162.501Z" fill="#5FB865"/>
<path d="M140.158 94.4075L144.97 115.378L160.04 100.883L140.158 94.4075Z" fill="url(#paint2_linear_540_848)"/>
<circle cx="149.193" cy="103.193" r="22.1931" stroke="url(#paint3_linear_540_848)" stroke-width="4"/>
<path d="M98.0707 55.474C95.5054 56.1451 93.2364 57.6512 91.6217 59.7545L81.5269 55.4232C81.7794 53.8065 81.6948 52.155 81.2786 50.5726C81.2082 50.3041 81.1378 50.0357 81.0393 49.7785L85.4189 46.9206C87.5512 48.8641 90.3123 49.9744 93.1964 50.048C96.0806 50.1217 98.8947 49.1537 101.123 47.3215C103.352 45.4893 104.846 42.9155 105.332 40.0716C105.817 37.2276 105.262 34.304 103.767 31.8361C102.273 29.3682 99.9394 27.5214 97.1942 26.6338C94.449 25.7463 91.4759 25.8776 88.8196 27.0035C86.1633 28.1294 84.0015 30.1747 82.7303 32.7647C81.4591 35.3546 81.1636 38.3159 81.8979 41.106C81.9682 41.3744 82.0386 41.6428 82.1371 41.9L77.7575 44.758C76.279 43.4074 74.4861 42.4483 72.5421 41.9681C70.598 41.4878 68.5647 41.5017 66.6274 42.0084C65.9873 42.1777 65.362 42.3987 64.7577 42.6692L60.8081 37.7191C62.5016 35.4456 63.3356 32.6459 63.1621 29.8162C62.9887 26.9865 61.819 24.3097 59.8604 22.26C57.9018 20.2104 55.2808 18.9204 52.4619 18.6186C49.643 18.3169 46.8084 19.0229 44.4603 20.6115C42.1122 22.2001 40.4024 24.5687 39.6339 27.2975C38.8654 30.0263 39.0879 32.9391 40.2618 35.5196C41.4358 38.1001 43.4854 40.1816 46.0475 41.3953C48.6096 42.6089 51.5186 42.8763 54.2589 42.1499C54.8991 41.9807 55.5244 41.7597 56.1287 41.4891L60.0745 46.4248C58.4071 48.6417 57.5615 51.3689 57.6821 54.1403C57.8027 56.9117 58.8822 59.5551 60.7359 61.6188L53.5822 72.349C50.8204 71.3821 47.8007 71.4557 45.0893 72.556C42.3778 73.6563 40.1607 75.7076 38.8536 78.3256C37.5464 80.9436 37.2389 83.9484 37.9887 86.7769C38.7385 89.6054 40.4941 92.0633 42.9265 93.69C45.3589 95.3166 48.3011 96.0003 51.2015 95.6129C54.1019 95.2255 56.7615 93.7936 58.6817 91.5856C60.6019 89.3776 61.6509 86.545 61.632 83.6189C61.6132 80.6928 60.5279 77.874 58.5794 75.6909L65.7332 64.9607C68.1089 65.7908 70.6859 65.8508 73.0977 65.1322C75.5095 64.4135 77.6333 62.9528 79.1671 60.9576L89.262 65.289C89.0103 66.9007 89.0935 68.547 89.5065 70.1251C90.1085 72.4209 91.3777 74.4866 93.1536 76.061C94.9296 77.6355 97.1325 78.6479 99.4839 78.9704C101.835 79.2928 104.229 78.9107 106.364 77.8725C108.498 76.8342 110.276 75.1864 111.474 73.1374C112.672 71.0884 113.235 68.7303 113.093 66.3612C112.95 63.9921 112.108 61.7184 110.674 59.8278C109.239 57.9371 107.276 56.5143 105.032 55.7394C102.789 54.9644 100.366 54.872 98.0707 55.474ZM91.9838 32.2587C93.1317 31.9577 94.343 32.0039 95.4647 32.3914C96.5863 32.7789 97.5679 33.4903 98.2852 34.4356C99.0025 35.3809 99.4234 36.5177 99.4947 37.7023C99.5659 38.8868 99.2843 40.0659 98.6855 41.0904C98.0866 42.1149 97.1974 42.9388 96.1303 43.4579C95.0631 43.9771 93.8661 44.1681 92.6904 44.0069C91.5147 43.8457 90.4132 43.3394 89.5252 42.5522C88.6373 41.765 88.0027 40.7321 87.7017 39.5842C87.2981 38.045 87.5225 36.4084 88.3256 35.0346C89.1286 33.6608 90.4445 32.6623 91.9838 32.2587ZM45.4117 32.064C45.1107 30.9162 45.1569 29.7048 45.5443 28.5832C45.9318 27.4615 46.6432 26.48 47.5886 25.7626C48.5339 25.0453 49.6707 24.6244 50.8553 24.5531C52.0398 24.4819 53.2189 24.7635 54.2434 25.3624C55.2679 25.9612 56.0918 26.8504 56.6109 27.9175C57.13 28.9847 57.3211 30.1818 57.1599 31.3574C56.9986 32.5331 56.4924 33.6346 55.7052 34.5226C54.918 35.4106 53.8851 36.0452 52.7372 36.3461C51.1979 36.7497 49.5614 36.5253 48.1876 35.7223C46.8138 34.9192 45.8152 33.6033 45.4117 32.064ZM51.1624 89.4829C50.0145 89.7839 48.8031 89.7377 47.6815 89.3502C46.5598 88.9628 45.5783 88.2514 44.861 87.306C44.1436 86.3607 43.7227 85.2239 43.6515 84.0393C43.5802 82.8548 43.8618 81.6757 44.4607 80.6512C45.0596 79.6267 45.9488 78.8028 47.0159 78.2837C48.083 77.7646 49.2801 77.5735 50.4558 77.7347C51.6315 77.896 52.7329 78.4022 53.6209 79.1894C54.5089 79.9766 55.1435 81.0095 55.4445 82.1574C55.8481 83.6966 55.6236 85.3332 54.8206 86.707C54.0175 88.0808 52.7016 89.0793 51.1624 89.4829ZM63.8671 55.1378C63.5661 53.9899 63.6123 52.7785 63.9998 51.6569C64.3873 50.5352 65.0987 49.5537 66.044 48.8363C66.9893 48.119 68.1261 47.6981 69.3107 47.6269C70.4952 47.5556 71.6743 47.8372 72.6988 48.4361C73.7233 49.035 74.5472 49.9242 75.0663 50.9913C75.5855 52.0584 75.7765 53.2555 75.6153 54.4312C75.4541 55.6068 74.9478 56.7083 74.1606 57.5963C73.3734 58.4843 72.3405 59.1189 71.1926 59.4199C69.6534 59.8234 68.0168 59.599 66.643 58.796C65.2692 57.9929 64.2707 56.677 63.8671 55.1378ZM102.636 72.8854C101.488 73.1864 100.277 73.1402 99.155 72.7527C98.0334 72.3653 97.0518 71.6539 96.3345 70.7085C95.6171 69.7632 95.1962 68.6264 95.125 67.4418C95.0537 66.2573 95.3354 65.0782 95.9342 64.0537C96.5331 63.0292 97.4223 62.2053 98.4894 61.6862C99.5565 61.1671 100.754 60.976 101.929 61.1372C103.105 61.2985 104.206 61.8047 105.094 62.5919C105.982 63.3791 106.617 64.412 106.918 65.5599C107.322 67.0992 107.097 68.7357 106.294 70.1095C105.491 71.4833 104.175 72.4818 102.636 72.8854Z" fill="url(#paint4_linear_540_848)"/>
</g>
<rect x="0.5" y="0.5" width="318" height="182" rx="14.5" stroke="#C3C2C2"/>
<defs>
<linearGradient id="paint0_linear_540_848" x1="196.297" y1="48.0469" x2="279.297" y2="40.0469" gradientUnits="userSpaceOnUse">
<stop stop-color="#5FB865"/>
<stop offset="1" stop-color="#69E571"/>
</linearGradient>
<linearGradient id="paint1_linear_540_848" x1="286.931" y1="200.074" x2="272.527" y2="102.232" gradientUnits="userSpaceOnUse">
<stop stop-color="#5FB865"/>
<stop offset="1" stop-color="#69E571"/>
</linearGradient>
<linearGradient id="paint2_linear_540_848" x1="154.73" y1="109.802" x2="141.554" y2="92.8212" gradientUnits="userSpaceOnUse">
<stop stop-color="#5FB865"/>
<stop offset="1" stop-color="#69E671"/>
</linearGradient>
<linearGradient id="paint3_linear_540_848" x1="149.193" y1="79" x2="149.193" y2="127.386" gradientUnits="userSpaceOnUse">
<stop stop-color="#69E571"/>
<stop offset="1" stop-color="#5FB865"/>
</linearGradient>
<linearGradient id="paint4_linear_540_848" x1="59.7523" y1="15.8984" x2="94" y2="84" gradientUnits="userSpaceOnUse">
<stop stop-color="#5FB865"/>
<stop offset="1" stop-color="#69E571"/>
</linearGradient>
<clipPath id="clip0_540_848">
<rect width="319" height="183" rx="15" fill="white"/>
</clipPath>
</defs>
</svg>
