<svg width="415" height="107" viewBox="0 0 415 107" fill="none" xmlns="http://www.w3.org/2000/svg">
<path d="M11.3031 -47.3932C12.1828 -53.3475 17.5771 -57.5184 23.5013 -56.9478L24.0765 -56.8785L194.724 -31.6666L195.294 -31.567C201.13 -30.4001 205.088 -24.8474 204.208 -18.8932L200.345 7.25529L200.346 7.25626L200.017 9.48185L200.016 9.48087L197.426 27.0072L197.428 27.0082L197.099 29.2338L197.097 29.2328L194.508 46.7592L194.51 46.7602L194.181 48.9867L194.179 48.9858L193.028 56.7856L192.929 57.3568C191.8 63.0045 186.562 66.8934 180.829 66.3412L180.254 66.2709L9.60681 41.059L9.0365 40.9594C3.38874 39.8301 -0.499874 34.5938 0.0521259 28.8608L0.121462 28.2856L9.78552 -37.1246H9.78455L10.3334 -40.8346L11.3031 -47.3932ZM97.2885 50.2221L180.802 62.561C184.9 63.1663 188.712 60.3353 189.318 56.2377L190.469 48.4379L99.5365 35.0033L97.2885 50.2221ZM3.83142 28.8334C3.22604 32.931 6.05715 36.7435 10.1547 37.349L95.0629 49.893L97.3109 34.6742L4.98279 21.0336L3.83142 28.8334ZM99.8656 32.7768L190.798 46.2113L193.387 28.685L102.455 15.2504L99.8656 32.7768ZM5.31189 18.808L97.64 32.4477L100.229 14.9213L7.90076 1.28165L5.31189 18.808ZM102.784 13.0248L193.716 26.4594L196.306 8.93302L105.373 -4.50155L102.784 13.0248ZM8.22986 -0.944908L100.558 12.6957L103.147 -4.83065L10.8187 -18.4703L8.22986 -0.944908ZM105.703 -6.72811L196.635 6.70744L198.982 -9.17245L108.048 -22.608L105.703 -6.72811ZM11.1478 -20.6969L103.476 -7.05624L105.822 -22.9361L13.4945 -36.5767L11.1478 -20.6969ZM23.5277 -53.1685C19.4303 -53.7736 15.6175 -50.9427 15.0121 -46.8453L14.0424 -40.2867L199.53 -12.8824L200.499 -19.441C201.086 -23.4106 198.447 -27.1124 194.556 -27.8902L194.176 -27.9566L23.5277 -53.1685Z" fill="url(#paint0_linear_779_70)"/>
<path d="M143.637 110.861L154.843 118.389M174.497 119.394L180.143 110.99C180.642 110.247 180.826 109.336 180.653 108.457C180.481 107.579 179.966 106.805 179.223 106.306L173.62 102.542C172.877 102.043 171.966 101.859 171.088 102.032C170.21 102.204 169.436 102.719 168.937 103.462L163.291 111.866M174.497 119.394C175.24 119.893 175.754 120.667 175.927 121.546C176.099 122.424 175.916 123.335 175.417 124.078L171.05 130.578C167.537 135.808 170.181 143.976 167.565 147.87L160.318 158.659C159.32 160.145 157.772 161.174 156.015 161.519C154.259 161.864 152.437 161.496 150.951 160.498L139.745 152.97C138.259 151.972 137.23 150.424 136.885 148.668C136.54 146.911 136.907 145.089 137.905 143.603L158.607 112.786C159.106 112.043 159.88 111.529 160.759 111.356C161.637 111.184 162.548 111.367 163.291 111.866M174.497 119.394L163.291 111.866M165.964 150.254L109.933 112.615M135.275 93.0465C134.532 92.5474 133.621 92.3639 132.743 92.5363C131.865 92.7088 131.091 93.2231 130.592 93.9661L126.225 100.466C122.712 105.696 114.15 106.336 111.534 110.231L104.287 121.019C103.288 122.505 102.921 124.327 103.266 126.084C103.611 127.84 104.64 129.388 106.126 130.386L117.332 137.914C118.818 138.913 120.64 139.28 122.397 138.935C124.153 138.59 125.701 137.561 126.699 136.075L147.401 105.258C147.9 104.515 148.084 103.604 147.911 102.726C147.739 101.847 147.224 101.074 146.481 100.574M135.275 93.0465L146.481 100.574M135.275 93.0465L140.921 84.6419C141.42 83.8988 142.194 83.3845 143.072 83.2121C143.951 83.0396 144.862 83.2231 145.605 83.7223L151.208 87.4862C151.951 87.9854 152.465 88.7592 152.638 89.6376C152.81 90.5159 152.627 91.4268 152.127 92.1698L146.481 100.574" stroke="url(#paint1_linear_779_70)" stroke-width="3" stroke-linecap="round" stroke-linejoin="round"/>
<path d="M376.705 47.1011C382.46 45.5818 388.457 48.828 390.286 54.5621L404.389 98.7652H404.39L405.073 100.909L413.538 127.442L413.7 127.999C415.171 133.567 412.179 139.363 406.787 141.389L406.24 141.58L324.412 167.686L323.671 167.923L323.67 167.922L241.901 194.011L241.346 194.173C235.777 195.644 229.981 192.652 227.954 187.26L227.765 186.713L225.368 179.202L224.684 177.058V177.057L213.23 141.157V141.158L212.545 139.014L212.546 139.013L207.667 123.721L206.526 120.149V120.148L204.512 113.833C202.682 108.098 205.692 101.979 211.263 99.8853L211.811 99.6949L376.149 47.2632L376.705 47.1011ZM228.941 178.061L231.337 185.573C232.596 189.519 236.816 191.698 240.762 190.439L322.53 164.35L317.855 149.693L228.941 178.061ZM222.871 159.04L228.256 175.918L317.17 147.549L311.785 130.67L222.871 159.04ZM319.997 149.009L324.674 163.667L405.101 138.006C409.047 136.747 411.225 132.528 409.966 128.582L407.568 121.071L319.997 149.009ZM216.802 140.017L222.187 156.896L311.102 128.527L305.717 111.649L216.802 140.017ZM313.929 129.987L319.314 146.866L406.885 118.927L401.499 102.048L313.929 129.987ZM211.238 122.581L216.117 137.874L305.032 109.505L300.153 94.2125L211.238 122.581ZM307.859 110.965L313.244 127.843L400.816 99.9048L395.431 83.0269L307.859 110.965ZM386.713 55.7017C385.493 51.8789 381.496 49.715 377.659 50.7281L377.288 50.8355L212.95 103.268C209.004 104.527 206.825 108.747 208.084 112.693L210.099 119.008L388.728 62.0171L386.713 55.7017ZM302.297 93.5289L307.176 108.822L394.746 80.8834L389.867 65.5904L302.297 93.5289Z" fill="url(#paint2_linear_779_70)"/>
<path d="M284.769 -2.05786L288.477 10.228L297.644 12.3356M308.581 4.15947C309.378 6.79957 309.647 9.57079 309.373 12.3149C309.099 15.059 308.287 17.7223 306.984 20.1526C305.681 22.583 303.911 24.7328 301.777 26.4794C299.643 28.226 297.186 29.5351 294.546 30.332C291.906 31.1289 289.134 31.3981 286.39 31.124C283.646 30.8499 280.983 30.0381 278.553 28.7347C276.122 27.4314 273.972 25.6622 272.226 23.528C270.479 21.3938 269.17 18.9366 268.373 16.2964C266.764 10.9645 267.338 5.21161 269.97 0.303308C272.603 -4.605 277.077 -8.26664 282.409 -9.87611C287.741 -11.4856 293.494 -10.911 298.402 -8.27883C303.31 -5.64665 306.972 -1.17246 308.581 4.15947Z" stroke="#41748D" stroke-width="3.6" stroke-linecap="round" stroke-linejoin="round"/>
<defs>
<linearGradient id="paint0_linear_779_70" x1="193.976" y1="-6.27196" x2="62.476" y2="66.7275" gradientUnits="userSpaceOnUse">
<stop stop-color="#41748D"/>
<stop offset="1" stop-color="#51ABD8"/>
</linearGradient>
<linearGradient id="paint1_linear_779_70" x1="162.414" y1="95.0142" x2="132.477" y2="198.728" gradientUnits="userSpaceOnUse">
<stop stop-color="#41748D"/>
<stop offset="1" stop-color="#122027"/>
</linearGradient>
<linearGradient id="paint2_linear_779_70" x1="318.477" y1="149.228" x2="218.977" y2="72.728" gradientUnits="userSpaceOnUse">
<stop stop-color="#41748D"/>
<stop offset="1" stop-color="#51ABD8"/>
</linearGradient>
</defs>
</svg>
